<svg xmlns="http://www.w3.org/2000/svg" version="1.1" xmlns:xlink="http://www.w3.org/1999/xlink" xmlns:svgjs="http://svgjs.com/svgjs" width="96" height="141.91"><svg xmlns="http://www.w3.org/2000/svg" width="96" viewBox="0 0 94.62 141.91">
  <title>footer-logoankoa</title>
  <g>
    <path d="M51.67,76.92c-.14-.2-.35-.49-.56-.82a2.52,2.52,0,0,1-.37-.91c0-.24,0-.42.14-.45l.3-.08c.12,0,.25.08.35.3a2,2,0,0,1,.12.41c0,.2.05.36.07.52.05.37.08.72.1,1a3.17,3.17,0,0,0,.07.41A2.93,2.93,0,0,0,51.67,76.92Zm2.5,1.82c-.09.43-.19.82-.26,1.11a3.86,3.86,0,0,0-.09.46,3.86,3.86,0,0,0-.09-.46c-.06-.29-.17-.68-.26-1.11a3.55,3.55,0,0,1-.1-1.11c0-.29.14-.46.27-.46H54c.13,0,.24.17.28.46A3.85,3.85,0,0,1,54.17,78.74Zm.61-3.69a3.54,3.54,0,0,1-.34,1.11c-.14.28-.29.46-.44.46h-.39c-.15,0-.29-.18-.44-.46a3.37,3.37,0,0,1-.35-1.11,2.09,2.09,0,0,1,.08-1.11.66.66,0,0,1,.58-.46h.63a.65.65,0,0,1,.58.46A2.06,2.06,0,0,1,54.78,75.05Zm.45-3.7a2.49,2.49,0,0,1-.4,1.12,1,1,0,0,1-.7.46h-.68a.91.91,0,0,1-.69-.45,2.39,2.39,0,0,1-.42-1.11,1.77,1.77,0,0,1,.22-1.11,1,1,0,0,1,.79-.47h.85a.94.94,0,0,1,.8.46A1.69,1.69,0,0,1,55.23,71.35Zm1.63,3.82a2.57,2.57,0,0,1-.35.91c-.21.33-.42.61-.56.83a2.49,2.49,0,0,0-.22.34,2.48,2.48,0,0,0,.06-.4c0-.26.05-.61.09-1,0-.16,0-.32.08-.52a1.53,1.53,0,0,1,.11-.41c.09-.22.23-.34.35-.31l.3.08C56.84,74.74,56.89,74.92,56.86,75.17Zm1-2.09a2.92,2.92,0,0,1-.51.88c-.18.22-.36.33-.49.3l-.35-.09c-.14,0-.22-.21-.31-.47a3,3,0,0,1-.11-1,1.66,1.66,0,0,1,.27-.9.59.59,0,0,1,.58-.3l.58.1a.63.63,0,0,1,.46.49A1.67,1.67,0,0,1,57.87,73.08Zm1-3.14a2.08,2.08,0,0,1-.52.91.88.88,0,0,1-.71.3L57,71a.82.82,0,0,1-.57-.49,1.9,1.9,0,0,1-.23-1,1.35,1.35,0,0,1,.32-.9.89.89,0,0,1,.78-.3l.77.09a.85.85,0,0,1,.68.48A1.45,1.45,0,0,1,58.85,69.94Zm.68-3.31a1.38,1.38,0,0,1-1.36,1.25l-.81-.09a1.12,1.12,0,0,1-.77-.47,1.65,1.65,0,0,1-.33-1,1.22,1.22,0,0,1,1.29-1.24l.92.07A1.21,1.21,0,0,1,59.53,66.63Zm-.85-5.13-1,0a1.41,1.41,0,0,1-1.39-1.37,1.33,1.33,0,0,1,.41-.93,1.43,1.43,0,0,1,1-.4h1a1.44,1.44,0,0,1,1,.4,1.27,1.27,0,0,1,.4,1A1.42,1.42,0,0,1,58.68,61.5Zm1.26,1.9a1.41,1.41,0,0,1-1.44,1.29l-.93-.06a1.42,1.42,0,0,1-1.29-1.41,1.32,1.32,0,0,1,1.39-1.28l1,0a1.4,1.4,0,0,1,1,.44A1.32,1.32,0,0,1,59.94,63.4Zm-.21-5.62a1.42,1.42,0,0,1-1,.41h-1a1.49,1.49,0,0,1-1-.39,1.27,1.27,0,0,1-.42-.93,1.42,1.42,0,0,1,1.38-1.38l1,0a1.4,1.4,0,0,1,1.47,1.32A1.29,1.29,0,0,1,59.73,57.78Zm1.5,12.67a2.6,2.6,0,0,1-.42.89,9.3,9.3,0,0,1-.66.78l-.2.23-.06.09,0-.1A2.6,2.6,0,0,0,60,72c0-.26.1-.6.16-1a2.55,2.55,0,0,1,.24-.92c.12-.21.27-.32.39-.28l.33.1C61.23,70,61.29,70.19,61.23,70.45Zm-1.29-26,.09,0s.13.11.3.31a5.78,5.78,0,0,1,.62.82,2.38,2.38,0,0,1,.34.92c0,.26,0,.44-.2.48l-.39.12c-.14,0-.31-.07-.44-.28a2.36,2.36,0,0,1-.24-.92c0-.38-.07-.72-.08-1A1.8,1.8,0,0,1,59.94,44.46ZM59.6,54.54a1.41,1.41,0,0,1-1,.45l-1,0a1.32,1.32,0,0,1-1.41-1.26,1.42,1.42,0,0,1,1.28-1.43l1-.07a1.4,1.4,0,0,1,1.46,1.28A1.28,1.28,0,0,1,59.6,54.54Zm-.12-4.22a1.31,1.31,0,0,1-.21,1,1.2,1.2,0,0,1-.86.48l-.94.07a1.24,1.24,0,0,1-1.33-1.22,1.58,1.58,0,0,1,.32-1,1.24,1.24,0,0,1,.8-.49l.83-.09a1.11,1.11,0,0,1,.87.3A1.6,1.6,0,0,1,59.48,50.32ZM58.79,47a1.39,1.39,0,0,1-.09,1,.89.89,0,0,1-.69.5l-.81.1a1,1,0,0,1-.81-.29,1.33,1.33,0,0,1-.35-.9,1.87,1.87,0,0,1,.25-1,.91.91,0,0,1,.6-.5l.64-.11C58,45.74,58.6,46.27,58.79,47Zm-.95-3.13a1.71,1.71,0,0,1,.08,1,.66.66,0,0,1-.49.5l-.62.11a.66.66,0,0,1-.63-.29,1.58,1.58,0,0,1-.28-.9,3.58,3.58,0,0,1,.12-1c.09-.27.2-.45.36-.48l.4-.1c.15,0,.34.08.54.29A2.42,2.42,0,0,1,57.84,43.88Zm-2.17-3.76c0-.25,0-.41,0-.42l.07,0s.12.12.26.33a9.87,9.87,0,0,1,.53.86,2.15,2.15,0,0,1,.29.92c0,.25-.06.43-.2.46l-.36.09c-.14,0-.29-.08-.39-.31a3.24,3.24,0,0,1-.2-.93C55.67,40.73,55.67,40.38,55.67,40.12ZM53.16,37.8c.08-.43.19-.83.27-1.11s.13-.46.16-.46h.08s.08.17.17.46.19.67.28,1.11a3.36,3.36,0,0,1,.06,1.11c0,.28-.18.46-.33.46h-.4c-.16,0-.28-.17-.34-.46A3.34,3.34,0,0,1,53.16,37.8Zm-.58,3.69a3.45,3.45,0,0,1,.35-1.11c.16-.28.32-.46.49-.46h.45c.17,0,.34.17.5.46a3.38,3.38,0,0,1,.36,1.1,2,2,0,0,1-.12,1.11.71.71,0,0,1-.61.47h-.68a.68.68,0,0,1-.61-.46A1.94,1.94,0,0,1,52.58,41.49Zm-.41,3.69a2.28,2.28,0,0,1,.41-1.11,1,1,0,0,1,.73-.46H54a1,1,0,0,1,.74.46,2.24,2.24,0,0,1,.41,1.11,1.66,1.66,0,0,1-.23,1.11,1,1,0,0,1-.83.46h-.87a1,1,0,0,1-.83-.46A1.7,1.7,0,0,1,52.17,45.18Zm-1.42-4.29a9.18,9.18,0,0,1,.52-.86c.14-.21.22-.34.25-.34l.08,0a1.8,1.8,0,0,1,0,.42c0,.26,0,.61,0,1a3.4,3.4,0,0,1-.18.93c-.1.23-.25.35-.39.31l-.36-.08c-.14,0-.22-.21-.21-.46A2.18,2.18,0,0,1,50.75,40.89Z" fill="#8a6151"></path>
    <path d="M58.47,65.17l-.92-.07a1.22,1.22,0,0,0-1.29,1.24,1.65,1.65,0,0,0,.33,1,1.12,1.12,0,0,0,.77.47l.81.09a1.38,1.38,0,0,0,1.36-1.25A1.21,1.21,0,0,0,58.47,65.17Z" fill="#8a6151"></path>
    <path d="M62.35,63.66l-.78-.08a1,1,0,0,0-.79.32,1.3,1.3,0,0,0-.33.9,1.92,1.92,0,0,0,.22,1,.94.94,0,0,0,.6.5l.64.11a.87.87,0,0,0,.73-.29,1.91,1.91,0,0,0,.52-.94,1.47,1.47,0,0,0-.11-1A.94.94,0,0,0,62.35,63.66Z" fill="#8a6151"></path>
    <path d="M58.45,52.27l-1,.07a1.42,1.42,0,0,0-1.28,1.43A1.32,1.32,0,0,0,57.63,55l1,0a1.41,1.41,0,0,0,1-.45,1.28,1.28,0,0,0,.31-1A1.4,1.4,0,0,0,58.45,52.27Z" fill="#8a6151"></path>
    <path d="M59.74,59.17a1.44,1.44,0,0,0-1-.4h-1a1.43,1.43,0,0,0-1,.4,1.33,1.33,0,0,0-.41.93,1.41,1.41,0,0,0,1.39,1.37l1,0a1.42,1.42,0,0,0,1.46-1.35A1.27,1.27,0,0,0,59.74,59.17Z" fill="#8a6151"></path>
    <path d="M58.66,55.47l-1,0a1.42,1.42,0,0,0-1.38,1.38,1.27,1.27,0,0,0,.42.93,1.49,1.49,0,0,0,1,.39h1a1.42,1.42,0,0,0,1-.41,1.29,1.29,0,0,0,.4-1A1.4,1.4,0,0,0,58.66,55.47Z" fill="#8a6151"></path>
    <path d="M58.67,62l-1,0a1.32,1.32,0,0,0-1.39,1.28,1.42,1.42,0,0,0,1.29,1.41l.93.06a1.41,1.41,0,0,0,1.44-1.29,1.32,1.32,0,0,0-.31-1A1.4,1.4,0,0,0,58.67,62Z" fill="#8a6151"></path>
    <path d="M61.82,66.86l-.61-.11a.64.64,0,0,0-.63.27,1.61,1.61,0,0,0-.3.9,3.71,3.71,0,0,0,.09,1c.08.27.18.45.32.5l.38.11c.14,0,.33-.07.54-.27a2.44,2.44,0,0,0,.57-.89,1.7,1.7,0,0,0,.11-1A.61.61,0,0,0,61.82,66.86Z" fill="#8a6151"></path>
    <path d="M62.2,48.57a2.44,2.44,0,0,0-.57-.88c-.2-.21-.4-.32-.57-.27l-.43.12c-.16,0-.29.24-.38.51a2.38,2.38,0,0,0-.1,1,1.63,1.63,0,0,0,.32.89.7.7,0,0,0,.66.28l.64-.13C62.26,50,62.51,49.3,62.2,48.57Z" fill="#8a6151"></path>
    <path d="M62.62,60.33l-.88,0a1.15,1.15,0,0,0-.86.36,1.43,1.43,0,0,0-.36.92A1.37,1.37,0,0,0,61.62,63l.8.07a1.35,1.35,0,0,0,1.3-1.3,1.37,1.37,0,0,0-.27-1A1.1,1.1,0,0,0,62.62,60.33Z" fill="#8a6151"></path>
    <path d="M63.15,51.76a1.76,1.76,0,0,0-.51-.92.94.94,0,0,0-.76-.29l-.68.12a1,1,0,0,0-.61.51,1.83,1.83,0,0,0-.24,1,1.15,1.15,0,0,0,1.18,1.2l.8-.09a.91.91,0,0,0,.72-.49A1.44,1.44,0,0,0,63.15,51.76Z" fill="#8a6151"></path>
    <path d="M61.57,53.94a1.34,1.34,0,0,0-1.08,1.43,1.24,1.24,0,0,0,1.24,1.28l.88,0a1.26,1.26,0,0,0,1.11-1.46,1.62,1.62,0,0,0-.47-1,1.09,1.09,0,0,0-.86-.33Z" fill="#8a6151"></path>
    <path d="M62.63,57.09l-.88,0a1.22,1.22,0,0,0-.86.41,1.38,1.38,0,0,0-.36.95,1.43,1.43,0,0,0,.37.94,1.21,1.21,0,0,0,.85.41l.89,0a1.18,1.18,0,0,0,.88-.39,1.47,1.47,0,0,0,.36-1A1.29,1.29,0,0,0,62.63,57.09Z" fill="#8a6151"></path>
    <path d="M57.53,71.61l-.58-.1a.59.59,0,0,0-.58.3,1.66,1.66,0,0,0-.27.9,3,3,0,0,0,.11,1c.09.26.17.44.31.47l.35.09c.13,0,.31-.08.49-.3a2.92,2.92,0,0,0,.51-.88,1.67,1.67,0,0,0,.12-1A.63.63,0,0,0,57.53,71.61Z" fill="#8a6151"></path>
    <path d="M54.2,69.79h-.85a1,1,0,0,0-.79.47,1.77,1.77,0,0,0-.22,1.11,2.39,2.39,0,0,0,.42,1.11.91.91,0,0,0,.69.45h.68a1,1,0,0,0,.7-.46,2.49,2.49,0,0,0,.4-1.12,1.69,1.69,0,0,0-.23-1.1A.94.94,0,0,0,54.2,69.79Z" fill="#8a6151"></path>
    <path d="M54.11,73.48h-.63a.66.66,0,0,0-.58.46,2.09,2.09,0,0,0-.08,1.11,3.37,3.37,0,0,0,.35,1.11c.15.28.29.46.44.46H54c.15,0,.3-.18.44-.46a3.54,3.54,0,0,0,.34-1.11,2.06,2.06,0,0,0-.09-1.11A.65.65,0,0,0,54.11,73.48Z" fill="#8a6151"></path>
    <path d="M58.08,68.46l-.77-.09a.89.89,0,0,0-.78.3,1.35,1.35,0,0,0-.32.9,1.9,1.9,0,0,0,.23,1A.82.82,0,0,0,57,71l.61.11a.88.88,0,0,0,.71-.3,2.08,2.08,0,0,0,.52-.91,1.45,1.45,0,0,0-.09-1A.85.85,0,0,0,58.08,68.46Z" fill="#8a6151"></path>
    <path d="M57.26,49.18a1.24,1.24,0,0,0-.8.49,1.58,1.58,0,0,0-.32,1,1.24,1.24,0,0,0,1.33,1.22l.94-.07a1.2,1.2,0,0,0,.86-.48,1.31,1.31,0,0,0,.21-1,1.6,1.6,0,0,0-.52-.93,1.11,1.11,0,0,0-.87-.3Z" fill="#8a6151"></path>
    <path d="M53.24,46.75h.87a1,1,0,0,0,.83-.46,1.66,1.66,0,0,0,.23-1.11,2.24,2.24,0,0,0-.41-1.11A1,1,0,0,0,54,43.6h-.71a1,1,0,0,0-.73.46,2.28,2.28,0,0,0-.41,1.11,1.7,1.7,0,0,0,.24,1.11A1,1,0,0,0,53.24,46.75Z" fill="#8a6151"></path>
    <path d="M53.32,43.06H54a.71.71,0,0,0,.61-.47,2,2,0,0,0,.12-1.11,3.38,3.38,0,0,0-.36-1.1c-.16-.29-.33-.47-.5-.46h-.45c-.17,0-.33.18-.49.46a3.45,3.45,0,0,0-.35,1.11,1.94,1.94,0,0,0,.13,1.11A.68.68,0,0,0,53.32,43.06Z" fill="#8a6151"></path>
    <path d="M57.53,45.82l-.64.11a.91.91,0,0,0-.6.5,1.87,1.87,0,0,0-.25,1,1.33,1.33,0,0,0,.35.9,1,1,0,0,0,.81.29l.81-.1a.89.89,0,0,0,.69-.5,1.39,1.39,0,0,0,.09-1C58.6,46.27,58,45.74,57.53,45.82Z" fill="#8a6151"></path>
    <path d="M56.38,42.81c-.16,0-.27.21-.36.48a3.58,3.58,0,0,0-.12,1,1.58,1.58,0,0,0,.28.9.66.66,0,0,0,.63.29l.62-.11a.66.66,0,0,0,.49-.5,1.71,1.71,0,0,0-.08-1,2.42,2.42,0,0,0-.52-.88c-.2-.21-.39-.33-.54-.29Z" fill="#8a6151"></path>
    <path d="M47.31,0A47.36,47.36,0,0,0,0,47.31V94.6a47.31,47.31,0,0,0,94.62,0V47.31A47.36,47.36,0,0,0,47.31,0Zm-45,94.6V65.82h4v29a40.16,40.16,0,0,0,7.45,23.38l-3.21,2.25A44.74,44.74,0,0,1,2.27,94.6Zm15.8,20.57-3.67,2.58a39.4,39.4,0,0,1-7.29-22.9v-29h4V94A35.87,35.87,0,0,0,18.07,115.17ZM46.46,40.71,42,45.16v-8.8A20.35,20.35,0,0,1,46.46,40.71Zm-4.45-7v-6A43.27,43.27,0,0,0,47,28a43.36,43.36,0,0,0,5.62-.38v5.89a21.36,21.36,0,0,0-5.43,4.65A21.5,21.5,0,0,0,42,33.75Zm5.7,8.76a26.48,26.48,0,0,1,2.08,4.16L42,54.46V48.2Zm2.87,6.4a30.7,30.7,0,0,1,1.14,5.14L42,63.76V57.5Zm1.36,8c0,.42.07.83.07,1.26a32,32,0,0,1-.47,5.4L42,73.06V66.8ZM50.63,67.48A23.57,23.57,0,0,1,42,80.11v-4Zm1.88,1.19a1.16,1.16,0,0,0,.83.45h.87a1.58,1.58,0,0,0,1.33-1.58A1.36,1.36,0,0,0,54.26,66h-1c0-.18.09-.36.13-.55h.85a1.58,1.58,0,0,0,1.47-1.57,1.47,1.47,0,0,0-1.44-1.57h-.38c0-.18,0-.36.06-.54h.32a1.57,1.57,0,0,0,1.53-1.58,1.54,1.54,0,0,0-1.53-1.56h-.13c0-.16,0-.32,0-.48a1.15,1.15,0,0,0,0-.19h.12a1.55,1.55,0,0,0,1.53-1.58,1.58,1.58,0,0,0-1.55-1.56H54c0-.18,0-.36-.07-.55h.34a1.47,1.47,0,0,0,1.45-1.57,1.59,1.59,0,0,0-1.49-1.57H53.4c0-.18-.07-.37-.12-.55h.92A1.38,1.38,0,0,0,55.5,49,1.89,1.89,0,0,0,55,47.87a1.21,1.21,0,0,0-.91-.46h-.9a1.13,1.13,0,0,0-.75.34,29.36,29.36,0,0,0-3.94-7.83,19.36,19.36,0,0,1,5.09-4.5c6.8,4,11.21,12.83,11.25,22.64s-4.29,18.72-11,22.74a19.37,19.37,0,0,1-5.12-4.44A28.66,28.66,0,0,0,52.51,68.67ZM47,25.75a40.42,40.42,0,0,1-19.93-5.29,33.64,33.64,0,0,1,40.21-.2A40.36,40.36,0,0,1,47,25.75Zm-7.28,1.62v6.24C32.28,38,27.5,47.65,27.55,58.23S32.5,78.52,40,82.81a2.86,2.86,0,0,0,.94.39H41a5.52,5.52,0,0,0,.86-.38,21.15,21.15,0,0,0,5.47-4.69,21,21,0,0,0,5.53,4.64,2.69,2.69,0,0,0,.94.39h.07a5.52,5.52,0,0,0,.86-.38C62.27,78.39,67.09,68.7,67,58.06c-.05-10.47-4.81-20-12.14-24.35V27.26a43.17,43.17,0,0,0,14.32-5.49,33.82,33.82,0,0,1,12,25.82V94a33.07,33.07,0,0,1-.45,5.2,48.83,48.83,0,0,0-66.83.47A33.21,33.21,0,0,1,13.41,94V47.59A33.77,33.77,0,0,1,25.16,22,43.39,43.39,0,0,0,39.72,27.37Zm-9.5,36.19a32.22,32.22,0,0,1-.51-5.34c0-.46.05-.9.07-1.36l9.94,9.94v6.26Zm9.5,12.54V80a23.65,23.65,0,0,1-8.54-12.43ZM30,54a29.73,29.73,0,0,1,1.11-5.16l8.62,8.63v6.26Zm1.89-7.41A27.1,27.1,0,0,1,34,42.44l5.77,5.76v6.26Zm3.32-6a20.13,20.13,0,0,1,4.52-4.42v8.93Zm12.37,80.94a13.67,13.67,0,0,0-10.34,4.75A34.39,34.39,0,0,1,33.76,125a17.17,17.17,0,0,1,27.47-.18,36.83,36.83,0,0,1-3.45,1.35A13.64,13.64,0,0,0,47.57,121.59Zm7.69,5.3a33.61,33.61,0,0,1-7.95,1,34.11,34.11,0,0,1-7.54-.87,11.27,11.27,0,0,1,15.49-.11Zm-7.7-11.1A19.51,19.51,0,0,0,31.69,124c-1-.54-2-1.12-3-1.75A22.91,22.91,0,0,1,66.33,122a30.93,30.93,0,0,1-3,1.84A19.46,19.46,0,0,0,47.56,115.79Zm0-5.76A25.26,25.26,0,0,0,26.87,121a33.38,33.38,0,0,1-2.8-2.37,28.83,28.83,0,0,1,46.85-.33,35,35,0,0,1-2.77,2.4A25.28,25.28,0,0,0,47.61,110Zm0-5.91A31.14,31.14,0,0,0,22.46,117a33,33,0,0,1-2.4-2.9,34.67,34.67,0,0,1,54.79-.39,33.22,33.22,0,0,1-2.36,2.93A31.15,31.15,0,0,0,47.61,104.12Zm0-6a37.06,37.06,0,0,0-28.9,13.93,34.55,34.55,0,0,1-1.88-3.37A40.56,40.56,0,0,1,78,108.29a33.3,33.3,0,0,1-1.82,3.38A37.05,37.05,0,0,0,47.61,98.16Zm-31.78,8.31a33.65,33.65,0,0,1-1.34-4.16,46.56,46.56,0,0,1,65.76-.49A32.94,32.94,0,0,1,79,106a42.72,42.72,0,0,0-63.13.45ZM83.48,94V65.82h3.93v29a39.38,39.38,0,0,1-7.2,22.76l-3.59-2.52A35.92,35.92,0,0,0,83.48,94ZM47.31,139.64h0a44.94,44.94,0,0,1-35.43-17.33L19.44,117a36.13,36.13,0,0,0,55.81-.08l7.55,5.31A44.93,44.93,0,0,1,47.31,139.64Zm45-45a44.73,44.73,0,0,1-8.18,25.8l-3.27-2.31a40.21,40.21,0,0,0,7.35-23.24v-29h4.1Zm0-31.06H83.48V47.59a36.17,36.17,0,0,0-72.34,0V63.54H2.27V47.31a45,45,0,1,1,90.08,0Z" fill="#8a6151"></path>
  </g>
</svg><style>@media (prefers-color-scheme: light) { :root { filter: none; } }
</style></svg>