<svg xmlns="http://www.w3.org/2000/svg" width="48" height="60" viewBox="0 0 56.67 56.67">
  <title>in-icon-colorankoa</title>
  <g>
    <circle cx="28.34" cy="28.34" r="28.34" fill="#8a6151"/>
    <g>
      <path d="M36.21,19.51a1.61,1.61,0,1,0,1.61,1.61A1.61,1.61,0,0,0,36.21,19.51Z" fill="#fff"/>
      <path d="M29.06,21.57a6.77,6.77,0,1,0,6.76,6.77A6.78,6.78,0,0,0,29.06,21.57Zm0,11.1a4.33,4.33,0,1,1,4.33-4.33A4.34,4.34,0,0,1,29.06,32.67Z" fill="#fff"/>
      <path d="M34.42,42.07h-11a8.26,8.26,0,0,1-8.25-8.25v-11a8.26,8.26,0,0,1,8.25-8.25h11a8.26,8.26,0,0,1,8.25,8.25v11A8.26,8.26,0,0,1,34.42,42.07Zm-11-24.88a5.67,5.67,0,0,0-5.66,5.67v11a5.67,5.67,0,0,0,5.66,5.66h11a5.67,5.67,0,0,0,5.67-5.66v-11a5.67,5.67,0,0,0-5.67-5.67Z" fill="#fff"/>
    </g>
  </g>
</svg>
