<svg xmlns="http://www.w3.org/2000/svg" width="60" height="60" viewBox="0 0 16.96 16.96">
  <title>in-icon-whiteankoa</title>
  <g>
    <path d="M13,3a1,1,0,1,0,1,1A1,1,0,0,0,13,3Z" fill="#fff"/>
    <path d="M8.55,4.3a4.18,4.18,0,1,0,4.18,4.18A4.19,4.19,0,0,0,8.55,4.3Zm0,6.86a2.68,2.68,0,1,1,2.68-2.68A2.68,2.68,0,0,1,8.55,11.16Z" fill="#fff"/>
    <path d="M11.87,17H5.09A5.1,5.1,0,0,1,0,11.87V5.09A5.1,5.1,0,0,1,5.09,0h6.78A5.1,5.1,0,0,1,17,5.09v6.78A5.1,5.1,0,0,1,11.87,17ZM5.09,1.6A3.49,3.49,0,0,0,1.6,5.09v6.78a3.49,3.49,0,0,0,3.49,3.49h6.78a3.49,3.49,0,0,0,3.49-3.49V5.09A3.49,3.49,0,0,0,11.87,1.6Z" fill="#fff"/>
  </g>
</svg>
