<svg xmlns="http://www.w3.org/2000/svg" width="200" viewBox="0 0 248.88 99.46">
  <title>logoankoa</title>
  <g>
    <g>
      <path d="M23.11,90.77a2.34,2.34,0,0,1,.62,1.68v.76H23v-.79a1.81,1.81,0,0,0-.42-1.26,1.73,1.73,0,0,0-1.34-.47,1.73,1.73,0,0,0-1.34.47,1.81,1.81,0,0,0-.42,1.26v4.76a1.8,1.8,0,0,0,.42,1.25,1.73,1.73,0,0,0,1.34.46,1.73,1.73,0,0,0,1.34-.46A1.8,1.8,0,0,0,23,97.18V96.09h.74v1a2.3,2.3,0,0,1-.62,1.68,2.55,2.55,0,0,1-1.9.64,2.54,2.54,0,0,1-1.89-.64,2.26,2.26,0,0,1-.62-1.68V92.45a2.3,2.3,0,0,1,.62-1.68,2.54,2.54,0,0,1,1.89-.63A2.55,2.55,0,0,1,23.11,90.77Z" fill="#fff"/>
      <path d="M30.07,99.38H29.3V90.22h.77v4.3H33.7v-4.3h.78v9.16H33.7V95.07H30.07Z" fill="#fff"/>
      <path d="M40.73,90.77a2.62,2.62,0,0,1,1.91-.63,2.68,2.68,0,0,1,1.94.63,2.28,2.28,0,0,1,.64,1.68v4.69a2.28,2.28,0,0,1-.64,1.69,2.68,2.68,0,0,1-1.94.63,2.62,2.62,0,0,1-1.91-.64,2.24,2.24,0,0,1-.64-1.68V92.45A2.27,2.27,0,0,1,40.73,90.77Zm.56,7.67a1.77,1.77,0,0,0,1.35.47A1.8,1.8,0,0,0,44,98.44a1.77,1.77,0,0,0,.44-1.26V92.42A1.78,1.78,0,0,0,44,91.15a1.8,1.8,0,0,0-1.37-.46,1.58,1.58,0,0,0-1.79,1.73v4.76A1.77,1.77,0,0,0,41.29,98.44Z" fill="#fff"/>
      <path d="M55.17,90.77a2.34,2.34,0,0,1,.62,1.68v.76h-.74v-.79a1.81,1.81,0,0,0-.42-1.26,2.15,2.15,0,0,0-2.68,0,1.81,1.81,0,0,0-.43,1.26v4.76A1.81,1.81,0,0,0,52,98.43a2.18,2.18,0,0,0,2.68,0,1.8,1.8,0,0,0,.42-1.25V96.09h.74v1a2.3,2.3,0,0,1-.62,1.68,2.55,2.55,0,0,1-1.9.64,2.58,2.58,0,0,1-1.9-.64,2.3,2.3,0,0,1-.61-1.68V92.45a2.33,2.33,0,0,1,.61-1.68,2.58,2.58,0,0,1,1.9-.63A2.55,2.55,0,0,1,55.17,90.77Z" fill="#fff"/>
      <path d="M62,90.77a2.63,2.63,0,0,1,1.91-.63,2.68,2.68,0,0,1,1.94.63,2.24,2.24,0,0,1,.64,1.68v4.69a2.25,2.25,0,0,1-.64,1.69,2.68,2.68,0,0,1-1.94.63A2.64,2.64,0,0,1,62,98.82a2.28,2.28,0,0,1-.64-1.68V92.45A2.31,2.31,0,0,1,62,90.77Zm.56,7.67a1.77,1.77,0,0,0,1.35.47,1.8,1.8,0,0,0,1.37-.47,1.73,1.73,0,0,0,.44-1.26V92.42a1.74,1.74,0,0,0-.44-1.27,1.8,1.8,0,0,0-1.37-.46,1.56,1.56,0,0,0-1.78,1.73v4.76A1.77,1.77,0,0,0,62.51,98.44Z" fill="#fff"/>
      <path d="M72,90.22h.77v8.61h3.66v.55H72Z" fill="#fff"/>
      <path d="M82.47,99.38h-.7l2.55-9.18h1.11L88,99.38h-.77l-.58-2H83.05Zm4.09-2.55L84.85,90.9l-1.68,5.93Z" fill="#fff"/>
      <path d="M95.54,90.77H93.16v-.55h5.51v.55H96.3v8.61h-.76Z" fill="#fff"/>
      <path d="M107.94,95h-3.18v3.82h3.83v.55H104V90.22h4.6v.55h-3.83v3.69h3.18Z" fill="#fff"/>
      <path d="M125,95h-3.18v3.82h3.83v.55h-4.6V90.22h4.6v.55h-3.83v3.69H125Z" fill="#fff"/>
      <path d="M135.6,90.77a2.34,2.34,0,0,1,.62,1.68v.76h-.73v-.79a1.81,1.81,0,0,0-.43-1.26,2.15,2.15,0,0,0-2.68,0,1.81,1.81,0,0,0-.42,1.26v4.76a1.8,1.8,0,0,0,.42,1.25,2.18,2.18,0,0,0,2.68,0,1.81,1.81,0,0,0,.43-1.25V96.09h.73v1a2.3,2.3,0,0,1-.62,1.68,3.13,3.13,0,0,1-3.79,0,2.3,2.3,0,0,1-.62-1.68V92.45a2.34,2.34,0,0,1,.62-1.68,3.17,3.17,0,0,1,3.79,0Z" fill="#fff"/>
      <path d="M142.94,98.44a2.13,2.13,0,0,0,2.67,0,1.9,1.9,0,0,0,.41-1.27v-7h.72v6.92a2.3,2.3,0,0,1-.61,1.68,3.07,3.07,0,0,1-3.75,0,2.3,2.3,0,0,1-.62-1.68V90.22h.77v7A1.9,1.9,0,0,0,142.94,98.44Z" fill="#fff"/>
      <path d="M152.91,99.38h-.7l2.55-9.18h1.12l2.59,9.18h-.76l-.58-2H153.5Zm4.1-2.55-1.72-5.93-1.68,5.93Z" fill="#fff"/>
      <path d="M166,90.77H163.6v-.55h5.51v.55h-2.36v8.61H166Z" fill="#fff"/>
      <path d="M175,90.77a2.59,2.59,0,0,1,1.9-.63,2.65,2.65,0,0,1,1.94.63,2.24,2.24,0,0,1,.64,1.68v4.69a2.25,2.25,0,0,1-.64,1.69,2.65,2.65,0,0,1-1.94.63,2.6,2.6,0,0,1-1.9-.64,2.24,2.24,0,0,1-.64-1.68V92.45A2.27,2.27,0,0,1,175,90.77Zm.56,7.67a1.73,1.73,0,0,0,1.34.47,1.83,1.83,0,0,0,1.38-.47,1.77,1.77,0,0,0,.44-1.26V92.42a1.78,1.78,0,0,0-.44-1.27,1.82,1.82,0,0,0-1.38-.46,1.73,1.73,0,0,0-1.34.46,1.78,1.78,0,0,0-.44,1.27v4.76A1.77,1.77,0,0,0,175.59,98.44Z" fill="#fff"/>
      <path d="M190,92.28v.8a1.89,1.89,0,0,1-.4,1.28,2.15,2.15,0,0,1-1.28.62A1.76,1.76,0,0,1,190,96.85v1.43a1.72,1.72,0,0,0,.29,1.1h-.8a1,1,0,0,1-.2-.45,3.82,3.82,0,0,1,0-.65V96.84a1.3,1.3,0,0,0-.55-1.21,3.11,3.11,0,0,0-1.63-.35h-1.22v4.1h-.76V90.22h2.43C189.2,90.22,190,90.91,190,92.28Zm-1.29,2.12a1.29,1.29,0,0,0,.53-1.2v-.86a1.52,1.52,0,0,0-.42-1.17,1.86,1.86,0,0,0-1.33-.4h-1.65v4h1.23A3.2,3.2,0,0,0,188.74,94.4Z" fill="#fff"/>
      <path d="M196.63,99.38h-.77V90.22h.77Z" fill="#fff"/>
      <path d="M202.82,99.38h-.7l2.55-9.18h1.11l2.6,9.18h-.77l-.58-2H203.4Zm4.09-2.55L205.2,90.9l-1.68,5.93Z" fill="#fff"/>
      <path d="M213.87,99.38V90.22h1L218.36,98V90.22h.7v9.16h-.84l-3.65-8.17v8.17Z" fill="#fff"/>
      <path d="M225.3,90.77a2.59,2.59,0,0,1,1.9-.63,2.65,2.65,0,0,1,1.94.63,2.24,2.24,0,0,1,.64,1.68v4.69a2.25,2.25,0,0,1-.64,1.69,2.65,2.65,0,0,1-1.94.63,2.6,2.6,0,0,1-1.9-.64,2.24,2.24,0,0,1-.64-1.68V92.45A2.27,2.27,0,0,1,225.3,90.77Zm.56,7.67a1.73,1.73,0,0,0,1.34.47,1.83,1.83,0,0,0,1.38-.47,1.77,1.77,0,0,0,.44-1.26V92.42a1.78,1.78,0,0,0-.44-1.27,1.82,1.82,0,0,0-1.38-.46,1.73,1.73,0,0,0-1.34.46,1.78,1.78,0,0,0-.44,1.27v4.76A1.77,1.77,0,0,0,225.86,98.44Z" fill="#fff"/>
    </g>
    <g>
      <path d="M108.25,48.94V70.57h8V42.28l3.85-4.38a120.64,120.64,0,0,0,24.41,22,61.46,61.46,0,0,0,35.74,10.43C196.84,69.53,197,59.92,197,59.92c-4.09,7.34-16.3,6.86-16.3,6.86-15.34-.34-29.93-9.57-29.93-9.57-14.21-8.33-24.62-22.06-26.28-24.33L153.49,0H151L116.25,39.48V0h-8Z" fill="#fff"/>
      <path d="M41.2,70.48h8.43L27.62.16H19.25l1.31,4.2L0,70.51H2L8.5,49.44H34.63ZM9,47.88,21.54,7.49,34.15,47.88Z" fill="#fff"/>
      <path d="M240.45,70.48h8.43L226.87.16h-8.36l1.31,4.2L199.25,70.51h1.95l6.55-21.07h26.13Zm-32.21-22.6L220.79,7.49,233.4,47.88Z" fill="#fff"/>
      <polygon points="99.18 0 99.18 55.67 64.62 0.1 55.23 0.1 56.94 2.85 56.94 70.56 58.8 70.56 58.8 5.84 99.18 70.57 101.04 70.57 101.04 0 99.18 0" fill="#fff"/>
      <path d="M176.05,57.42c-35.88,0-35.88-57.28,0-57.28S212,57.42,176.05,57.42Zm0-1.28c24.68,0,24.68-54.93,0-54.93S151.45,56.14,176.05,56.14Z" fill="#fff"/>
    </g>
  </g>
</svg>
