<svg xmlns="http://www.w3.org/2000/svg" height="1080" viewBox="0 0 442 1326.78">
  <title>big-logoankoa</title>
  <g>
    <g>
      <path d="M483.12,719.18c-1.33-1.94-3.33-4.62-5.3-7.71a23,23,0,0,1-3.4-8.46c-.35-2.33.14-4,1.23-4.26l2.86-.77c1.11-.33,2.36.8,3.26,2.88a16.39,16.39,0,0,1,1.09,3.81c.28,1.84.5,3.33.73,4.86.46,3.46.67,6.72.93,9.09a26.93,26.93,0,0,0,.59,3.76A31.6,31.6,0,0,0,483.12,719.18Zm23.32,16.94c-.82,4.07-1.81,7.73-2.42,10.39a33,33,0,0,0-.8,4.3,38.49,38.49,0,0,0-.84-4.27c-.62-2.68-1.67-6.33-2.51-10.39a33.43,33.43,0,0,1-.9-10.37c.31-2.66,1.27-4.31,2.52-4.3l3.19,0c1.25,0,2.24,1.63,2.57,4.29A34,34,0,0,1,506.44,736.12Zm5.75-34.5A34.72,34.72,0,0,1,509,712c-1.37,2.67-2.73,4.3-4.12,4.32h-3.67c-1.38,0-2.77-1.65-4.15-4.29a34.25,34.25,0,0,1-3.27-10.36,19.59,19.59,0,0,1,.8-10.38c1.12-2.67,3.09-4.32,5.35-4.33l5.94,0c2.29,0,4.25,1.62,5.4,4.28A19.55,19.55,0,0,1,512.19,701.62Zm4.14-34.51a22.59,22.59,0,0,1-3.75,10.4c-1.89,2.67-4.14,4.32-6.52,4.33l-6.3,0c-2.36,0-4.63-1.65-6.54-4.28a22.54,22.54,0,0,1-3.84-10.37,16.07,16.07,0,0,1,2.05-10.38,8.82,8.82,0,0,1,7.4-4.33l7.91,0a8.81,8.81,0,0,1,7.44,4.28A15.89,15.89,0,0,1,516.33,667.11Zm15.26,35.63a23,23,0,0,1-3.31,8.51c-2,3.13-3.92,5.79-5.23,7.76a30.37,30.37,0,0,0-2,3.21,29.4,29.4,0,0,0,.56-3.77c.25-2.35.42-5.63.85-9.09.21-1.53.41-3,.68-4.87a17.52,17.52,0,0,1,1.07-3.82c.86-2.1,2.12-3.21,3.21-2.92l2.87.77C531.42,698.81,531.92,700.43,531.59,702.74Zm9.5-19.5a28.6,28.6,0,0,1-4.78,8.27c-1.68,2-3.4,3.08-4.61,2.76l-3.3-.81c-1.27-.32-2-1.94-2.84-4.46a28,28,0,0,1-1.09-9.25,15.84,15.84,0,0,1,2.53-8.42c1.38-2,3.4-3.12,5.48-2.74l5.41.94c2.07.36,3.63,2.09,4.29,4.57S542.36,679.83,541.09,683.24Zm9.12-29.35a18.94,18.94,0,0,1-4.9,8.54c-2.11,2-4.39,3.09-6.57,2.73l-5.71-.95c-2.17-.35-4-2.07-5.37-4.58a18.44,18.44,0,0,1-2.12-9.17,12.59,12.59,0,0,1,3-8.48,8.36,8.36,0,0,1,7.24-2.81L543,640a8.29,8.29,0,0,1,6.37,4.53A13.65,13.65,0,0,1,550.21,653.89ZM556.52,623c-1.18,7.09-7,12.29-12.7,11.66l-7.53-.82a10.51,10.51,0,0,1-7.21-4.45,14.89,14.89,0,0,1-3.09-9.13,11.29,11.29,0,0,1,12.06-11.55l8.58.6C553.24,609.73,557.73,615.86,556.52,623Zm-7.86-48-9.4-.26c-7.15-.23-13-6-13-12.79a12.18,12.18,0,0,1,3.84-8.75,13.54,13.54,0,0,1,9.35-3.67l9.62,0a13.6,13.6,0,0,1,9.42,3.74,12,12,0,0,1,3.73,9.17A13.23,13.23,0,0,1,548.66,575Zm11.71,17.79c-.73,7.14-6.79,12.55-13.4,12.1l-8.72-.57a13.31,13.31,0,0,1-12-13.22,12.31,12.31,0,0,1,13-12l9.34.31a12.59,12.59,0,0,1,8.93,4.08A12,12,0,0,1,560.37,592.75Zm-1.92-52.57a13.37,13.37,0,0,1-9.37,3.84l-9.63.08a13.77,13.77,0,0,1-9.44-3.57,12,12,0,0,1-3.91-8.71C526,525,531.75,519.21,539,518.91l9.44-.35A13.22,13.22,0,0,1,562.17,531,12.21,12.21,0,0,1,558.45,540.18Zm14,118.44a25.7,25.7,0,0,1-3.94,8.39,85.26,85.26,0,0,1-6.21,7.29c-.79.92-1.42,1.65-1.81,2.15s-.59.82-.59.82.12-.33.29-1,.37-1.59.58-2.78c.37-2.4,1-5.58,1.44-9.09a23.63,23.63,0,0,1,2.28-8.55c1.12-2,2.48-3,3.65-2.66l3.11,1C572.5,654.59,573,656.27,572.47,658.62Zm-12-242.92.76-.33c.26-.1,1.22,1,2.86,2.91a59,59,0,0,1,5.78,7.63,23.42,23.42,0,0,1,3.21,8.63c.22,2.43-.47,4.13-1.88,4.54l-3.63,1.07c-1.38.41-2.95-.61-4.13-2.6a21.43,21.43,0,0,1-2.26-8.59c-.36-3.54-.67-6.78-.78-9.2S560.16,415.84,560.44,415.7ZM557.18,510a12.86,12.86,0,0,1-9,4.16l-9.4.41a12.36,12.36,0,0,1-13.19-11.83,13.22,13.22,0,0,1,12-13.34l8.85-.67c6.7-.54,12.9,4.8,13.69,12A11.67,11.67,0,0,1,557.18,510Zm-1.08-39.52a12.25,12.25,0,0,1-2,9.37,11.08,11.08,0,0,1-8,4.45l-8.72.71a11.54,11.54,0,0,1-12.44-11.42,14.52,14.52,0,0,1,3-9.15,11.1,11.1,0,0,1,7.44-4.55l7.75-.93a10.53,10.53,0,0,1,8.2,2.85A15.11,15.11,0,0,1,556.1,470.43Zm-6.48-30.88a13.29,13.29,0,0,1-.78,9.35,8.53,8.53,0,0,1-6.54,4.62l-7.5,1a9,9,0,0,1-7.56-2.71,12.41,12.41,0,0,1-3.32-8.42,17.83,17.83,0,0,1,2.31-9.26c1.41-2.5,3.28-4.24,5.6-4.63l6-1C542.43,427.62,547.86,432.58,549.62,439.55Zm-8.82-29.28a15.7,15.7,0,0,1,.68,9.16,6,6,0,0,1-4.57,4.64l-5.75,1a6.13,6.13,0,0,1-5.91-2.65,14.61,14.61,0,0,1-2.59-8.46,29.8,29.8,0,0,1,1.11-9.25c.79-2.48,1.87-4.2,3.31-4.53l3.76-.89c1.44-.33,3.16.74,5,2.69A23,23,0,0,1,540.8,410.27Zm-20.29-35.14c0-2.4,0-3.87.23-4l.7-.22c.25-.08,1.06,1.15,2.42,3.14s3.17,4.77,4.92,8a20.76,20.76,0,0,1,2.75,8.65c.09,2.37-.63,4-1.92,4.34l-3.36.83c-1.29.31-2.69-.79-3.64-2.89s-1.4-5.21-1.82-8.69S520.48,377.53,520.51,375.13ZM497,353.42c.79-4.05,1.8-7.74,2.57-10.39s1.18-4.32,1.48-4.3h.78c.3,0,.75,1.64,1.53,4.29s1.82,6.31,2.64,10.37a30.77,30.77,0,0,1,.54,10.38c-.49,2.66-1.65,4.3-3.09,4.32l-3.75,0c-1.44,0-2.62-1.64-3.13-4.31A30.56,30.56,0,0,1,497,353.42Zm-5.37,34.5a31.68,31.68,0,0,1,3.27-10.4c1.47-2.64,3-4.32,4.6-4.3l4.19,0c1.58,0,3.16,1.64,4.63,4.29a31.4,31.4,0,0,1,3.37,10.35,18.83,18.83,0,0,1-1.06,10.39c-1.23,2.66-3.34,4.31-5.76,4.33l-6.31,0c-2.42,0-4.55-1.62-5.78-4.27S491.06,392,491.61,387.92Zm-3.88,34.5A21.43,21.43,0,0,1,491.56,412c1.95-2.67,4.32-4.32,6.85-4.33l6.64,0c2.53,0,4.89,1.62,6.88,4.26a21.57,21.57,0,0,1,3.91,10.37,15.68,15.68,0,0,1-2.22,10.4,9.36,9.36,0,0,1-7.69,4.32l-8.16,0A9.35,9.35,0,0,1,490,432.8,15.88,15.88,0,0,1,487.73,422.42Zm-13.28-40.11c1.72-3.22,3.52-6,4.85-8s2.12-3.24,2.38-3.16l.7.22c.26.08.25,1.57.29,4s.06,5.68-.21,9.17-.76,6.61-1.74,8.71-2.33,3.22-3.62,2.9l-3.38-.78c-1.28-.3-2-2-2-4.31A20.71,20.71,0,0,1,474.45,382.31Z" fill="#e0e1e2"/>
      <path d="M546.63,609.28l-8.58-.6A11.29,11.29,0,0,0,526,620.23a14.89,14.89,0,0,0,3.09,9.13,10.51,10.51,0,0,0,7.21,4.45l7.53.82c5.73.63,11.52-4.57,12.7-11.66S553.24,609.73,546.63,609.28Z" fill="#e0e1e2"/>
      <path d="M583,595.21l-7.32-.74a8.83,8.83,0,0,0-7.38,2.9,12.47,12.47,0,0,0-3.11,8.45,17.91,17.91,0,0,0,2.09,9.15c1.4,2.51,3.31,4.27,5.59,4.67l6,1c2.27.4,4.64-.66,6.79-2.71a17.94,17.94,0,0,0,4.89-8.72,14,14,0,0,0-1-9.51A8.4,8.4,0,0,0,583,595.21Z" fill="#e0e1e2"/>
      <path d="M546.43,488.68l-8.85.67a13.22,13.22,0,0,0-12,13.34,12.36,12.36,0,0,0,13.19,11.83l9.4-.41a12.86,12.86,0,0,0,9-4.16,11.67,11.67,0,0,0,2.94-9.31C559.33,493.48,553.13,488.14,546.43,488.68Z" fill="#e0e1e2"/>
      <path d="M558.52,553.21a13.6,13.6,0,0,0-9.42-3.74l-9.62,0a13.54,13.54,0,0,0-9.35,3.67,12.18,12.18,0,0,0-3.84,8.75c0,6.83,5.82,12.56,13,12.79l9.4.26a13.23,13.23,0,0,0,13.59-12.58A12,12,0,0,0,558.52,553.21Z" fill="#e0e1e2"/>
      <path d="M548.4,518.56l-9.44.35c-7.21.3-13,6.07-12.86,12.91a12,12,0,0,0,3.91,8.71,13.77,13.77,0,0,0,9.44,3.57l9.63-.08a13.37,13.37,0,0,0,9.37-3.84,12.21,12.21,0,0,0,3.72-9.19A13.22,13.22,0,0,0,548.4,518.56Z" fill="#e0e1e2"/>
      <path d="M548.53,579.4l-9.34-.31a12.31,12.31,0,0,0-13,12,13.31,13.31,0,0,0,12,13.22l8.72.57c6.61.45,12.67-5,13.4-12.1a12,12,0,0,0-2.91-9.27A12.59,12.59,0,0,0,548.53,579.4Z" fill="#e0e1e2"/>
      <path d="M578,625.09,572.26,624a6.26,6.26,0,0,0-5.9,2.59,14.69,14.69,0,0,0-2.8,8.37,32.79,32.79,0,0,0,.87,9.24c.69,2.52,1.64,4.26,3,4.67l3.55,1c1.34.41,3.07-.6,5-2.53a22.92,22.92,0,0,0,5.33-8.26,16.24,16.24,0,0,0,1-9.31A5.78,5.78,0,0,0,578,625.09Z" fill="#e0e1e2"/>
      <path d="M581.56,454.09a24.56,24.56,0,0,0-5.32-8.24c-2-2-3.8-2.93-5.34-2.52l-4,1.13c-1.54.42-2.7,2.21-3.54,4.77a23.59,23.59,0,0,0-1,9.28c.41,3.4,1.32,6.37,3,8.33a6.5,6.5,0,0,0,6.2,2.54l6-1.13C582.13,467.41,584.45,461,581.56,454.09Z" fill="#e0e1e2"/>
      <path d="M585.42,564l-8.18-.27a10.55,10.55,0,0,0-8,3.38,13.22,13.22,0,0,0-3.37,8.61c-.12,6.79,4.54,12.77,10.24,13.31l7.53.69c5.69.55,11.19-4.89,12.11-12.19a12.88,12.88,0,0,0-2.49-9.44A10.31,10.31,0,0,0,585.42,564Z" fill="#e0e1e2"/>
      <path d="M590.45,484a16.79,16.79,0,0,0-4.81-8.67c-2.25-2-4.75-3-7.15-2.64l-6.28,1.12c-2.39.41-4.37,2.21-5.77,4.71a18,18,0,0,0-2.23,9.21c.25,6.81,5.34,11.8,11,11.21l7.51-.82a8.58,8.58,0,0,0,6.67-4.58A13.67,13.67,0,0,0,590.45,484Z" fill="#e0e1e2"/>
      <path d="M575.64,504.3c-5.83.59-10.42,6.6-10.15,13.37,0,6.82,5.3,12.14,11.6,11.92l8.26-.33c6.31-.21,11-6.32,10.38-13.62a15.06,15.06,0,0,0-4.36-9,10.19,10.19,0,0,0-8-3.09Z" fill="#e0e1e2"/>
      <path d="M585.58,533.76l-8.3.25a11.28,11.28,0,0,0-8,3.9,12.93,12.93,0,0,0-3.34,8.82,13.33,13.33,0,0,0,3.46,8.76,11,11,0,0,0,8,3.84l8.24.19a10.81,10.81,0,0,0,8.25-3.63,13.63,13.63,0,0,0,3.42-9.3C597.24,539.29,592,533.53,585.58,533.76Z" fill="#e0e1e2"/>
      <path d="M537.89,669.53l-5.41-.94c-2.08-.38-4.1.71-5.48,2.74a15.84,15.84,0,0,0-2.53,8.42,28,28,0,0,0,1.09,9.25c.81,2.52,1.57,4.14,2.84,4.46l3.3.81c1.21.32,2.93-.74,4.61-2.76a28.6,28.6,0,0,0,4.78-8.27c1.27-3.41,1.71-6.65,1.09-9.14S540,669.89,537.89,669.53Z" fill="#e0e1e2"/>
      <path d="M506.74,652.48l-7.91,0a8.82,8.82,0,0,0-7.4,4.33,16.07,16.07,0,0,0-2.05,10.38,22.54,22.54,0,0,0,3.84,10.37c1.91,2.63,4.18,4.28,6.54,4.28l6.3,0c2.38,0,4.63-1.66,6.52-4.33a22.59,22.59,0,0,0,3.75-10.4,15.89,15.89,0,0,0-2.15-10.35A8.81,8.81,0,0,0,506.74,652.48Z" fill="#e0e1e2"/>
      <path d="M505.9,687,500,687c-2.26,0-4.23,1.66-5.35,4.33a19.59,19.59,0,0,0-.8,10.38,34.25,34.25,0,0,0,3.27,10.36c1.38,2.64,2.77,4.29,4.15,4.29h3.67c1.39,0,2.75-1.65,4.12-4.32a34.72,34.72,0,0,0,3.17-10.4,19.55,19.55,0,0,0-.89-10.37C510.15,688.59,508.19,687,505.9,687Z" fill="#e0e1e2"/>
      <path d="M543,640l-7.27-.85a8.36,8.36,0,0,0-7.24,2.81,12.59,12.59,0,0,0-3,8.48,18.44,18.44,0,0,0,2.12,9.17c1.35,2.51,3.2,4.23,5.37,4.58l5.71.95c2.18.36,4.46-.7,6.57-2.73a18.94,18.94,0,0,0,4.9-8.54,13.65,13.65,0,0,0-.81-9.34A8.29,8.29,0,0,0,543,640Z" fill="#e0e1e2"/>
      <path d="M535.33,459.84a11.1,11.1,0,0,0-7.44,4.55,14.52,14.52,0,0,0-3,9.15A11.54,11.54,0,0,0,537.35,485l8.72-.71a11.08,11.08,0,0,0,8-4.45,12.25,12.25,0,0,0,2-9.37,15.11,15.11,0,0,0-4.82-8.67,10.53,10.53,0,0,0-8.2-2.85Z" fill="#e0e1e2"/>
      <path d="M497.77,437.06l8.16,0a9.36,9.36,0,0,0,7.69-4.32,15.68,15.68,0,0,0,2.22-10.4,21.57,21.57,0,0,0-3.91-10.37c-2-2.64-4.35-4.28-6.88-4.26l-6.64,0c-2.53,0-4.9,1.66-6.85,4.33a21.43,21.43,0,0,0-3.83,10.39A15.88,15.88,0,0,0,490,432.8,9.35,9.35,0,0,0,497.77,437.06Z" fill="#e0e1e2"/>
      <path d="M498.54,402.57l6.31,0c2.42,0,4.53-1.67,5.76-4.33a18.83,18.83,0,0,0,1.06-10.39,31.4,31.4,0,0,0-3.37-10.35c-1.47-2.65-3.05-4.31-4.63-4.29l-4.19,0c-1.59,0-3.13,1.66-4.6,4.3a31.68,31.68,0,0,0-3.27,10.4c-.55,4.06-.15,7.73,1.15,10.38S496.12,402.58,498.54,402.57Z" fill="#e0e1e2"/>
      <path d="M537.88,428.41l-6,1c-2.32.39-4.19,2.13-5.6,4.63a17.83,17.83,0,0,0-2.31,9.26,12.41,12.41,0,0,0,3.32,8.42,9,9,0,0,0,7.56,2.71l7.5-1a8.53,8.53,0,0,0,6.54-4.62,13.29,13.29,0,0,0,.78-9.35C547.86,432.58,542.43,427.62,537.88,428.41Z" fill="#e0e1e2"/>
      <path d="M527.08,400.2c-1.44.33-2.52,2.05-3.31,4.53a29.8,29.8,0,0,0-1.11,9.25,14.61,14.61,0,0,0,2.59,8.46,6.13,6.13,0,0,0,5.91,2.65l5.75-1a6,6,0,0,0,4.57-4.64,15.7,15.7,0,0,0-.68-9.16,23,23,0,0,0-4.92-8.27c-1.88-1.95-3.6-3-5-2.69Z" fill="#e0e1e2"/>
      <path d="M442.32,0C198.42,0,0,198.42,0,442.32V884.46c0,243.9,198.42,442.32,442.32,442.32s442.31-198.42,442.31-442.32V442.32C884.63,198.42,686.21,0,442.32,0ZM21.25,884.46V615.41H58.66V886.78a375.58,375.58,0,0,0,69.57,218.6l-29.95,21.06A418.37,418.37,0,0,1,21.25,884.46ZM168.9,1076.77l-34.25,24.09A367.78,367.78,0,0,1,66.51,886.78V615.41h37.65v263.2C104.16,952.67,128.37,1021,168.9,1076.77ZM434.38,380.65l-41.64,41.57V339.93A189.46,189.46,0,0,1,434.38,380.65Zm-41.64-65.14V259a394.45,394.45,0,0,0,46.65,3A396.35,396.35,0,0,0,492,258.39v55.05c-18.62,11-35.65,25.64-50.75,43.51C426.9,340.37,410.7,326.24,392.74,315.51ZM446,397.43a248.81,248.81,0,0,1,19.49,38.86l-72.77,72.86V450.63Zm26.9,59.87a289.67,289.67,0,0,1,10.62,48l-90.8,90.81V537.57Zm12.68,74.38c.17,3.93.68,7.78.7,11.75A301.08,301.08,0,0,1,481.85,594L392.74,683.1V624.54Zm-12.29,99.25C458.07,681,429.88,723,392.74,749V711.5ZM491,642.05c2.21,2.41,4.77,4.22,7.7,4.19l8.18,0c6.18,0,11.8-6.63,12.43-14.74s-4.82-14.66-12-14.64l-9.19.06c.4-1.72.83-3.42,1.2-5.15l8,0c7.16,0,13.35-6.63,13.7-14.73s-5.77-14.67-13.51-14.63h-3.47c.2-1.69.38-3.4.55-5.11l2.94,0c7.74,0,14.2-6.65,14.3-14.75a14.31,14.31,0,0,0-14.31-14.61h-1.22c0-1.53.16-3,.15-4.56,0-.57-.06-1.14-.07-1.72h1.12a14.39,14.39,0,0,0,14.24-14.74c-.14-8.08-6.66-14.65-14.46-14.61h-2.66c-.18-1.71-.4-3.42-.61-5.12l3.21,0a13.78,13.78,0,0,0,13.56-14.74c-.39-8.09-6.7-14.64-14-14.6l-7.64,0c-.36-1.7-.63-3.44-1-5.12l8.58,0c7.27,0,12.77-6.63,12.14-14.74a17.66,17.66,0,0,0-4.26-10.36,11.39,11.39,0,0,0-8.53-4.26l-8.44,0a10.8,10.8,0,0,0-7,3.17c-9-26.91-21.36-51.72-36.82-73.2,14.13-17.43,30.1-31.61,47.61-42C565,368.32,606.2,451.19,606.61,542.93s-40.13,175-103.36,212.57c-17.54-10.24-33.57-24.23-47.81-41.46C470.38,692.85,482.31,668.44,491,642.05ZM439.39,240.73c-67.76,0-131.12-18.27-186.29-49.43C306,151.74,371.35,128,442.32,128c69.84,0,134.26,23,186.7,61.42C573.09,221.76,508.52,240.73,439.39,240.73Zm-68.07,15.12v58.37c-69.55,41.08-114.17,131.24-113.73,230.2.43,99.44,46.23,189.66,116.64,229.82.27.17,6.08,3.62,8.83,3.62a2,2,0,0,0,.66-.09,46.15,46.15,0,0,0,8-3.56c19.11-11.13,36.14-26.2,51.11-43.89,15.44,18,32.77,32.65,51.68,43.43.06,0,6.06,3.61,8.85,3.61a2.08,2.08,0,0,0,.64-.08,46.38,46.38,0,0,0,8-3.56c70.11-40.8,115.14-131.44,114.71-230.89C626.34,445,581.84,356.3,513.31,315.21V254.83a401.87,401.87,0,0,0,133.82-51.32c68.46,58.19,112.09,144.75,112.09,241.42V878.61a317.46,317.46,0,0,1-4.13,48.67c-81.83-75.07-190.4-121.43-309.94-121.43-121.92,0-232.57,48.07-314.93,125.81a315.6,315.6,0,0,1-4.81-53V444.93c0-95.59,42.72-181.24,109.86-239.39A402,402,0,0,0,371.32,255.85ZM282.54,594.28a302.32,302.32,0,0,1-4.8-49.94c0-4.31.49-8.48.65-12.75l92.93,92.93v58.54Zm88.78,117.2v36.34c-36.52-25.76-64.43-67-79.85-116.19Zm-91-206.37a290,290,0,0,1,10.38-48.23l80.6,80.66v58.55Zm17.75-69.28a247.52,247.52,0,0,1,19.32-39l53.91,53.77v58.52Zm31-55.77a187.72,187.72,0,0,1,42.25-41.3V422.2Zm115.66,756.7c-38.63,0-73.1,17.35-96.65,44.44a314,314,0,0,1-32.45-12.3c29.47-39.36,76.2-65.07,129-65.07,52.09,0,98.26,25,127.79,63.4a311.18,311.18,0,0,1-32.23,12.62C516.7,1153.53,482.73,1136.76,444.73,1136.76Zm71.94,49.58a307,307,0,0,1-144.86,1,105.39,105.39,0,0,1,144.86-1Zm-72-103.76c-61.26,0-115.21,30.59-148.35,77a316.47,316.47,0,0,1-27.9-16.35c38.94-56.13,103.4-93.26,176.73-93.26,72.24,0,135.89,36,175,90.75a317.29,317.29,0,0,1-28.32,17.16C558.59,1112.42,505.19,1082.58,444.67,1082.58Zm.48-53.85c-80.41,0-151.14,40.62-193.95,102.07A317.74,317.74,0,0,1,225,1108.67c49.16-68.78,129.31-114,220.12-114,89.43,0,168.52,43.84,217.87,110.87A315.27,315.27,0,0,1,637.17,1128C594.17,1068.11,524.34,1028.73,445.15,1028.73Zm0-55.3c-96.59,0-182,47.45-235.2,119.94a319.58,319.58,0,0,1-22.42-27.11C247.3,989.14,340.25,939,445.15,939c103.22,0,194.81,48.63,254.68,123.66A318.88,318.88,0,0,1,677.72,1090C624.36,1019.48,540.23,973.43,445.15,973.43Zm0-55.72c-109.31,0-206.42,51.16-270.21,130.28a313.16,313.16,0,0,1-17.56-31.58c70-80.7,172.85-132.1,287.77-132.1,113,0,214.18,49.77,284,128.09a318.93,318.93,0,0,1-17.07,31.6C648.28,967.18,552.62,917.71,445.15,917.71ZM148,995.46a314.84,314.84,0,0,1-12.51-38.93C214.9,876.94,324.11,827.1,445.15,827.1,563.89,827.1,671.29,875,750.3,952a314,314,0,0,1-12.11,39.2c-73.47-78.46-177.33-128.11-293-128.11C327.31,863.07,221.66,914.46,148,995.46ZM780.47,878.61V615.41H817.2V886.78a367.79,367.79,0,0,1-67.3,212.8L716.33,1076A336,336,0,0,0,780.47,878.61ZM442.32,1305.53h0c-134.46,0-254.1-63.58-331.24-162l70.65-49.68c62.08,75,155.84,122.9,260.59,122.9,105.11,0,199.15-48.22,261.21-123.68l70.63,49.65C697,1241.59,577.13,1305.53,442.32,1305.53ZM863.38,884.46A418.4,418.4,0,0,1,787,1125.63l-30.63-21.54a375.54,375.54,0,0,0,68.73-217.31V615.41h38.33Zm0-290.4H780.47V444.93c0-186.47-151.69-338.16-338.15-338.16S104.16,258.46,104.16,444.93V594.06H21.25V442.32c0-232.17,188.89-421.07,421.07-421.07s421.06,188.9,421.06,421.07Z" fill="#e0e1e2"/>
      <g>
        <path d="M187.72,1163.45a18.06,18.06,0,0,1-5.48,3.55,14.91,14.91,0,0,1-6,1.17,14.53,14.53,0,0,1-6-1.46,19.31,19.31,0,0,1-5.57-4.26,19,19,0,0,1-3.85-5.88,14,14,0,0,1-1-6,15.39,15.39,0,0,1,1.58-5.88,19.22,19.22,0,0,1,9.43-8.77,15.42,15.42,0,0,1,6-1.15,14.85,14.85,0,0,1,6,1.4,19.41,19.41,0,0,1,9.43,10.14,15.28,15.28,0,0,1,1,6.1,15,15,0,0,1-1.58,5.88A18.52,18.52,0,0,1,187.72,1163.45Zm-3.4-3.64c2.82-2.64,4.43-5.39,4.82-8.3s-.75-5.79-3.39-8.62-5.43-4.18-8.36-4-5.8,1.58-8.62,4.2-4.41,5.38-4.81,8.29.74,5.79,3.39,8.63,5.44,4.17,8.37,4S181.51,1162.43,184.32,1159.81Z" fill="#e0e1e2"/>
        <path d="M198.87,1161.94a8,8,0,0,1,2.51-1.86,7.5,7.5,0,0,1,2.91-.74,7.58,7.58,0,0,1,3,.43,7.45,7.45,0,0,1,2.64,1.55,7.82,7.82,0,0,1,2.57,5.36,8,8,0,0,1-.43,3,8,8,0,0,1-1.6,2.68,7.56,7.56,0,0,1-2.49,1.87,7.69,7.69,0,0,1-5.88.33,7.9,7.9,0,0,1-2.64-1.58,7,7,0,0,1-1.83-2.46,7.85,7.85,0,0,1-.73-2.91,7.45,7.45,0,0,1,.42-2.94A7.8,7.8,0,0,1,198.87,1161.94Zm2.27,2a5.15,5.15,0,0,0-1,1.57,4.87,4.87,0,0,0-.33,1.82,5.52,5.52,0,0,0,.37,1.82,4.55,4.55,0,0,0,1.17,1.62,4.38,4.38,0,0,0,1.73,1,5.18,5.18,0,0,0,1.83.17,4.35,4.35,0,0,0,1.79-.53,4.9,4.9,0,0,0,1.46-1.13,5.17,5.17,0,0,0,1-1.57,4.3,4.3,0,0,0,.34-1.82,5.09,5.09,0,0,0-.38-1.8,4.21,4.21,0,0,0-1.15-1.62,4.08,4.08,0,0,0-1.73-1,5,5,0,0,0-1.85-.2,4.31,4.31,0,0,0-1.77.53A5.37,5.37,0,0,0,201.14,1164Z" fill="#e0e1e2"/>
        <path d="M215.7,1206.77a1.41,1.41,0,0,0,1.16.37,1.71,1.71,0,0,0,.88-.66l2.47-3.31-14.05-10.51a1.21,1.21,0,0,0-2.09.27l-.58-.45,3.19-4.28,24.89-5.81a4.87,4.87,0,0,0,.58-.09.78.78,0,0,0,.48-.31.47.47,0,0,0,0-.49,1.44,1.44,0,0,0-.42-.51l.39-.53,8.18,6.12-.45.58a1.4,1.4,0,0,0-1.15-.38,1.7,1.7,0,0,0-.88.67L226.7,1203l2.23,1.66a1.2,1.2,0,0,0,2.08-.26l.59.44-4.15,5.55-.57-.45a1.64,1.64,0,0,0,.42-1.06c0-.31-.28-.65-.77-1l-2.24-1.69-2.47,3.31a1.65,1.65,0,0,0-.39,1,1.37,1.37,0,0,0,.69,1l-.44.6-6.41-4.82ZM233,1186.05l-22.36,5,12,8.94Z" fill="#e0e1e2"/>
        <path d="M244.55,1226a1.33,1.33,0,0,0,1.18.25,1.76,1.76,0,0,0,.8-.76l11.57-19.7c-.25-.13-.53-.29-.87-.44a4.72,4.72,0,0,0-1-.29,1.93,1.93,0,0,0-.93.09,1.37,1.37,0,0,0-.73.62l-.63-.35,3.14-5.35.63.38c-.39.66-.36,1.13.09,1.4a4.28,4.28,0,0,0,1.76.46,1.48,1.48,0,0,0,1.55-.58c.38-.66.17-1.24-.62-1.7l.36-.62,6.18,3.61-.37.64a1.12,1.12,0,0,0-1-.19,2.06,2.06,0,0,0-.81.88l-13.93,23.71a1.61,1.61,0,0,0-.27,1.07c0,.33.3.64.8.93l-.38.62-6.91-4.06Z" fill="#e0e1e2"/>
        <path d="M282.7,1210.89c-1.37-.68-1.67-1.84-.9-3.5a21.7,21.7,0,0,1,2.51-3.51l3.32-4.14c.95-1.27,2-1.62,3.06-1.09a2.14,2.14,0,0,1,1.2,1.49,2.82,2.82,0,0,1-.25,2q-1,2.26-5.43,7.37C285,1211,283.77,1211.43,282.7,1210.89Z" fill="#e0e1e2"/>
        <path d="M313.94,1242.75a18.41,18.41,0,0,1-3.53,5.5,15,15,0,0,1-5,3.5,13.65,13.65,0,0,1-6,1.13,18.6,18.6,0,0,1-6.84-1.57,18.81,18.81,0,0,1-5.93-3.77,14,14,0,0,1-3.43-5.08,15.25,15.25,0,0,1-1-6,18.05,18.05,0,0,1,1.46-6.37,17.81,17.81,0,0,1,3.51-5.5,14.59,14.59,0,0,1,11-4.72A19.23,19.23,0,0,1,311,1225.2a14.66,14.66,0,0,1,4.37,11.18A18,18,0,0,1,313.94,1242.75Zm-4.59-1.93c1.47-3.55,1.79-6.72.95-9.54s-3.05-5-6.63-6.46-6.68-1.57-9.27-.2-4.63,3.84-6.11,7.39-1.81,6.72-1,9.54,3.05,4.94,6.65,6.45,6.66,1.58,9.26.2S307.86,1244.36,309.35,1240.82Z" fill="#e0e1e2"/>
        <path d="M350.36,1254.21a17.72,17.72,0,0,1-3,5.81,14.91,14.91,0,0,1-4.59,4,14.3,14.3,0,0,1-5.9,1.71,19,19,0,0,1-7-.91,18.82,18.82,0,0,1-6.26-3.18,14,14,0,0,1-3.92-4.72,15,15,0,0,1-1.55-5.88,19,19,0,0,1,3.78-12.29,15,15,0,0,1,4.6-4,15.35,15.35,0,0,1,5.92-1.8,17.56,17.56,0,0,1,7,.82,17.82,17.82,0,0,1,6.24,3.24,15.41,15.41,0,0,1,3.89,4.82,15.16,15.16,0,0,1,1.55,5.87A18,18,0,0,1,350.36,1254.21Zm-4.76-1.46q1.69-5.52,0-9.58t-7.25-5.79c-3.71-1.16-6.79-.91-9.23.71s-4.24,4.26-5.37,7.94-1.14,6.87,0,9.58,3.52,4.64,7.24,5.79,6.8.91,9.24-.71S344.47,1256.41,345.6,1252.75Z" fill="#e0e1e2"/>
        <path d="M360.55,1239.53c-1.48-.33-2-1.4-1.68-3.19a22.88,22.88,0,0,1,1.63-4l2.28-4.79c.62-1.46,1.53-2.06,2.73-1.77A2.15,2.15,0,0,1,367,1227a2.86,2.86,0,0,1,.21,2,40.48,40.48,0,0,1-3.58,8.41C362.76,1239.09,361.73,1239.82,360.55,1239.53Zm9.82,2.31c-1.49-.36-2-1.42-1.69-3.2a22.76,22.76,0,0,1,1.63-4l2.29-4.79c.62-1.47,1.53-2,2.73-1.78a2.2,2.2,0,0,1,1.49,1.18,2.78,2.78,0,0,1,.23,2,40.72,40.72,0,0,1-3.59,8.43C372.58,1241.39,371.55,1242.1,370.37,1241.84Z" fill="#e0e1e2"/>
        <path d="M380.17,1267.3a2.06,2.06,0,0,0-.29.73,2.45,2.45,0,0,0,.76,1.91,11,11,0,0,0,2.48,2.11,21.41,21.41,0,0,0,3.68,1.86,19.6,19.6,0,0,0,4.29,1.18c3.79.62,6.63.51,8.5-.34a5,5,0,0,0,3.26-3.88,3.56,3.56,0,0,0-.28-2.22,4.2,4.2,0,0,0-1.53-1.55,10.34,10.34,0,0,0-2.48-1.06,27.6,27.6,0,0,0-3.11-.69c-1.85-.29-3.79-.62-5.85-1a21.07,21.07,0,0,1-5.53-1.71,9.61,9.61,0,0,1-3.85-3.17,7.21,7.21,0,0,1-.83-5.43,6.81,6.81,0,0,1,1.84-3.73,10.67,10.67,0,0,1,3.76-2.5,18.75,18.75,0,0,1,5.2-1.18,24.64,24.64,0,0,1,6.23.29,23.4,23.4,0,0,1,4.4,1.08,29.68,29.68,0,0,1,3.14,1.31,23.38,23.38,0,0,1,2.16,1.16,4.34,4.34,0,0,0,1.44.6,1.6,1.6,0,0,0,1-.09,6.65,6.65,0,0,0,.68-.45l.68.42-4.43,6.35-.59-.51a2.93,2.93,0,0,0,.19-.78c.05-.29-.14-.66-.55-1.13a8.72,8.72,0,0,0-1.84-1.51,18.28,18.28,0,0,0-3-1.46,18.83,18.83,0,0,0-3.92-1,16.13,16.13,0,0,0-7.95.31c-2.07.71-3.24,1.93-3.51,3.59a2.6,2.6,0,0,0,.33,1.93,4.33,4.33,0,0,0,1.56,1.38,11.58,11.58,0,0,0,2.49.93c1,.24,2,.44,3.13.62q2.81.46,5.86,1a20.68,20.68,0,0,1,5.48,1.86A9.94,9.94,0,0,1,407,1266a8,8,0,0,1,.79,5.72,7.74,7.74,0,0,1-1.6,3.53,9.83,9.83,0,0,1-3.47,2.66,16.08,16.08,0,0,1-5.25,1.35,30.07,30.07,0,0,1-12.39-1.75,23,23,0,0,1-3.84-1.84c-1.05-.64-1.89-1.22-2.55-1.71a3.78,3.78,0,0,0-1.65-.86,1.85,1.85,0,0,0-1.37.5l-.54-.44,4.35-6.36Z" fill="#e0e1e2"/>
        <path d="M443.46,1267.5a6.75,6.75,0,0,1-3.73-2.06,6.37,6.37,0,0,1-1.53-3.93,7.14,7.14,0,0,1,.78-3.9,9.26,9.26,0,0,1,2.66-3,15,15,0,0,1,4.19-2,23.13,23.13,0,0,1,5.35-1,22.86,22.86,0,0,1,5.43.26,14,14,0,0,1,4.41,1.47,8.71,8.71,0,0,1,3,2.64,7.09,7.09,0,0,1,1.28,3.77,6.25,6.25,0,0,1-1,4.08,6.82,6.82,0,0,1-3.42,2.55v0a8.13,8.13,0,0,1,4.43,2.49,7.51,7.51,0,0,1,2,4.7,8.25,8.25,0,0,1-.81,4.32,9.19,9.19,0,0,1-2.84,3.2,14.29,14.29,0,0,1-4.53,2,33.5,33.5,0,0,1-11.81.77,13.64,13.64,0,0,1-4.75-1.4,9,9,0,0,1-3.22-2.79,8.15,8.15,0,0,1-1.37-4.17,7.45,7.45,0,0,1,1.38-4.92,7.78,7.78,0,0,1,4.07-3Zm8.85,1.31a19,19,0,0,0-3.79.64,12,12,0,0,0-3.14,1.33,6.57,6.57,0,0,0-2.09,2,4.11,4.11,0,0,0-.66,2.56,3.91,3.91,0,0,0,1,2.41,6.19,6.19,0,0,0,2.33,1.69,12.88,12.88,0,0,0,3.28.91,18.15,18.15,0,0,0,3.85.13,17.46,17.46,0,0,0,3.78-.64,12,12,0,0,0,3.14-1.33,6.5,6.5,0,0,0,2.1-2,4.22,4.22,0,0,0-.32-5,7,7,0,0,0-2.33-1.69,13.79,13.79,0,0,0-3.3-.91A17.91,17.91,0,0,0,452.31,1268.81Zm-.25-3.75a19.44,19.44,0,0,0,3.34-.51,10.59,10.59,0,0,0,2.8-1,5.64,5.64,0,0,0,1.9-1.62,3.34,3.34,0,0,0,.61-2.28,3.41,3.41,0,0,0-.91-2.2,5.52,5.52,0,0,0-2.09-1.35,10.81,10.81,0,0,0-2.91-.67,18.85,18.85,0,0,0-3.37,0,17.28,17.28,0,0,0-3.31.49,11.19,11.19,0,0,0-2.83,1,5.62,5.62,0,0,0-1.9,1.62,3.46,3.46,0,0,0-.61,2.3,3.36,3.36,0,0,0,.9,2.18,5.37,5.37,0,0,0,2.1,1.35,11.18,11.18,0,0,0,2.93.66A19.67,19.67,0,0,0,452.06,1265.06Z" fill="#e0e1e2"/>
        <path d="M506,1260.85a18,18,0,0,1-.07,6.52,14.9,14.9,0,0,1-2.34,5.61,14.15,14.15,0,0,1-4.51,4.17,18.81,18.81,0,0,1-6.63,2.28,19,19,0,0,1-7,0,14.11,14.11,0,0,1-5.6-2.48,15.25,15.25,0,0,1-4-4.57,19.16,19.16,0,0,1-2.1-12.71,15.27,15.27,0,0,1,2.34-5.62,14.9,14.9,0,0,1,4.51-4.23,17.49,17.49,0,0,1,6.62-2.4,17.78,17.78,0,0,1,7,.13,14.81,14.81,0,0,1,9.63,7.17A18,18,0,0,1,506,1260.85Zm-4.91.79c-.64-3.79-2-6.65-4.25-8.58s-5.22-2.59-9.06-2-6.49,2.19-7.95,4.75-1.9,5.7-1.27,9.49,2,6.65,4.24,8.61,5.22,2.57,9.06,2,6.49-2.22,7.95-4.77S501.73,1265.44,501.11,1261.64Z" fill="#e0e1e2"/>
        <path d="M511.19,1250.8a7.77,7.77,0,0,1,8.8-9.52,7.63,7.63,0,0,1,2.81,1,7.89,7.89,0,0,1,2.21,2,7.75,7.75,0,0,1,1.29,2.84,7.91,7.91,0,0,1,.13,3.13,7.6,7.6,0,0,1-1.06,2.8,7.3,7.3,0,0,1-2,2.19,7.61,7.61,0,0,1-2.78,1.29,7.81,7.81,0,0,1-5.87-.93,7.9,7.9,0,0,1-2.2-2A7.69,7.69,0,0,1,511.19,1250.8Zm2.95-.69a5.48,5.48,0,0,0,.74,1.69,4.84,4.84,0,0,0,1.32,1.31,5,5,0,0,0,1.7.7,4.15,4.15,0,0,0,2,0,4.57,4.57,0,0,0,1.8-.86,5.73,5.73,0,0,0,1.19-1.42,4.42,4.42,0,0,0,.58-1.75,5.82,5.82,0,0,0-.09-1.87,5.17,5.17,0,0,0-.76-1.68,4.31,4.31,0,0,0-1.31-1.31,4.86,4.86,0,0,0-1.69-.71,4.19,4.19,0,0,0-2,0,4.58,4.58,0,0,0-1.8.87,6,6,0,0,0-1.2,1.41,4.56,4.56,0,0,0-.57,1.76A5,5,0,0,0,514.14,1250.11Z" fill="#e0e1e2"/>
        <path d="M566,1244.21a18.14,18.14,0,0,1,.86,6.48,15.06,15.06,0,0,1-1.54,5.87,13.76,13.76,0,0,1-3.89,4.75,18.68,18.68,0,0,1-6.24,3.22,19.49,19.49,0,0,1-7,.93,14.18,14.18,0,0,1-5.9-1.69,14.74,14.74,0,0,1-4.61-4,17.88,17.88,0,0,1-3-5.79,18.36,18.36,0,0,1-.85-6.47,15,15,0,0,1,1.53-5.9,15.24,15.24,0,0,1,3.86-4.84,17.69,17.69,0,0,1,6.22-3.28,17.2,17.2,0,0,1,7-.84A14.62,14.62,0,0,1,563,1238.4,18.17,18.17,0,0,1,566,1244.21Zm-4.75,1.49q-1.72-5.49-5.41-7.92t-9.24-.67c-3.71,1.16-6.11,3.11-7.21,5.81s-1.07,5.93.07,9.59,2.95,6.32,5.41,7.91,5.54,1.85,9.24.67,6.11-3.08,7.21-5.81S562.42,1249.36,561.27,1245.7Z" fill="#e0e1e2"/>
        <path d="M592.34,1225l-.73,0a2.28,2.28,0,0,0,0-.53,2,2,0,0,0-.08-.42,1.63,1.63,0,0,0-1-.75,6.35,6.35,0,0,0-2-.38,13.58,13.58,0,0,0-2.63.18,13.32,13.32,0,0,0-2.76.77,12.84,12.84,0,0,0-3.95,2.53,10.12,10.12,0,0,0-2.36,3.42,10.22,10.22,0,0,0-.77,3.92,10.46,10.46,0,0,0,.82,4,3.52,3.52,0,0,0,.23.49l.27.55.11,0a9.49,9.49,0,0,1,2.82-4.75,18.19,18.19,0,0,1,5.1-3.08,17.8,17.8,0,0,1,4.57-1.2,12.24,12.24,0,0,1,4.5.24,10.1,10.1,0,0,1,3.88,1.89,9.29,9.29,0,0,1,2.78,3.86,9.63,9.63,0,0,1-.21,8.83c-1.49,2.64-4.16,4.74-8,6.34a18.33,18.33,0,0,1-6.36,1.49,11.7,11.7,0,0,1-5.49-1.11,14.17,14.17,0,0,1-4.48-3.42,19.36,19.36,0,0,1-3.26-5.32,21.17,21.17,0,0,1-1.68-6.92,15.06,15.06,0,0,1,.83-6.23,13.89,13.89,0,0,1,3.27-5.17,17,17,0,0,1,5.66-3.71,17.5,17.5,0,0,1,3.6-1.13,21.37,21.37,0,0,1,2.93-.4l2.17-.09a3.74,3.74,0,0,0,1.22-.13,1.06,1.06,0,0,0,.6-.55,1.94,1.94,0,0,0,.17-.62l.85.17Zm4.57,12.75a7.19,7.19,0,0,0-2-3,6.37,6.37,0,0,0-2.72-1.31,7.84,7.84,0,0,0-3.13,0,14.82,14.82,0,0,0-3.28,1,10.87,10.87,0,0,0-2.9,1.73,9.74,9.74,0,0,0-2.18,2.41,7,7,0,0,0-1.08,2.87,5.8,5.8,0,0,0,.44,3.1,7,7,0,0,0,2.2,3,6.88,6.88,0,0,0,3,1.22,10.17,10.17,0,0,0,3.51-.11,18.75,18.75,0,0,0,3.56-1.09,10.55,10.55,0,0,0,2.74-1.62,7.23,7.23,0,0,0,1.83-2.24,6.23,6.23,0,0,0,.7-2.75A7.89,7.89,0,0,0,596.91,1237.71Z" fill="#e0e1e2"/>
        <path d="M600.15,1211.83q-2.05,1-3.33-1.4a24,24,0,0,1-1.25-4.15l-1.27-5.15c-.44-1.53-.11-2.57,1-3.1a2.24,2.24,0,0,1,1.91,0,2.9,2.9,0,0,1,1.43,1.42,41.66,41.66,0,0,1,2.54,8.79C601.58,1210.09,601.23,1211.29,600.15,1211.83Z" fill="#e0e1e2"/>
        <path d="M644.37,1206.57a17.79,17.79,0,0,1,2.19,6.14,14.92,14.92,0,0,1-.24,6.08,14,14,0,0,1-2.8,5.48,19.07,19.07,0,0,1-5.43,4.44,18.83,18.83,0,0,1-6.6,2.39,14.06,14.06,0,0,1-6.12-.4,15.07,15.07,0,0,1-5.35-2.88,19.18,19.18,0,0,1-6.37-11.2,15.11,15.11,0,0,1,.25-6.08,15.43,15.43,0,0,1,2.75-5.55,19.48,19.48,0,0,1,12-6.83,14.7,14.7,0,0,1,11.53,3.37A18.44,18.44,0,0,1,644.37,1206.57ZM640,1209c-1.9-3.35-4.21-5.54-7-6.59s-5.8-.62-9.17,1.31-5.32,4.33-5.82,7.21.21,6,2.11,9.36,4.22,5.52,6.95,6.59,5.8.6,9.18-1.31,5.32-4.33,5.82-7.23S641.94,1212.38,640,1209Z" fill="#e0e1e2"/>
        <path d="M675.77,1184.45a17.81,17.81,0,0,1,2.83,5.88,15,15,0,0,1,.39,6.08,14.08,14.08,0,0,1-2.21,5.72,19.08,19.08,0,0,1-4.93,5,18.85,18.85,0,0,1-6.32,3.06,13.79,13.79,0,0,1-6.14.25,14.77,14.77,0,0,1-5.62-2.31,19.06,19.06,0,0,1-7.49-10.47,15,15,0,0,1-.38-6.08,14.67,14.67,0,0,1,2.15-5.79,19.41,19.41,0,0,1,11.26-8.07,15.4,15.4,0,0,1,6.18-.16,15,15,0,0,1,5.62,2.31A18.27,18.27,0,0,1,675.77,1184.45Zm-4,2.89c-2.24-3.11-4.78-5.06-7.61-5.81s-5.84,0-9,2.24-4.83,4.85-5,7.78.83,6,3.07,9.1,4.78,5,7.61,5.81,5.83,0,9-2.24,4.84-4.86,5-7.79S674,1190.46,671.73,1187.34Z" fill="#e0e1e2"/>
        <path d="M670.16,1167.42c-1.16,1-2.35.8-3.57-.53a22.91,22.91,0,0,1-2.24-3.71l-2.51-4.68c-.79-1.37-.73-2.46.2-3.24a2.13,2.13,0,0,1,1.84-.51,2.88,2.88,0,0,1,1.75,1,41.57,41.57,0,0,1,4.63,7.9C671.12,1165.38,671.08,1166.64,670.16,1167.42Zm7.69-6.52c-1.17,1-2.35.8-3.57-.56a20.71,20.71,0,0,1-2.25-3.68l-2.5-4.68c-.8-1.38-.73-2.46.2-3.24a2.15,2.15,0,0,1,1.84-.53,2.85,2.85,0,0,1,1.73,1c1.11,1.24,2.65,3.88,4.65,7.9Q679.22,1159.72,677.85,1160.9Z" fill="#e0e1e2"/>
        <path d="M697.74,1142.22a24,24,0,0,1,5.84-4.5,16.77,16.77,0,0,1,6.3-2,14.55,14.55,0,0,1,6.35.83,18.68,18.68,0,0,1,10,9.73,14.19,14.19,0,0,1,1,6.3,16.22,16.22,0,0,1-1.83,6.3,27,27,0,0,1-10.16,10.45,16.15,16.15,0,0,1-6.24,2,14.23,14.23,0,0,1-6.33-.8,18.5,18.5,0,0,1-10-9.74,14.37,14.37,0,0,1-1-6.32,16.29,16.29,0,0,1,1.77-6.34A23.2,23.2,0,0,1,697.74,1142.22Zm3,2.86q-4.34,4.45-4.34,9.12t4.06,8.65c2.72,2.64,5.63,3.9,8.75,3.81s6.11-1.64,9-4.61,4.33-6,4.35-9.12-1.34-6-4.07-8.65-5.63-3.9-8.75-3.79S703.58,1142.13,700.71,1145.08Z" fill="#e0e1e2"/>
      </g>
    </g>
    <g>
      <path d="M99.9,306.87a1.26,1.26,0,0,0-.73.77,3.35,3.35,0,0,0,.34,1.52,18,18,0,0,1,.77,3.27,22.89,22.89,0,0,1,.11,5,27.4,27.4,0,0,1-1.53,6.79A26,26,0,0,1,95,331.64a18.8,18.8,0,0,1-5.48,4.92,16.28,16.28,0,0,1-13.69,1.27,13.6,13.6,0,0,1-5.25-3.28,15.66,15.66,0,0,1-3.49-5.44A20,20,0,0,1,65.83,322a25,25,0,0,1,1.48-8.34,28.59,28.59,0,0,1,2.38-5.27,41.2,41.2,0,0,1,2.52-3.78c.8-1.05,1.49-1.89,2.09-2.53a4.88,4.88,0,0,0,1-1.39c.12-.32.14-.55.07-.66l-.28-.44.72-.57,5,6-.63.67a1.06,1.06,0,0,0-.65-.57c-.32-.1-.83.06-1.53.5a11.7,11.7,0,0,0-2.27,2,23.28,23.28,0,0,0-2.46,3.32,20.87,20.87,0,0,0-2.08,4.41,19.85,19.85,0,0,0-1,5.16,13.92,13.92,0,0,0,.57,5.11,11.62,11.62,0,0,0,2.52,4.4,11.14,11.14,0,0,0,4.83,3,10.09,10.09,0,0,0,5.26.42,13.31,13.31,0,0,0,4.94-2,16.89,16.89,0,0,0,4.09-3.89,18.29,18.29,0,0,0,2.77-5.17,14.84,14.84,0,0,0,.82-4.39,18.47,18.47,0,0,0-.29-4,12.58,12.58,0,0,0-1-3.06c-.4-.82-.79-1.3-1.18-1.43a1.15,1.15,0,0,0-.93,0l-.2-.95,7.2-2.58Z" fill="#e0e1e2"/>
      <path d="M106.52,293.8l.87,1.07a2.61,2.61,0,0,0,.8.75c.41.21.78,0,1.1-.68l.67.33-3.5,7.14-.67-.33a2.5,2.5,0,0,0,.24-.63,1,1,0,0,0-.09-.66,5.62,5.62,0,0,0-.55-.92c-.26-.37-.61-.85-1.06-1.46L86.91,276.86l-1.08-1.39a2.11,2.11,0,0,0-.64-.6c-.45-.23-.84,0-1.18.71l-.67-.33,4.15-8.47.67.32q-.47.93.21,1.26a2.14,2.14,0,0,0,1,.14c.44,0,1.06,0,1.85,0l27.69-.28c.83,0,1.49,0,2-.05A4.06,4.06,0,0,0,122,268a1.14,1.14,0,0,0,.6-.38,5.48,5.48,0,0,0,.45-.79l.67.33-3.94,8.07-.67-.32a1.72,1.72,0,0,0,.25-1,.77.77,0,0,0-.47-.52,1.49,1.49,0,0,0-.66-.14l-1.61,0-5.55,0-8,16.43Zm-.11-20.43L90,273.48,100.25,286Z" fill="#e0e1e2"/>
      <path d="M142.59,229.55a1.26,1.26,0,0,0-.89.57,3.12,3.12,0,0,0,0,1.56,19.52,19.52,0,0,1-.06,3.36,22.31,22.31,0,0,1-1.11,4.87,27,27,0,0,1-3.14,6.21,26.15,26.15,0,0,1-5.57,6.25,18.54,18.54,0,0,1-6.51,3.43,16.25,16.25,0,0,1-13.59-2.11,13.65,13.65,0,0,1-4.29-4.46,15.45,15.45,0,0,1-2-6.13,19.82,19.82,0,0,1,.52-7.22,25.15,25.15,0,0,1,3.49-7.73,28,28,0,0,1,3.58-4.53,40.58,40.58,0,0,1,3.37-3.05c1-.82,1.91-1.47,2.64-1.94a5.44,5.44,0,0,0,1.35-1.1c.18-.29.26-.49.22-.62l-.16-.5.84-.37,3.38,7-.77.5a1.11,1.11,0,0,0-.5-.71c-.28-.18-.82-.14-1.61.11a11.53,11.53,0,0,0-2.69,1.41,24.52,24.52,0,0,0-3.2,2.62,21.25,21.25,0,0,0-3.09,3.77,19.22,19.22,0,0,0-2.25,4.75,14,14,0,0,0-.7,5.1,11.78,11.78,0,0,0,1.37,4.87,11.27,11.27,0,0,0,4,4.12,10.1,10.1,0,0,0,5,1.69,13.11,13.11,0,0,0,5.27-.76,17,17,0,0,0,4.93-2.78,18.28,18.28,0,0,0,3.94-4.33,14.86,14.86,0,0,0,1.87-4.06,18.68,18.68,0,0,0,.71-4,12.72,12.72,0,0,0-.18-3.2,2.61,2.61,0,0,0-.8-1.68,1.14,1.14,0,0,0-.9-.2l0-1,7.62-.74Z" fill="#e0e1e2"/>
      <path d="M152.16,218.53l.57,1.25a2.74,2.74,0,0,0,.6.93c.35.29.76.16,1.23-.4l.58.48L150,226.87l-.57-.48a4.82,4.82,0,0,0,.39-.56,1.08,1.08,0,0,0,.07-.66,6.32,6.32,0,0,0-.32-1c-.16-.41-.38-1-.67-1.66l-11.66-25.14-.72-1.62a2.25,2.25,0,0,0-.47-.74c-.38-.32-.82-.18-1.33.41l-.57-.48,6.09-7.22.57.49c-.44.52-.48.95-.09,1.27a2.1,2.1,0,0,0,.94.37q.66.13,1.8.42l26.92,6.46,1.92.43a4.19,4.19,0,0,0,1.11.13,1.09,1.09,0,0,0,.68-.23,4.4,4.4,0,0,0,.63-.65l.57.48-5.79,6.87-.57-.47a1.75,1.75,0,0,0,.5-.94.79.79,0,0,0-.33-.61,1.4,1.4,0,0,0-.61-.3L167,201l-5.39-1.33-11.79,14ZM157,198.69l-15.93-3.87,6.88,14.6Z" fill="#e0e1e2"/>
      <path d="M170.3,156a26.46,26.46,0,0,1,6.42-4.48,17.88,17.88,0,0,1,6.73-1.83,14.81,14.81,0,0,1,6.56,1.08,16.82,16.82,0,0,1,5.93,4.25,16.65,16.65,0,0,1,3.79,6.24,14.39,14.39,0,0,1,.57,6.6,17.4,17.4,0,0,1-2.38,6.5,29.94,29.94,0,0,1-11.38,10.55,17.28,17.28,0,0,1-6.66,1.9,14.45,14.45,0,0,1-6.54-1.06,18.31,18.31,0,0,1-9.73-10.48,14.9,14.9,0,0,1-.59-6.62,17.89,17.89,0,0,1,2.33-6.58A26.31,26.31,0,0,1,170.3,156Zm2.87,3.1q-4.83,4.49-5.21,9.36c-.24,3.25.95,6.3,3.6,9.15s5.6,4.27,8.85,4.26,6.5-1.5,9.72-4.49,5-6.11,5.21-9.36-1-6.3-3.59-9.15-5.6-4.27-8.86-4.26S176.39,156.11,173.17,159.1Z" fill="#e0e1e2"/>
      <path d="M251.4,126.35l-11.86-18.84a1.69,1.69,0,0,0-.86-.75,1.51,1.51,0,0,0-1.25.31l-.4-.63,6.57-4.13.39.63a1.5,1.5,0,0,0-.82,1,1.72,1.72,0,0,0,.31,1.1l15,23.89a1.73,1.73,0,0,0,.86.75,1.51,1.51,0,0,0,1.25-.31l.4.63-7,4.41-.4-.64c.73-.45,1-.82.83-1.11a1,1,0,0,0-.6-.46,5.66,5.66,0,0,1-.58-.19l-32.89-9,13.51,21.47a1.69,1.69,0,0,0,.86.75,1.52,1.52,0,0,0,1.25-.31l.4.63-6.57,4.13-.4-.63c.52-.32.79-.65.83-1a1.65,1.65,0,0,0-.31-1.09l-15-23.89a1.63,1.63,0,0,0-.85-.75,1.53,1.53,0,0,0-1.26.31l-.39-.63,9.25-5.82.39.63a2.16,2.16,0,0,0-.74.65.57.57,0,0,0,.07.58.61.61,0,0,0,.35.26,2.46,2.46,0,0,0,.51.15l29,8Z" fill="#e0e1e2"/>
      <path d="M273,119.73c0,.41,0,.87,0,1.37a2.71,2.71,0,0,0,.15,1.1c.19.42.62.47,1.29.16l.31.68-7.22,3.34-.31-.68a3,3,0,0,0,.59-.34,1,1,0,0,0,.34-.57,5.69,5.69,0,0,0,.15-1.06c0-.45.06-1,.1-1.79l.05-27.72c0-.78,0-1.37,0-1.76a1.91,1.91,0,0,0-.12-.88c-.2-.45-.66-.51-1.36-.18l-.32-.68,8.57-4,.31.68c-.62.29-.83.66-.62,1.12a2.06,2.06,0,0,0,.69.73c.37.27.85.65,1.46,1.14l21.67,17.24,1.55,1.21a4.65,4.65,0,0,0,1,.58,1.09,1.09,0,0,0,.72.08,5,5,0,0,0,.84-.32l.32.67L295,113.66l-.31-.68a1.63,1.63,0,0,0,.84-.63.82.82,0,0,0,0-.7,1.48,1.48,0,0,0-.43-.52l-1.23-1-4.32-3.49-16.6,7.69Zm12.78-15.93L273,93.56,273,109.7Z" fill="#e0e1e2"/>
      <path d="M341.4,92.62a1.25,1.25,0,0,0-1-.12c-.21.07-.55.46-1,1.18a18.31,18.31,0,0,1-2.16,2.58,22.44,22.44,0,0,1-3.94,3.08,27.3,27.3,0,0,1-6.35,2.83,26.14,26.14,0,0,1-8.26,1.34,18.56,18.56,0,0,1-7.22-1.44,16.27,16.27,0,0,1-9.21-10.21,13.54,13.54,0,0,1-.52-6.16,15.53,15.53,0,0,1,2.27-6.06,20,20,0,0,1,5-5.27,24.88,24.88,0,0,1,7.57-3.8,28.14,28.14,0,0,1,5.64-1.25,40.81,40.81,0,0,1,4.54-.25c1.31,0,2.41.07,3.27.16a5.22,5.22,0,0,0,1.73,0c.33-.11.53-.22.58-.35s.11-.28.18-.48l.89.23-1.79,7.57-.91-.1a1.09,1.09,0,0,0,.06-.87c-.1-.32-.54-.62-1.31-.92a11.27,11.27,0,0,0-3-.61,23.84,23.84,0,0,0-4.14,0,22,22,0,0,0-4.78,1A20,20,0,0,0,312.73,77,14,14,0,0,0,309,80.48a11.57,11.57,0,0,0-2,4.65,11.07,11.07,0,0,0,.46,5.68,10.15,10.15,0,0,0,2.82,4.47A13,13,0,0,0,314.82,98a16.92,16.92,0,0,0,5.57,1,18.41,18.41,0,0,0,5.79-.88,14.77,14.77,0,0,0,4-2,18.43,18.43,0,0,0,3.06-2.64,12.79,12.79,0,0,0,1.88-2.6,2.59,2.59,0,0,0,.44-1.8,1.19,1.19,0,0,0-.57-.74l.64-.72L342,91.83Z" fill="#e0e1e2"/>
      <path d="M353.66,93.83a1.54,1.54,0,0,0,1.12-.66,1.69,1.69,0,0,0,.08-1.13l-6.05-27.57a1.71,1.71,0,0,0-.55-1,1.51,1.51,0,0,0-1.29-.13l-.16-.73,8.34-1.83.16.73a1.57,1.57,0,0,0-1.12.65,1.72,1.72,0,0,0-.08,1.14l6.05,27.58a1.77,1.77,0,0,0,.55,1A1.51,1.51,0,0,0,362,92l.16.73-8.34,1.83Z" fill="#e0e1e2"/>
      <path d="M386.58,55.24a26.22,26.22,0,0,1,7.84.13,17.63,17.63,0,0,1,6.52,2.45,14.79,14.79,0,0,1,4.69,4.72,18.27,18.27,0,0,1,1.75,14.19A14.61,14.61,0,0,1,404,82.42a17.39,17.39,0,0,1-5.74,3.87,30.1,30.1,0,0,1-15.4,1.9,17.41,17.41,0,0,1-6.51-2.36,14.46,14.46,0,0,1-4.68-4.69,16.49,16.49,0,0,1-2.32-6.92,16.49,16.49,0,0,1,.57-7.27,14.73,14.73,0,0,1,3.4-5.72,17.77,17.77,0,0,1,5.73-4A26.24,26.24,0,0,1,386.58,55.24Zm.52,4.19q-6.54.81-9.7,4.55T375,73.49q.71,5.79,4.68,8.65t10.51,2q6.56-.81,9.7-4.54t2.45-9.52q-.72-5.79-4.69-8.64T387.1,59.43Z" fill="#e0e1e2"/>
      <path d="M449.93,77.12l-.11-22.26a1.67,1.67,0,0,0-.33-1.09,1.5,1.5,0,0,0-1.23-.4v-.75l7.75,0v.74a1.56,1.56,0,0,0-1.23.41,1.74,1.74,0,0,0-.31,1.09l.14,28.24a1.64,1.64,0,0,0,.33,1.08,1.5,1.5,0,0,0,1.23.4v.74l-8.27,0v-.75c.86,0,1.3-.17,1.3-.5a1.1,1.1,0,0,0-.27-.72,4.18,4.18,0,0,1-.39-.46L425.4,57.84l.13,25.37a1.67,1.67,0,0,0,.33,1.09,1.49,1.49,0,0,0,1.22.4v.74l-7.76,0v-.74a1.51,1.51,0,0,0,1.23-.41,1.7,1.7,0,0,0,.32-1.09L420.73,55a1.73,1.73,0,0,0-.33-1.09,1.52,1.52,0,0,0-1.23-.4v-.75l10.93-.05v.74a2.3,2.3,0,0,0-1,.16.59.59,0,0,0-.25.54.73.73,0,0,0,.16.4,3.42,3.42,0,0,0,.36.4L449.8,77.12Z" fill="#e0e1e2"/>
      <path d="M472,82.22l-.7,1.18a2.89,2.89,0,0,0-.43,1c0,.46.3.72,1,.79l-.07.74-7.92-.77.08-.74a3.85,3.85,0,0,0,.68,0,1,1,0,0,0,.58-.32,5.94,5.94,0,0,0,.67-.84l1-1.5L481,57.92c.41-.67.72-1.17.92-1.51a2.15,2.15,0,0,0,.35-.8c0-.5-.32-.78-1.09-.86l.07-.74,9.4.92-.08.74c-.69-.07-1.05.14-1.1.64a2.15,2.15,0,0,0,.23,1c.18.42.4,1,.67,1.72l9.95,25.84c.32.78.56,1.39.73,1.82a4,4,0,0,0,.53,1,1.09,1.09,0,0,0,.57.43,4,4,0,0,0,.9.15L503,89,494,88.12l.07-.74a1.68,1.68,0,0,0,1.05-.12.75.75,0,0,0,.32-.62,1.48,1.48,0,0,0-.1-.67l-.53-1.52-2-5.19-18.21-1.77ZM491.07,75l-5.84-15.31L477.11,73.6Z" fill="#e0e1e2"/>
      <path d="M524.74,60.9a1.43,1.43,0,0,0-1.29.17,2.15,2.15,0,0,0-.59,1.21L517.4,87.82l21.25,4.53c1.48.32,2.34-.13,2.6-1.34l.76.16-1.49,7-.76-.16c.17-.77-.49-1.32-2-1.63l-28.07-6,.15-.74a1.55,1.55,0,0,0,1.29-.13,1.71,1.71,0,0,0,.54-1l5.9-27.61a1.72,1.72,0,0,0-.08-1.14,1.57,1.57,0,0,0-1.12-.65l.15-.72,8.35,1.78Z" fill="#e0e1e2"/>
      <path d="M569,93.89a.81.81,0,0,0-.83.1,1.45,1.45,0,0,0-.47.62l-1.09-.39,2.13-5.85,1.09.4c-.26.7-.08,1.16.53,1.38l10.39,3.79a.79.79,0,0,0,.82-.1,1.37,1.37,0,0,0,.47-.62l1.09.4L581,99.46l-1.1-.4c.26-.7.08-1.16-.53-1.38Z" fill="#e0e1e2"/>
      <path d="M618.6,94.08a1.75,1.75,0,0,0,.23-1.11c-.07-.34-.36-.65-.9-.94l.36-.66,23.87,12.81a5.16,5.16,0,0,0,2,.76,1.07,1.07,0,0,0,.86-.64l.68.37-3.35,6.25-.69-.37a1.6,1.6,0,0,0,.15-1.37,3.15,3.15,0,0,0-1.54-1.36L622.5,98.29,617.85,107l11.57,6.2a4.18,4.18,0,0,0,1.86.57,1.36,1.36,0,0,0,1.3-.85l.69.37-3.56,6.63-.68-.37a1.44,1.44,0,0,0,.1-1.42,3.73,3.73,0,0,0-1.53-1.25l-11.68-6.26-5,9.31,19,10.21a3.61,3.61,0,0,0,2,.54,2,2,0,0,0,1.36-1.15l.68.36-3.5,6.52-.68-.36c.37-.7-.11-1.4-1.44-2.11L602.82,120.2l.36-.66a1.47,1.47,0,0,0,1.27.22,1.67,1.67,0,0,0,.8-.8Z" fill="#e0e1e2"/>
      <path d="M670.36,156.88a1.26,1.26,0,0,0-.54-.91,3.12,3.12,0,0,0-1.56-.11,18.26,18.26,0,0,1-3.35-.17,22.76,22.76,0,0,1-4.83-1.29A27.57,27.57,0,0,1,654,151a26.15,26.15,0,0,1-6-5.79,18.6,18.6,0,0,1-3.19-6.63,16.29,16.29,0,0,1,2.61-13.5A13.78,13.78,0,0,1,652,121a15.33,15.33,0,0,1,6.2-1.82,20.1,20.1,0,0,1,7.2.79A25.08,25.08,0,0,1,673,123.7a28.47,28.47,0,0,1,4.4,3.76,42.17,42.17,0,0,1,2.92,3.47c.78,1.06,1.39,2,1.85,2.71a4.77,4.77,0,0,0,1,1.38c.28.21.48.29.61.25l.5-.14.35.85-7.12,3.13-.47-.79a1.09,1.09,0,0,0,.73-.48c.2-.27.18-.8,0-1.6a11.71,11.71,0,0,0-1.31-2.75,23.68,23.68,0,0,0-2.5-3.29,21.44,21.44,0,0,0-3.66-3.23,19.35,19.35,0,0,0-4.65-2.42,14.29,14.29,0,0,0-5.08-.89,11.72,11.72,0,0,0-4.92,1.2,11.19,11.19,0,0,0-4.26,3.78,10.07,10.07,0,0,0-1.87,4.94,13.37,13.37,0,0,0,.57,5.31,16.91,16.91,0,0,0,2.59,5,18.28,18.28,0,0,0,4.18,4.1,15.06,15.06,0,0,0,4,2,18.12,18.12,0,0,0,3.95.85,12,12,0,0,0,3.21-.06,2.56,2.56,0,0,0,1.7-.73,1.13,1.13,0,0,0,.24-.9l1,.08.46,7.64Z" fill="#e0e1e2"/>
      <path d="M697.18,145.28a1.7,1.7,0,0,0,.5-1,1.53,1.53,0,0,0-.63-1.13l.51-.55,6.29,5.76-.51.56a1.52,1.52,0,0,0-1.18-.54,1.75,1.75,0,0,0-1,.59l-13.44,14.67a5.16,5.16,0,0,0-1.36,5.54c.69,2,2.37,4.16,5,6.61s5,3.92,7,4.44a5.17,5.17,0,0,0,5.41-1.83l13.45-14.67a1.7,1.7,0,0,0,.5-1,1.53,1.53,0,0,0-.63-1.13l.5-.55L724,166.8l-.5.55a1.54,1.54,0,0,0-1.18-.54,1.75,1.75,0,0,0-1,.59l-12.52,13.66a14.17,14.17,0,0,1-5,3.72,9,9,0,0,1-4.9.57,13,13,0,0,1-5-2.12,44.42,44.42,0,0,1-5.36-4.3,43.82,43.82,0,0,1-4.74-5,12.64,12.64,0,0,1-2.54-4.83,8.81,8.81,0,0,1,.13-4.93,14.28,14.28,0,0,1,3.29-5.26Z" fill="#e0e1e2"/>
      <path d="M714.11,198.78c-.39.12-.84.23-1.32.37a2.69,2.69,0,0,0-1,.44c-.35.29-.29.72.19,1.28l-.57.48-5.16-6,.56-.48a5.38,5.38,0,0,0,.49.48,1.05,1.05,0,0,0,.64.17,6.55,6.55,0,0,0,1.07-.14l1.75-.39,26.71-7.41,1.71-.44a1.93,1.93,0,0,0,.81-.35c.38-.32.31-.77-.19-1.37l.57-.48,6.12,7.18-.57.49c-.44-.53-.85-.63-1.23-.31a2.11,2.11,0,0,0-.53.88c-.16.42-.4,1-.71,1.7l-10.76,25.51c-.32.78-.57,1.39-.74,1.82a4.15,4.15,0,0,0-.31,1.08,1,1,0,0,0,.11.7,5.09,5.09,0,0,0,.54.73l-.56.49-5.84-6.84.57-.48a1.62,1.62,0,0,0,.84.64.77.77,0,0,0,.66-.23,1.64,1.64,0,0,0,.39-.54c.11-.23.33-.72.67-1.47l2.19-5.09-11.87-13.92Zm18.79,8,6.42-15.09-15.53,4.41Z" fill="#e0e1e2"/>
      <path d="M761.71,214.77a1.68,1.68,0,0,0,.72-.87,1.5,1.5,0,0,0-.33-1.25l.62-.41,11,16.73a20.2,20.2,0,0,1,3,6.68,15.43,15.43,0,0,1,.17,6.4,15.23,15.23,0,0,1-2.43,5.75,17.16,17.16,0,0,1-4.8,4.64,20,20,0,0,1-6,2.75,13.7,13.7,0,0,1-11.63-2,18.6,18.6,0,0,1-4.85-5.13l-11.72-17.75.62-.42a1.49,1.49,0,0,0,1,.81,1.74,1.74,0,0,0,1.09-.33Zm-11.46,30.5q3.13,4.75,7.29,5.41t9.2-2.66q5-3.33,5.83-7.77t-2.52-9.45l-6.91-10.47-20.45,13.5Z" fill="#e0e1e2"/>
      <path d="M797.37,269.72a26.06,26.06,0,0,1,2.45,7.44,18,18,0,0,1-.18,7,14.88,14.88,0,0,1-2.92,6,18.33,18.33,0,0,1-12.84,6.31,14.69,14.69,0,0,1-6.49-1.35,17.55,17.55,0,0,1-5.54-4.16A29.84,29.84,0,0,1,765,277a17.5,17.5,0,0,1,.1-6.93,14.49,14.49,0,0,1,2.89-6,18.33,18.33,0,0,1,12.84-6.31,14.82,14.82,0,0,1,6.51,1.34,18,18,0,0,1,5.63,4.11A26.4,26.4,0,0,1,797.37,269.72Zm-3.79,1.86q-2.91-5.91-7.47-7.67t-9.8.81c-3.48,1.71-5.7,4.13-6.63,7.25s-.42,6.66,1.52,10.61,4.43,6.51,7.46,7.67,6.31.91,9.8-.81,5.7-4.13,6.63-7.25S795.52,275.53,793.58,271.58Z" fill="#e0e1e2"/>
      <path d="M784.08,316.47a1.63,1.63,0,0,0-.92.65,1.5,1.5,0,0,0,0,1.29l-.71.25-2.75-8.09.71-.23a1.49,1.49,0,0,0,.78,1,1.71,1.71,0,0,0,1.13-.05l26.74-9.09a1.71,1.71,0,0,0,.92-.66,1.5,1.5,0,0,0,0-1.29l.7-.24,7,20.51c1.37,4,1.62,7.19.75,9.44a8.29,8.29,0,0,1-5.5,4.8,8.75,8.75,0,0,1-6.57,0c-1.91-.85-3.58-2.75-5-5.67l-8.85,11.62a6.37,6.37,0,0,0-.88,1.49,2.42,2.42,0,0,0,.16,1.41l-.71.25-3-8.82.71-.24a2.75,2.75,0,0,0,.46,1,.43.43,0,0,0,.48.07.92.92,0,0,0,.55-.53l9-11.45-3.82-11.26Zm19.87,8.2c.85,2.48,1.89,4.08,3.14,4.8a5,5,0,0,0,4.23.26,6,6,0,0,0,1.9-1,3.16,3.16,0,0,0,1-1.57,6,6,0,0,0,.08-2.46,19.62,19.62,0,0,0-.93-3.61L808.93,308l-9.54,3.23Z" fill="#e0e1e2"/>
    </g>
  </g>
</svg>
