<?xml version="1.0" encoding="utf-8"?>
<!-- Generator: Adobe Illustrator 24.0.0, SVG Export Plug-In . SVG Version: 6.00 Build 0)  -->
<svg version="1.1" xmlns="http://www.w3.org/2000/svg" xmlns:xlink="http://www.w3.org/1999/xlink" x="0px" y="0px"
	 viewBox="0 0 1423.91 731.65" style="enable-background:new 0 0 1423.91 731.65;" xml:space="preserve">
<style type="text/css">
	.st0{fill:#E8E8E9;}
	.st1{fill:#9F6C50;}
	.st2{fill:#2F1C1D;}
	.st3{fill:#231F20;}
	.st4{fill:none;}
	.st5{fill-rule:evenodd;clip-rule:evenodd;fill:#58595B;}
	.st6{clip-path:url(#SVGID_2_);}
	.st7{fill:#FFFFFF;}
	.st8{font-family:'Copperplate';}
	.st9{font-size:105.946px;}
	.st10{letter-spacing:108;}
	.st11{letter-spacing:207;}
	.st12{fill:#383838;}
	.st13{clip-path:url(#SVGID_4_);}
	.st14{fill:#FFFFFF;stroke:#FFFFFF;stroke-width:2;stroke-miterlimit:10;}
	.st15{fill:url(#SVGID_5_);}
	.st16{clip-path:url(#SVGID_7_);}
	.st17{fill:#DFE0E1;}
	.st18{fill:none;stroke:#FFFFFF;stroke-width:3;stroke-miterlimit:10;}
	.st19{fill:#8A6050;}
	.st20{fill:#2F1C1D;stroke:#2F1C1D;stroke-width:1.8117;stroke-miterlimit:10;}
	.st21{fill:#6D6E70;}
	.st22{fill:#D9CCBC;}
	.st23{clip-path:url(#SVGID_11_);}
	.st24{clip-path:url(#SVGID_13_);}
	.st25{clip-path:url(#SVGID_15_);}
	.st26{clip-path:url(#SVGID_19_);}
	.st27{fill:none;stroke:#FFFFFF;stroke-width:1.4749;stroke-miterlimit:10;}
</style>
<g id="Layer_1">
</g>
<g id="Layer_2">
	<g>
		<g>
			<g>
				<path class="st7" d="M702.61,378.19c-0.36-0.53-0.9-1.25-1.43-2.08c-0.54-0.84-0.81-1.66-0.92-2.29
					c-0.1-0.63,0.04-1.07,0.33-1.15l0.77-0.21c0.3-0.09,0.64,0.22,0.88,0.78c0.12,0.28,0.23,0.62,0.3,1.03
					c0.07,0.5,0.13,0.9,0.2,1.31c0.12,0.94,0.18,1.82,0.25,2.46c0.06,0.64,0.16,1.02,0.16,1.02S702.97,378.71,702.61,378.19z
					 M708.91,382.77c-0.22,1.1-0.49,2.09-0.65,2.81c-0.18,0.72-0.22,1.16-0.22,1.16s-0.05-0.44-0.23-1.16
					c-0.17-0.72-0.45-1.71-0.68-2.81c-0.23-1.09-0.34-2.09-0.24-2.8c0.08-0.72,0.34-1.17,0.68-1.16l0.86-0.01
					c0.34,0,0.61,0.44,0.69,1.16C709.23,380.68,709.13,381.67,708.91,382.77z M710.47,373.44c-0.16,1.1-0.5,2.09-0.86,2.81
					c-0.37,0.72-0.74,1.16-1.11,1.17l-0.99,0c-0.37,0-0.75-0.45-1.12-1.16c-0.37-0.71-0.72-1.71-0.88-2.8
					c-0.17-1.1-0.09-2.09,0.22-2.81c0.3-0.72,0.83-1.17,1.45-1.17l1.61,0c0.62,0,1.15,0.44,1.46,1.16
					C710.54,371.35,710.63,372.34,710.47,373.44z M711.59,364.11c-0.12,1.1-0.51,2.09-1.02,2.81c-0.51,0.72-1.12,1.17-1.76,1.17
					l-1.7,0.01c-0.64,0-1.25-0.44-1.77-1.16c-0.51-0.72-0.92-1.71-1.04-2.8c-0.12-1.09,0.08-2.09,0.55-2.81
					c0.46-0.72,1.18-1.17,2-1.17l2.14-0.01c0.82,0,1.54,0.44,2.01,1.16C711.48,362.02,711.69,363.01,711.59,364.11z M715.71,373.74
					c-0.1,0.63-0.36,1.46-0.89,2.3c-0.53,0.85-1.06,1.57-1.42,2.1c-0.36,0.52-0.53,0.87-0.53,0.87s0.09-0.38,0.15-1.02
					c0.07-0.63,0.11-1.52,0.23-2.46c0.06-0.41,0.11-0.82,0.19-1.32c0.07-0.4,0.17-0.75,0.29-1.03c0.23-0.57,0.57-0.87,0.87-0.79
					l0.78,0.21C715.67,372.68,715.8,373.11,715.71,373.74z M718.28,368.47c-0.34,0.91-0.83,1.7-1.29,2.24
					c-0.45,0.54-0.92,0.83-1.25,0.75l-0.89-0.22c-0.34-0.09-0.55-0.53-0.77-1.21c-0.2-0.67-0.34-1.56-0.3-2.5
					c0.04-0.93,0.3-1.73,0.68-2.28c0.37-0.55,0.92-0.84,1.48-0.74l1.46,0.26c0.56,0.1,0.98,0.56,1.16,1.24
					C718.75,366.67,718.62,367.55,718.28,368.47z M720.75,360.53c-0.25,0.94-0.76,1.76-1.33,2.31c-0.57,0.55-1.18,0.84-1.78,0.74
					l-1.54-0.26c-0.59-0.1-1.09-0.56-1.45-1.24c-0.37-0.67-0.59-1.55-0.57-2.48c0.01-0.93,0.3-1.74,0.81-2.29
					c0.5-0.55,1.21-0.85,1.96-0.76l1.97,0.23c0.75,0.09,1.37,0.55,1.72,1.23C720.89,358.69,720.97,359.59,720.75,360.53z
					 M722.45,352.17c-0.32,1.92-1.88,3.32-3.43,3.15l-2.04-0.22c-0.78-0.08-1.45-0.54-1.95-1.2c-0.51-0.66-0.84-1.54-0.84-2.47
					c0-1.85,1.48-3.25,3.26-3.13l2.32,0.16C721.57,348.59,722.78,350.25,722.45,352.17z M720.33,339.19l-2.54-0.07
					c-1.93-0.06-3.52-1.61-3.51-3.46c0.02-0.92,0.39-1.76,1.04-2.37c0.64-0.61,1.54-0.99,2.53-0.99l2.6,0c0.99,0,1.9,0.39,2.55,1.01
					c0.65,0.64,1.06,1.51,1.01,2.48C723.92,337.73,722.26,339.25,720.33,339.19z M723.5,344c-0.2,1.93-1.84,3.39-3.62,3.27
					l-2.36-0.15c-1.79-0.13-3.26-1.73-3.25-3.58c0.02-1.85,1.58-3.29,3.51-3.24l2.52,0.08c0.96,0.03,1.82,0.45,2.42,1.1
					C723.29,342.14,723.59,343.03,723.5,344z M722.98,329.78c-0.65,0.64-1.54,1.03-2.54,1.04l-2.6,0.02
					c-0.99,0.01-1.9-0.36-2.55-0.97c-0.65-0.6-1.04-1.43-1.06-2.35c-0.04-1.85,1.53-3.41,3.48-3.49l2.56-0.1
					c1.95-0.08,3.63,1.42,3.72,3.36C724.03,328.26,723.62,329.14,722.98,329.78z M726.77,361.81c-0.12,0.63-0.52,1.44-1.07,2.27
					c-0.57,0.82-1.26,1.48-1.68,1.97c-0.22,0.25-0.38,0.45-0.49,0.58c-0.11,0.14-0.16,0.22-0.16,0.22s0.03-0.09,0.08-0.26
					c0.04-0.18,0.1-0.43,0.16-0.75c0.1-0.65,0.26-1.51,0.39-2.46c0.12-0.96,0.31-1.77,0.62-2.31c0.3-0.54,0.67-0.82,0.99-0.72
					l0.84,0.26C726.77,360.72,726.92,361.17,726.77,361.81z M723.51,296.12l0.21-0.09c0.07-0.03,0.33,0.28,0.77,0.79
					c0.41,0.51,1.07,1.21,1.56,2.06c0.49,0.86,0.8,1.69,0.87,2.33c0.06,0.66-0.13,1.12-0.51,1.23l-0.98,0.29
					c-0.38,0.11-0.8-0.16-1.12-0.7c-0.32-0.55-0.53-1.36-0.61-2.32c-0.1-0.96-0.18-1.83-0.21-2.49
					C723.47,296.56,723.44,296.16,723.51,296.12z M722.63,321.61c-0.59,0.66-1.45,1.08-2.42,1.12l-2.54,0.11
					c-1.96,0.08-3.5-1.36-3.57-3.2c-0.04-1.85,1.42-3.46,3.23-3.61l2.39-0.18c1.81-0.14,3.49,1.3,3.7,3.24
					C723.54,320.05,723.24,320.95,722.63,321.61z M722.34,310.92c0.17,0.96-0.04,1.86-0.53,2.53c-0.49,0.68-1.28,1.13-2.18,1.2
					l-2.36,0.19c-1.8,0.14-3.31-1.24-3.36-3.09c-0.03-0.93,0.29-1.8,0.81-2.48c0.51-0.67,1.21-1.14,2.01-1.23l2.1-0.25
					c0.8-0.09,1.58,0.2,2.22,0.77C721.68,309.14,722.17,309.97,722.34,310.92z M720.59,302.57c0.24,0.95,0.15,1.84-0.21,2.53
					c-0.36,0.69-1,1.15-1.77,1.25l-2.03,0.26c-0.77,0.1-1.51-0.19-2.05-0.73c-0.53-0.54-0.87-1.34-0.9-2.27
					c-0.03-0.93,0.23-1.82,0.62-2.5c0.38-0.68,0.89-1.15,1.51-1.25l1.63-0.28C718.64,299.35,720.11,300.69,720.59,302.57z
					 M718.2,294.65c0.32,0.92,0.38,1.8,0.18,2.48c-0.19,0.67-0.64,1.15-1.23,1.25l-1.55,0.28c-0.59,0.11-1.18-0.18-1.6-0.72
					c-0.42-0.55-0.67-1.35-0.7-2.29c-0.02-0.95,0.09-1.82,0.3-2.5c0.21-0.67,0.51-1.14,0.89-1.23l1.02-0.24
					c0.39-0.09,0.86,0.2,1.36,0.73C717.37,292.95,717.91,293.73,718.2,294.65z M712.72,285.15c0-0.65,0-1.05,0.06-1.07l0.19-0.06
					c0.07-0.02,0.29,0.31,0.65,0.85c0.37,0.54,0.86,1.29,1.33,2.15c0.48,0.86,0.71,1.7,0.74,2.34c0.02,0.64-0.17,1.09-0.52,1.17
					l-0.91,0.23c-0.35,0.08-0.73-0.21-0.98-0.78c-0.27-0.56-0.38-1.41-0.49-2.35C712.71,286.69,712.71,285.8,712.72,285.15z
					 M706.36,279.28c0.21-1.1,0.49-2.09,0.69-2.81c0.2-0.72,0.32-1.17,0.4-1.16l0.21,0c0.08,0,0.2,0.44,0.41,1.16
					c0.21,0.71,0.49,1.71,0.71,2.8c0.21,1.1,0.28,2.09,0.14,2.8c-0.13,0.72-0.45,1.16-0.84,1.17l-1.01,0
					c-0.39,0-0.71-0.44-0.85-1.16C706.1,281.37,706.16,280.38,706.36,279.28z M704.9,288.61c0.15-1.09,0.5-2.09,0.89-2.81
					c0.4-0.72,0.81-1.17,1.24-1.16l1.13-0.01c0.43,0,0.86,0.44,1.25,1.16c0.39,0.72,0.75,1.71,0.91,2.8
					c0.16,1.1,0.05,2.09-0.29,2.81c-0.33,0.72-0.9,1.16-1.56,1.17l-1.71,0.01c-0.65,0-1.23-0.44-1.56-1.16
					C704.86,290.7,704.75,289.71,704.9,288.61z M703.85,297.94c0.11-1.1,0.51-2.09,1.04-2.81c0.53-0.72,1.17-1.17,1.85-1.17
					l1.79-0.01c0.69,0,1.32,0.44,1.86,1.15c0.53,0.72,0.94,1.71,1.06,2.8c0.12,1.1-0.11,2.09-0.6,2.81
					c-0.49,0.72-1.23,1.16-2.08,1.17l-2.21,0.01c-0.85,0-1.6-0.44-2.09-1.15C703.99,300.03,703.75,299.04,703.85,297.94z
					 M700.26,287.09c0.47-0.87,0.95-1.63,1.31-2.17c0.36-0.54,0.57-0.88,0.64-0.86l0.19,0.06c0.07,0.02,0.07,0.42,0.08,1.07
					c0.01,0.65,0.02,1.53-0.06,2.48c-0.11,0.94-0.21,1.79-0.47,2.36c-0.26,0.57-0.63,0.87-0.98,0.78l-0.91-0.21
					c-0.35-0.08-0.55-0.53-0.53-1.17C699.56,288.8,699.79,287.96,700.26,287.09z"/>
			</g>
			<g>
				<path class="st7" d="M719.78,348.47l-2.32-0.16c-1.79-0.12-3.26,1.27-3.26,3.13c-0.01,0.93,0.33,1.81,0.84,2.47
					c0.5,0.66,1.17,1.12,1.95,1.2l2.04,0.22c1.55,0.17,3.11-1.23,3.43-3.15C722.78,350.25,721.57,348.59,719.78,348.47z"/>
			</g>
			<g>
				<path class="st7" d="M729.6,344.66l-1.98-0.2c-0.76-0.08-1.48,0.23-1.99,0.78c-0.52,0.55-0.83,1.36-0.84,2.28
					c-0.02,0.93,0.18,1.79,0.56,2.48c0.38,0.68,0.9,1.15,1.51,1.26l1.62,0.28c0.62,0.11,1.26-0.18,1.84-0.73
					c0.57-0.56,1.11-1.39,1.32-2.36c0.21-0.96,0.1-1.88-0.28-2.57C730.99,345.2,730.36,344.74,729.6,344.66z"/>
			</g>
			<g>
				<path class="st7" d="M719.73,315.86l-2.39,0.18c-1.81,0.14-3.28,1.76-3.23,3.61c0.06,1.84,1.6,3.28,3.57,3.2l2.54-0.11
					c0.97-0.04,1.83-0.47,2.42-1.12c0.6-0.66,0.91-1.56,0.8-2.52C723.21,317.16,721.54,315.71,719.73,315.86z"/>
			</g>
			<g>
				<path class="st7" d="M722.99,333.31c-0.65-0.63-1.55-1.01-2.55-1.01l-2.6,0c-0.99,0-1.89,0.38-2.53,0.99
					c-0.65,0.61-1.02,1.44-1.04,2.37c-0.01,1.85,1.57,3.4,3.51,3.46l2.54,0.07c1.93,0.06,3.59-1.46,3.67-3.4
					C724.05,334.82,723.65,333.94,722.99,333.31z"/>
			</g>
			<g>
				<path class="st7" d="M720.26,323.94l-2.56,0.1c-1.95,0.08-3.52,1.64-3.48,3.49c0.02,0.92,0.4,1.75,1.06,2.35
					c0.66,0.6,1.56,0.97,2.55,0.97l2.6-0.02c0.99-0.01,1.89-0.4,2.54-1.04c0.64-0.64,1.05-1.52,1.01-2.48
					C723.89,325.36,722.21,323.85,720.26,323.94z"/>
			</g>
			<g>
				<path class="st7" d="M720.29,340.39l-2.52-0.08c-1.93-0.06-3.48,1.39-3.51,3.24c0,1.85,1.46,3.45,3.25,3.58l2.36,0.15
					c1.79,0.12,3.43-1.34,3.62-3.27c0.09-0.96-0.2-1.85-0.79-2.51C722.12,340.84,721.25,340.42,720.29,340.39z"/>
			</g>
			<g>
				<path class="st7" d="M728.25,352.74l-1.54-0.28c-0.58-0.11-1.16,0.17-1.6,0.7c-0.43,0.54-0.7,1.33-0.76,2.26
					c-0.03,0.94,0.05,1.82,0.24,2.5c0.19,0.68,0.44,1.15,0.81,1.26l0.96,0.28c0.36,0.11,0.83-0.16,1.36-0.68
					c0.52-0.52,1.11-1.3,1.44-2.24c0.35-0.93,0.45-1.83,0.28-2.52C729.29,353.34,728.84,352.86,728.25,352.74z"/>
			</g>
			<path class="st7" d="M729.23,306.5c-0.37-0.93-0.91-1.71-1.44-2.23c-0.53-0.53-1.03-0.79-1.44-0.68l-1.09,0.31
				c-0.42,0.11-0.73,0.6-0.96,1.29c-0.22,0.69-0.35,1.58-0.26,2.51c0.11,0.92,0.36,1.72,0.8,2.25c0.44,0.53,1.05,0.8,1.68,0.69
				l1.62-0.31C729.38,310.1,730.01,308.36,729.23,306.5z"/>
			<g>
				<path class="st7" d="M730.27,336.23l-2.21-0.07c-0.85-0.03-1.62,0.33-2.17,0.91c-0.56,0.59-0.87,1.41-0.91,2.33
					c-0.03,1.84,1.23,3.45,2.77,3.6l2.04,0.19c1.54,0.15,3.03-1.32,3.27-3.3c0.13-0.98-0.17-1.89-0.67-2.55
					C731.86,336.68,731.12,336.26,730.27,336.23z"/>
			</g>
			<path class="st7" d="M731.63,314.58c-0.23-0.96-0.68-1.79-1.3-2.35c-0.61-0.55-1.28-0.82-1.93-0.71l-1.7,0.3
				c-0.65,0.11-1.18,0.6-1.56,1.27c-0.37,0.67-0.65,1.57-0.6,2.49c0.07,1.84,1.44,3.19,2.98,3.03l2.03-0.22
				c0.78-0.08,1.44-0.55,1.8-1.24C731.74,316.47,731.85,315.55,731.63,314.58z"/>
			<g>
				<path class="st7" d="M727.63,320.08c-1.58,0.16-2.82,1.79-2.74,3.62c0.01,1.84,1.43,3.28,3.13,3.22l2.23-0.09
					c1.71-0.06,2.98-1.71,2.81-3.69c-0.12-0.98-0.57-1.85-1.18-2.43c-0.61-0.59-1.38-0.91-2.17-0.83L727.63,320.08z"/>
			</g>
			<g>
				<path class="st7" d="M730.31,328.05l-2.24,0.07c-0.86,0.03-1.6,0.43-2.17,1.05c-0.56,0.62-0.91,1.46-0.9,2.38
					c0,0.92,0.39,1.75,0.94,2.37c0.55,0.62,1.31,1.02,2.16,1.04l2.23,0.05c0.85,0.02,1.64-0.35,2.23-0.98
					c0.59-0.63,0.92-1.53,0.92-2.51C733.46,329.54,732.04,327.99,730.31,328.05z"/>
			</g>
			<g>
				<path class="st7" d="M717.42,364.76l-1.46-0.26c-0.56-0.1-1.11,0.19-1.48,0.74c-0.38,0.55-0.65,1.34-0.68,2.28
					c-0.05,0.94,0.09,1.83,0.3,2.5c0.22,0.68,0.42,1.12,0.77,1.21l0.89,0.22c0.33,0.09,0.79-0.2,1.25-0.75
					c0.46-0.54,0.95-1.32,1.29-2.24c0.34-0.92,0.46-1.8,0.3-2.47C718.4,365.32,717.98,364.86,717.42,364.76z"/>
			</g>
			<g>
				<path class="st7" d="M708.99,360.15l-2.14,0.01c-0.82,0-1.54,0.45-2,1.17c-0.47,0.72-0.67,1.71-0.55,2.81
					c0.12,1.1,0.53,2.09,1.04,2.8c0.52,0.71,1.13,1.16,1.77,1.16l1.7-0.01c0.65,0,1.25-0.45,1.76-1.17c0.51-0.72,0.9-1.72,1.02-2.81
					c0.1-1.09-0.1-2.09-0.58-2.8C710.54,360.59,709.81,360.15,708.99,360.15z"/>
			</g>
			<g>
				<path class="st7" d="M708.77,369.48l-1.61,0c-0.61,0-1.14,0.45-1.45,1.17c-0.31,0.72-0.39,1.71-0.22,2.81
					c0.16,1.09,0.51,2.09,0.88,2.8c0.37,0.71,0.75,1.16,1.12,1.16l0.99,0c0.37,0,0.74-0.45,1.11-1.17c0.36-0.72,0.7-1.71,0.86-2.81
					c0.16-1.1,0.07-2.09-0.24-2.8C709.92,369.91,709.39,369.47,708.77,369.48z"/>
			</g>
			<g>
				<path class="st7" d="M718.81,356.78l-1.97-0.23c-0.75-0.09-1.46,0.21-1.96,0.76c-0.51,0.55-0.79,1.36-0.81,2.29
					c-0.02,0.93,0.2,1.81,0.57,2.48c0.36,0.68,0.86,1.14,1.45,1.24l1.54,0.26c0.59,0.1,1.21-0.19,1.78-0.74
					c0.56-0.55,1.08-1.36,1.33-2.31c0.22-0.95,0.14-1.84-0.22-2.52C720.18,357.33,719.56,356.87,718.81,356.78z"/>
			</g>
			<g>
				<path class="st7" d="M716.72,308.06c-0.8,0.09-1.5,0.56-2.01,1.23c-0.51,0.67-0.83,1.55-0.81,2.48
					c0.06,1.85,1.56,3.23,3.36,3.09l2.36-0.19c0.89-0.07,1.68-0.53,2.18-1.2c0.49-0.68,0.7-1.57,0.53-2.53
					c-0.17-0.95-0.66-1.79-1.3-2.35c-0.64-0.57-1.42-0.86-2.22-0.77L716.72,308.06z"/>
			</g>
			<g>
				<path class="st7" d="M706.57,301.9l2.21-0.01c0.85-0.01,1.59-0.45,2.08-1.17c0.48-0.72,0.71-1.72,0.6-2.81
					c-0.12-1.09-0.53-2.09-1.06-2.8c-0.54-0.71-1.18-1.16-1.86-1.15l-1.79,0.01c-0.68,0-1.33,0.45-1.85,1.17
					c-0.53,0.72-0.93,1.71-1.04,2.81c-0.1,1.1,0.14,2.09,0.63,2.81C704.97,301.46,705.72,301.9,706.57,301.9z"/>
			</g>
			<g>
				<path class="st7" d="M706.78,292.57l1.71-0.01c0.65-0.01,1.22-0.45,1.56-1.17c0.34-0.72,0.44-1.71,0.29-2.81
					c-0.16-1.09-0.52-2.08-0.91-2.8c-0.4-0.72-0.83-1.16-1.25-1.16l-1.13,0.01c-0.43,0-0.85,0.45-1.24,1.16
					c-0.39,0.72-0.74,1.72-0.89,2.81c-0.15,1.1-0.04,2.09,0.31,2.81C705.55,292.13,706.12,292.57,706.78,292.57z"/>
			</g>
			<g>
				<path class="st7" d="M717.41,299.56l-1.63,0.28c-0.63,0.11-1.13,0.58-1.51,1.25c-0.4,0.69-0.65,1.57-0.62,2.5
					c0.03,0.93,0.36,1.73,0.9,2.27c0.53,0.54,1.27,0.83,2.05,0.73l2.03-0.26c0.77-0.1,1.4-0.56,1.77-1.25
					c0.36-0.68,0.45-1.58,0.21-2.53C720.11,300.69,718.64,299.35,717.41,299.56z"/>
			</g>
			<g>
				<path class="st7" d="M714.49,291.93c-0.39,0.09-0.68,0.55-0.89,1.23c-0.22,0.68-0.32,1.55-0.3,2.5c0.03,0.94,0.28,1.74,0.7,2.29
					c0.42,0.54,1,0.83,1.6,0.72l1.55-0.28c0.6-0.1,1.05-0.58,1.23-1.25c0.19-0.68,0.14-1.56-0.18-2.48c-0.3-0.92-0.84-1.7-1.33-2.24
					c-0.51-0.53-0.97-0.82-1.36-0.73L714.49,291.93z"/>
			</g>
			<g>
				<path class="st7" d="M691.57,183.71c-65.95,0-119.6,53.65-119.6,119.61v119.56c0,65.95,53.66,119.61,119.61,119.61
					c65.95,0,119.6-53.66,119.6-119.61V303.32C811.18,237.37,757.52,183.71,691.57,183.71z M577.71,422.88v-72.75h10.12v73.38
					c0,21.34,6.51,41.77,18.81,59.11l-8.1,5.69C585.47,469.78,577.71,447.24,577.71,422.88z M617.64,474.88l-9.26,6.51
					c-12.05-16.98-18.43-36.99-18.43-57.89v-73.38h10.18v71.17C600.13,441.32,606.68,459.8,617.64,474.88z M689.43,286.65
					l-11.26,11.24v-22.25C682.37,278.6,686.14,282.3,689.43,286.65z M678.17,269.03v-15.27c4.14,0.49,8.34,0.8,12.61,0.8
					c4.82,0,9.56-0.35,14.22-0.97v14.89c-5.04,2.96-9.64,6.93-13.72,11.77C687.41,275.75,683.03,271.93,678.17,269.03z
					 M692.58,291.18c2.03,3.26,3.78,6.78,5.27,10.51l-19.68,19.7v-15.83L692.58,291.18z M699.85,307.37
					c1.28,4.16,2.29,8.48,2.87,12.98l-24.55,24.56v-15.83L699.85,307.37z M703.28,327.48c0.05,1.06,0.19,2.11,0.19,3.18
					c0.02,4.68-0.47,9.22-1.2,13.67l-24.09,24.1v-15.83L703.28,327.48z M699.96,354.32c-4.12,13.55-11.74,24.91-21.79,31.93v-10.14
					L699.96,354.32z M704.73,357.33c0.6,0.65,1.29,1.14,2.08,1.13l2.21-0.01c1.67-0.01,3.19-1.79,3.36-3.99
					c0.16-2.19-1.3-3.96-3.24-3.96l-2.49,0.01c0.11-0.46,0.23-0.92,0.33-1.39l2.17-0.01c1.94-0.01,3.61-1.79,3.71-3.98
					c0.09-2.2-1.56-3.97-3.65-3.96l-0.94,0c0.05-0.46,0.1-0.92,0.15-1.38l0.8-0.01c2.09-0.01,3.84-1.8,3.87-3.99
					c0.03-2.19-1.72-3.96-3.87-3.95h-0.33c0-0.41,0.04-0.82,0.04-1.23c0-0.16-0.02-0.31-0.02-0.46l0.3,0
					c2.15-0.01,3.89-1.79,3.85-3.99c-0.04-2.19-1.8-3.96-3.91-3.95l-0.72,0c-0.05-0.46-0.11-0.92-0.16-1.38l0.87-0.01
					c2.11-0.01,3.77-1.79,3.67-3.99c-0.1-2.19-1.81-3.96-3.78-3.95l-2.06,0.01c-0.1-0.46-0.17-0.93-0.28-1.39l2.32-0.01
					c1.97-0.01,3.45-1.79,3.28-3.99c-0.08-1.09-0.52-2.08-1.15-2.8c-0.63-0.72-1.44-1.16-2.31-1.15l-2.28,0.01
					c-0.71,0.01-1.35,0.36-1.9,0.86c-2.42-7.28-5.78-13.98-9.96-19.79c3.82-4.71,8.14-8.55,12.87-11.37
					c17.19,10.02,28.34,32.43,28.45,57.24c0.11,24.8-10.85,47.31-27.95,57.48c-4.74-2.77-9.08-6.55-12.93-11.21
					C699.16,371.07,702.39,364.46,704.73,357.33z M690.78,248.81c-18.32,0-35.46-4.94-50.37-13.37
					c14.3-10.7,31.97-17.12,51.16-17.12c18.89,0,36.31,6.22,50.49,16.61C726.93,243.68,709.47,248.81,690.78,248.81z M672.37,252.9
					v15.78c-18.8,11.11-30.87,35.49-30.75,62.25c0.12,26.89,12.5,51.29,31.54,62.15c0.07,0.04,1.64,0.98,2.39,0.98
					c0.07,0,0.13-0.01,0.18-0.02c1.04-0.32,2.12-0.94,2.17-0.96c5.17-3.01,9.77-7.08,13.82-11.87c4.17,4.86,8.86,8.83,13.97,11.74
					c0.02,0.01,1.64,0.97,2.39,0.97c0.06,0,0.12-0.01,0.17-0.02c1.04-0.32,2.12-0.94,2.17-0.96c18.96-11.03,31.14-35.54,31.02-62.43
					c-0.12-26.46-12.15-50.44-30.68-61.55v-16.33c13.01-2.47,25.22-7.22,36.19-13.88c18.51,15.73,30.31,39.14,30.31,65.28V421.3
					c0,4.49-0.45,8.86-1.12,13.16c-22.13-20.3-51.48-32.84-83.81-32.84c-32.97,0-62.89,13-85.16,34.02
					c-0.79-4.68-1.3-9.45-1.3-14.35V304.03c0-25.85,11.55-49.01,29.71-64.73C646.74,245.91,659.16,250.59,672.37,252.9z
					 M648.37,344.41c-0.76-4.39-1.28-8.88-1.3-13.5c-0.01-1.17,0.13-2.29,0.18-3.45l25.13,25.13v15.83L648.37,344.41z M672.37,376.1
					v9.83c-9.88-6.97-17.42-18.12-21.59-31.42L672.37,376.1z M647.77,320.3c0.57-4.51,1.54-8.87,2.81-13.04l21.79,21.81v15.83
					L647.77,320.3z M652.57,301.57c1.48-3.74,3.21-7.28,5.23-10.55l14.58,14.54v15.82L652.57,301.57z M660.95,286.48
					c3.32-4.41,7.15-8.18,11.42-11.17v22.56L660.95,286.48z M692.23,491.1c-10.45,0-19.77,4.69-26.14,12.02
					c-3.01-0.94-5.92-2.08-8.77-3.33c7.97-10.64,20.6-17.6,34.89-17.6c14.09,0,26.57,6.76,34.56,17.14
					c-2.83,1.28-5.73,2.44-8.72,3.41C711.69,495.64,702.5,491.1,692.23,491.1z M711.68,504.51c-6.46,1.56-13.17,2.48-20.11,2.48
					c-6.56,0-12.92-0.81-19.07-2.21c5.17-4.88,12.06-7.93,19.72-7.93C699.74,496.85,706.54,499.78,711.68,504.51z M692.21,476.45
					c-16.56,0-31.15,8.27-40.12,20.82c-2.59-1.35-5.11-2.82-7.54-4.42c10.53-15.18,27.96-25.22,47.79-25.22
					c19.53,0,36.74,9.74,47.32,24.54c-2.46,1.68-5.02,3.22-7.66,4.64C723.01,484.52,708.57,476.45,692.21,476.45z M692.34,461.89
					c-21.74,0-40.87,10.99-52.45,27.6c-2.47-1.87-4.83-3.86-7.08-5.98c13.29-18.6,34.97-30.82,59.52-30.82
					c24.18,0,45.57,11.86,58.91,29.98c-2.21,2.15-4.56,4.16-6.99,6.07C732.64,472.54,713.75,461.89,692.34,461.89z M692.34,446.94
					c-26.12,0-49.22,12.83-63.6,32.43c-2.15-2.33-4.17-4.77-6.06-7.33c16.16-20.86,41.3-34.43,69.66-34.43
					c27.91,0,52.68,13.15,68.87,33.44c-1.85,2.59-3.86,5.05-5.98,7.41C740.8,459.39,718.05,446.94,692.34,446.94z M692.34,431.87
					c-29.56,0-55.82,13.83-73.07,35.23c-1.74-2.74-3.32-5.6-4.75-8.54c18.92-21.82,46.74-35.72,77.82-35.72
					c30.54,0,57.91,13.46,76.8,34.64c-1.38,2.94-2.92,5.79-4.61,8.54C747.27,445.25,721.4,431.87,692.34,431.87z M611.99,452.89
					c-1.36-3.41-2.47-6.92-3.38-10.53c21.47-21.52,51-35,83.73-35c32.11,0,61.15,12.96,82.51,33.77c-0.87,3.63-1.96,7.16-3.28,10.6
					c-19.87-21.21-47.95-34.64-79.24-34.64C660.48,417.09,631.91,430.99,611.99,452.89z M783.01,421.3v-71.17h9.93v73.38
					c0,20.76-6.3,40.64-18.2,57.54l-9.08-6.38C776.53,459.63,783.01,441.22,783.01,421.3z M691.57,536.74L691.57,536.74
					c-36.36,0-68.71-17.19-89.57-43.8l19.11-13.43c16.79,20.28,42.14,33.23,70.46,33.23c28.42,0,53.85-13.04,70.63-33.44l19.1,13.43
					C760.45,519.45,728.03,536.74,691.57,536.74z M805.43,422.88c0,24.26-7.69,46.72-20.67,65.21l-8.28-5.82
					c12.15-17.27,18.59-37.57,18.59-58.76v-73.38h10.36V422.88z M805.43,344.35h-22.42v-40.33c0-50.42-41.02-91.44-91.44-91.44
					c-50.42,0-91.44,41.02-91.44,91.44v40.33h-22.42v-41.03c0-62.78,51.08-113.86,113.86-113.86c62.78,0,113.86,51.08,113.86,113.86
					V344.35z"/>
			</g>
			<g>
				<path class="st7" d="M622.73,498.32c-0.46,0.43-0.95,0.74-1.48,0.96c-0.53,0.22-1.07,0.32-1.61,0.32
					c-0.55-0.01-1.08-0.14-1.61-0.4c-0.53-0.26-1.03-0.64-1.51-1.15c-0.48-0.52-0.82-1.04-1.04-1.59c-0.22-0.55-0.31-1.09-0.28-1.64
					c0.03-0.55,0.18-1.07,0.43-1.59c0.25-0.51,0.61-0.98,1.07-1.4c0.46-0.43,0.95-0.75,1.48-0.97c0.53-0.22,1.07-0.32,1.61-0.31
					c0.55,0.01,1.09,0.13,1.63,0.38c0.54,0.25,1.05,0.62,1.53,1.13c0.48,0.52,0.82,1.05,1.02,1.61c0.2,0.56,0.29,1.11,0.26,1.65
					c-0.03,0.55-0.17,1.08-0.43,1.59C623.54,497.42,623.18,497.89,622.73,498.32z M621.81,497.33c0.76-0.71,1.2-1.46,1.3-2.24
					c0.1-0.79-0.2-1.57-0.91-2.33c-0.72-0.77-1.47-1.13-2.26-1.08c-0.79,0.05-1.57,0.43-2.33,1.13c-0.76,0.71-1.19,1.46-1.3,2.24
					c-0.11,0.79,0.2,1.57,0.92,2.33c0.71,0.77,1.47,1.13,2.26,1.08C620.27,498.42,621.05,498.04,621.81,497.33z"/>
				<path class="st7" d="M625.75,497.91c0.2-0.22,0.42-0.38,0.68-0.5c0.25-0.12,0.52-0.19,0.79-0.2c0.27-0.02,0.54,0.02,0.8,0.11
					c0.26,0.09,0.5,0.23,0.71,0.42c0.21,0.19,0.38,0.41,0.5,0.67c0.12,0.25,0.19,0.52,0.2,0.79c0.01,0.27-0.02,0.54-0.12,0.8
					c-0.09,0.26-0.23,0.5-0.43,0.73c-0.2,0.22-0.42,0.39-0.67,0.5c-0.26,0.12-0.52,0.19-0.79,0.2c-0.27,0.01-0.54-0.02-0.8-0.11
					c-0.26-0.1-0.5-0.23-0.71-0.43c-0.21-0.19-0.38-0.41-0.49-0.67c-0.12-0.25-0.18-0.52-0.2-0.79c-0.02-0.27,0.02-0.53,0.11-0.8
					C625.4,498.38,625.55,498.13,625.75,497.91z M626.36,498.46c-0.11,0.12-0.2,0.26-0.26,0.43c-0.06,0.16-0.09,0.33-0.09,0.49
					c0.01,0.17,0.04,0.33,0.1,0.49c0.06,0.16,0.17,0.31,0.32,0.44c0.15,0.13,0.3,0.22,0.47,0.26c0.17,0.05,0.33,0.06,0.5,0.05
					c0.17-0.01,0.33-0.06,0.48-0.14c0.15-0.08,0.28-0.18,0.4-0.31c0.11-0.12,0.19-0.26,0.26-0.43c0.07-0.16,0.1-0.32,0.09-0.49
					c0-0.17-0.04-0.33-0.1-0.49c-0.06-0.16-0.16-0.31-0.31-0.44c-0.15-0.13-0.3-0.22-0.47-0.26c-0.16-0.05-0.33-0.07-0.5-0.05
					c-0.16,0.01-0.33,0.06-0.48,0.14C626.6,498.24,626.46,498.34,626.36,498.46z"/>
				<path class="st7" d="M630.29,510.03c0.12,0.09,0.23,0.13,0.31,0.1c0.08-0.02,0.17-0.08,0.24-0.18l0.67-0.89l-3.8-2.84
					c-0.13-0.1-0.24-0.14-0.32-0.13c-0.08,0.02-0.16,0.08-0.25,0.2l-0.16-0.12l0.86-1.16l6.73-1.57c0.04-0.01,0.1-0.01,0.16-0.02
					c0.05-0.01,0.1-0.04,0.13-0.08c0.03-0.04,0.03-0.08,0.01-0.13c-0.02-0.05-0.06-0.1-0.11-0.14l0.11-0.14l2.21,1.66l-0.12,0.16
					c-0.12-0.09-0.22-0.13-0.31-0.1c-0.09,0.02-0.16,0.08-0.24,0.18l-3.15,4.21l0.6,0.45c0.13,0.1,0.24,0.14,0.32,0.13
					c0.08-0.02,0.16-0.08,0.25-0.2l0.16,0.12l-1.12,1.5l-0.16-0.12c0.08-0.11,0.12-0.21,0.11-0.29c-0.01-0.08-0.08-0.17-0.21-0.27
					l-0.61-0.46l-0.67,0.89c-0.07,0.1-0.11,0.19-0.11,0.28c0,0.09,0.06,0.18,0.19,0.27l-0.12,0.16l-1.73-1.3L630.29,510.03z
					 M634.98,504.43l-6.05,1.34l3.23,2.42L634.98,504.43z"/>
				<path class="st7" d="M638.09,515.24c0.13,0.08,0.24,0.1,0.32,0.07c0.08-0.04,0.16-0.1,0.22-0.2l3.13-5.33
					c-0.07-0.04-0.14-0.08-0.23-0.12c-0.09-0.04-0.18-0.07-0.27-0.08c-0.09-0.01-0.17-0.01-0.25,0.02c-0.08,0.03-0.15,0.08-0.2,0.17
					l-0.17-0.1l0.85-1.45l0.17,0.1c-0.11,0.18-0.1,0.31,0.02,0.38c0.11,0.07,0.27,0.11,0.48,0.13c0.21,0.02,0.34-0.04,0.42-0.16
					c0.11-0.18,0.05-0.34-0.17-0.46l0.1-0.17l1.67,0.98l-0.1,0.17c-0.11-0.07-0.2-0.08-0.27-0.05c-0.07,0.03-0.14,0.11-0.22,0.24
					l-3.77,6.41c-0.06,0.1-0.09,0.2-0.08,0.29c0.01,0.09,0.08,0.17,0.22,0.25l-0.1,0.17l-1.87-1.1L638.09,515.24z"/>
				<path class="st7" d="M648.41,511.15c-0.37-0.19-0.45-0.5-0.24-0.95c0.08-0.17,0.31-0.49,0.68-0.95l0.9-1.12
					c0.25-0.34,0.53-0.44,0.83-0.29c0.17,0.09,0.28,0.22,0.32,0.4c0.04,0.19,0.02,0.37-0.07,0.54c-0.19,0.41-0.68,1.07-1.47,1.99
					C649.02,511.17,648.7,511.29,648.41,511.15z"/>
				<path class="st7" d="M656.86,519.76c-0.24,0.58-0.56,1.07-0.95,1.49c-0.39,0.41-0.84,0.73-1.34,0.95
					c-0.5,0.22-1.04,0.32-1.63,0.31c-0.59-0.01-1.21-0.16-1.85-0.43c-0.65-0.27-1.18-0.61-1.6-1.02c-0.42-0.41-0.73-0.86-0.93-1.37
					c-0.19-0.51-0.28-1.05-0.26-1.63c0.02-0.57,0.15-1.15,0.39-1.72c0.24-0.58,0.56-1.07,0.95-1.49c0.39-0.42,0.84-0.73,1.34-0.95
					c0.5-0.22,1.05-0.32,1.64-0.32c0.59,0,1.21,0.13,1.86,0.4c0.64,0.27,1.18,0.62,1.59,1.04c0.42,0.42,0.72,0.89,0.92,1.4
					c0.2,0.51,0.29,1.05,0.26,1.63C657.23,518.61,657.1,519.19,656.86,519.76z M655.62,519.24c0.4-0.96,0.49-1.82,0.26-2.58
					c-0.23-0.76-0.82-1.34-1.79-1.75c-0.97-0.41-1.81-0.43-2.51-0.05c-0.7,0.37-1.25,1.04-1.65,2c-0.4,0.96-0.49,1.82-0.26,2.58
					c0.23,0.76,0.82,1.34,1.8,1.75c0.97,0.41,1.8,0.43,2.5,0.05C654.66,520.86,655.22,520.2,655.62,519.24z"/>
				<path class="st7" d="M666.71,522.86c-0.18,0.59-0.45,1.12-0.8,1.57c-0.35,0.46-0.76,0.82-1.24,1.08
					c-0.48,0.26-1.01,0.42-1.6,0.46c-0.58,0.04-1.21-0.04-1.88-0.25c-0.67-0.2-1.23-0.49-1.69-0.86c-0.46-0.36-0.81-0.79-1.06-1.28
					c-0.24-0.49-0.38-1.01-0.42-1.59c-0.04-0.57,0.04-1.16,0.22-1.75c0.18-0.59,0.45-1.12,0.8-1.57c0.35-0.46,0.77-0.82,1.24-1.08
					c0.48-0.26,1.01-0.43,1.6-0.49c0.59-0.06,1.22,0.01,1.89,0.22c0.67,0.2,1.23,0.5,1.69,0.88c0.46,0.38,0.81,0.82,1.05,1.3
					c0.24,0.49,0.38,1.02,0.42,1.59C666.97,521.68,666.89,522.26,666.71,522.86z M665.42,522.47c0.31-1,0.31-1.86,0.01-2.59
					c-0.3-0.74-0.95-1.26-1.96-1.57c-1-0.31-1.84-0.25-2.5,0.19c-0.66,0.44-1.15,1.15-1.45,2.15c-0.31,1-0.31,1.86-0.01,2.59
					c0.3,0.73,0.95,1.25,1.96,1.57c1,0.31,1.84,0.25,2.5-0.19C664.63,524.18,665.12,523.46,665.42,522.47z"/>
				<path class="st7" d="M669.46,518.89c-0.4-0.09-0.55-0.38-0.46-0.86c0.04-0.19,0.19-0.55,0.44-1.08l0.62-1.3
					c0.17-0.4,0.41-0.56,0.74-0.48c0.19,0.04,0.32,0.15,0.41,0.32c0.08,0.17,0.1,0.35,0.06,0.54c-0.09,0.44-0.41,1.2-0.97,2.27
					C670.06,518.77,669.78,518.97,669.46,518.89z M672.12,519.52c-0.4-0.1-0.55-0.38-0.46-0.86c0.04-0.19,0.19-0.55,0.44-1.09
					l0.62-1.3c0.17-0.4,0.41-0.55,0.74-0.48c0.19,0.05,0.32,0.15,0.4,0.32c0.09,0.17,0.1,0.35,0.06,0.54
					c-0.09,0.44-0.41,1.2-0.97,2.28C672.72,519.4,672.44,519.59,672.12,519.52z"/>
				<path class="st7" d="M674.77,526.4c-0.04,0.07-0.07,0.14-0.08,0.2c-0.02,0.16,0.04,0.32,0.21,0.52c0.16,0.2,0.39,0.38,0.67,0.57
					c0.28,0.19,0.62,0.35,0.99,0.5c0.37,0.15,0.76,0.26,1.16,0.32c1.03,0.17,1.79,0.14,2.3-0.09c0.51-0.22,0.8-0.58,0.88-1.05
					c0.04-0.23,0.01-0.43-0.08-0.6c-0.09-0.17-0.23-0.31-0.41-0.42c-0.19-0.11-0.41-0.21-0.67-0.29c-0.26-0.07-0.54-0.14-0.84-0.19
					c-0.5-0.08-1.02-0.17-1.58-0.26c-0.55-0.1-1.05-0.25-1.5-0.46c-0.44-0.21-0.79-0.5-1.04-0.86c-0.25-0.37-0.33-0.85-0.22-1.47
					c0.06-0.39,0.23-0.73,0.5-1.01c0.27-0.28,0.61-0.51,1.02-0.68c0.41-0.16,0.88-0.27,1.41-0.32c0.53-0.05,1.09-0.02,1.69,0.08
					c0.46,0.07,0.86,0.17,1.19,0.29c0.33,0.12,0.61,0.23,0.85,0.35c0.24,0.11,0.43,0.22,0.58,0.31c0.15,0.09,0.28,0.14,0.39,0.16
					c0.12,0.02,0.21,0.01,0.27-0.02c0.06-0.04,0.12-0.07,0.18-0.12l0.18,0.11l-1.2,1.72l-0.16-0.14c0.02-0.03,0.03-0.1,0.05-0.21
					c0.01-0.08-0.04-0.18-0.15-0.31c-0.11-0.13-0.28-0.26-0.5-0.41c-0.22-0.14-0.49-0.27-0.81-0.4c-0.32-0.13-0.67-0.22-1.06-0.28
					c-0.87-0.14-1.59-0.11-2.15,0.08c-0.56,0.19-0.88,0.52-0.95,0.97c-0.03,0.21-0.01,0.38,0.09,0.52c0.09,0.14,0.23,0.27,0.42,0.37
					c0.19,0.1,0.41,0.19,0.67,0.25c0.26,0.07,0.54,0.12,0.85,0.17c0.51,0.08,1.03,0.18,1.58,0.28c0.55,0.11,1.04,0.28,1.48,0.5
					c0.44,0.23,0.78,0.53,1.03,0.92c0.25,0.38,0.32,0.9,0.21,1.55c-0.06,0.34-0.2,0.66-0.43,0.95c-0.23,0.29-0.54,0.53-0.94,0.72
					c-0.4,0.19-0.87,0.31-1.42,0.37c-0.55,0.05-1.16,0.02-1.86-0.08c-0.58-0.1-1.08-0.23-1.49-0.39c-0.41-0.16-0.76-0.32-1.04-0.5
					c-0.28-0.17-0.51-0.33-0.69-0.46c-0.18-0.14-0.32-0.22-0.44-0.23c-0.11-0.02-0.23,0.03-0.37,0.14l-0.15-0.12l1.18-1.72
					L674.77,526.4z"/>
				<path class="st7" d="M691.88,526.46c-0.42-0.09-0.76-0.28-1.01-0.56c-0.25-0.28-0.39-0.64-0.41-1.06
					c-0.03-0.39,0.05-0.74,0.21-1.06c0.17-0.31,0.41-0.58,0.72-0.82c0.32-0.23,0.69-0.41,1.13-0.55c0.44-0.14,0.92-0.22,1.45-0.26
					c0.52-0.03,1.01-0.01,1.47,0.07c0.46,0.08,0.85,0.21,1.19,0.4c0.34,0.19,0.61,0.43,0.82,0.71c0.2,0.29,0.32,0.63,0.35,1.02
					c0.03,0.43-0.06,0.8-0.27,1.1c-0.21,0.31-0.52,0.54-0.92,0.69v0.01c0.46,0.09,0.86,0.32,1.2,0.67c0.33,0.36,0.51,0.78,0.54,1.27
					c0.03,0.44-0.05,0.83-0.22,1.17c-0.18,0.34-0.43,0.62-0.77,0.86c-0.34,0.23-0.74,0.41-1.22,0.54c-0.48,0.13-1.01,0.2-1.59,0.25
					c-0.58,0.04-1.12,0.02-1.61-0.04c-0.49-0.06-0.92-0.19-1.28-0.38c-0.36-0.19-0.65-0.44-0.87-0.76
					c-0.22-0.32-0.34-0.69-0.37-1.13c-0.03-0.49,0.09-0.94,0.37-1.33c0.28-0.4,0.65-0.67,1.1-0.82L691.88,526.46z M694.28,526.81
					c-0.36,0.02-0.7,0.08-1.03,0.17c-0.32,0.09-0.61,0.21-0.85,0.36c-0.24,0.15-0.43,0.32-0.56,0.53c-0.14,0.21-0.2,0.44-0.18,0.69
					c0.02,0.25,0.11,0.47,0.27,0.65c0.16,0.19,0.37,0.34,0.63,0.46c0.26,0.11,0.56,0.2,0.89,0.25c0.33,0.05,0.68,0.06,1.04,0.04
					c0.36-0.02,0.7-0.08,1.02-0.17c0.32-0.09,0.61-0.21,0.85-0.36c0.24-0.14,0.43-0.32,0.57-0.53c0.13-0.2,0.19-0.44,0.18-0.69
					c-0.02-0.25-0.11-0.47-0.26-0.65c-0.16-0.19-0.37-0.34-0.63-0.46c-0.26-0.11-0.56-0.19-0.89-0.25
					C694.98,526.8,694.63,526.78,694.28,526.81z M694.21,525.8c0.31-0.02,0.62-0.07,0.9-0.14c0.29-0.07,0.54-0.16,0.76-0.28
					c0.22-0.12,0.39-0.26,0.52-0.44c0.13-0.17,0.18-0.38,0.17-0.62c-0.02-0.24-0.1-0.44-0.25-0.59c-0.15-0.16-0.34-0.28-0.57-0.37
					c-0.23-0.09-0.49-0.15-0.79-0.18c-0.29-0.03-0.6-0.04-0.91-0.01c-0.31,0.02-0.61,0.06-0.9,0.13c-0.29,0.07-0.55,0.16-0.77,0.28
					c-0.22,0.12-0.39,0.26-0.51,0.44c-0.13,0.17-0.18,0.38-0.17,0.62c0.01,0.24,0.1,0.44,0.24,0.59c0.15,0.16,0.34,0.28,0.57,0.37
					c0.23,0.09,0.49,0.15,0.79,0.18C693.6,525.81,693.9,525.81,694.21,525.8z"/>
				<path class="st7" d="M708.8,524.66c0.1,0.61,0.1,1.2-0.02,1.76c-0.11,0.56-0.32,1.07-0.63,1.52c-0.31,0.45-0.71,0.83-1.22,1.13
					c-0.5,0.3-1.1,0.5-1.79,0.62c-0.69,0.11-1.33,0.11-1.9-0.01c-0.57-0.12-1.08-0.35-1.51-0.67c-0.44-0.33-0.8-0.74-1.09-1.24
					c-0.29-0.5-0.48-1.06-0.58-1.67c-0.1-0.62-0.1-1.21,0.02-1.77c0.11-0.56,0.32-1.07,0.63-1.52c0.31-0.45,0.71-0.83,1.22-1.15
					c0.5-0.32,1.1-0.53,1.79-0.65c0.69-0.11,1.33-0.1,1.9,0.04c0.58,0.14,1.08,0.37,1.52,0.7c0.43,0.32,0.8,0.74,1.08,1.24
					C708.5,523.48,708.7,524.04,708.8,524.66z M707.47,524.87c-0.17-1.03-0.55-1.8-1.15-2.32c-0.6-0.52-1.41-0.7-2.45-0.53
					c-1.04,0.17-1.75,0.59-2.15,1.28c-0.4,0.68-0.51,1.54-0.34,2.57c0.17,1.03,0.55,1.8,1.15,2.33c0.6,0.52,1.41,0.7,2.45,0.53
					c1.04-0.17,1.75-0.6,2.15-1.29C707.52,526.75,707.64,525.9,707.47,524.87z"/>
				<path class="st7" d="M710.2,521.94c-0.07-0.29-0.08-0.57-0.03-0.85c0.05-0.27,0.14-0.53,0.28-0.76
					c0.14-0.23,0.33-0.43,0.55-0.59c0.22-0.17,0.47-0.28,0.75-0.35c0.28-0.07,0.55-0.08,0.83-0.03c0.28,0.05,0.53,0.14,0.76,0.28
					c0.23,0.14,0.43,0.32,0.6,0.55c0.17,0.22,0.28,0.48,0.35,0.77c0.07,0.29,0.08,0.57,0.03,0.85c-0.05,0.28-0.14,0.53-0.29,0.76
					c-0.14,0.23-0.32,0.43-0.55,0.59c-0.23,0.17-0.48,0.28-0.75,0.35c-0.28,0.07-0.55,0.08-0.83,0.03
					c-0.28-0.04-0.53-0.14-0.76-0.28c-0.23-0.14-0.43-0.32-0.6-0.55C710.38,522.48,710.27,522.23,710.2,521.94z M710.99,521.75
					c0.04,0.16,0.1,0.31,0.2,0.46c0.1,0.14,0.22,0.26,0.36,0.35c0.14,0.09,0.29,0.16,0.46,0.19c0.17,0.04,0.34,0.04,0.54-0.01
					c0.19-0.05,0.35-0.13,0.49-0.23c0.13-0.11,0.24-0.24,0.32-0.38c0.08-0.14,0.14-0.3,0.16-0.47c0.02-0.17,0.01-0.34-0.03-0.5
					c-0.04-0.16-0.11-0.31-0.2-0.46c-0.1-0.14-0.21-0.26-0.35-0.35c-0.14-0.09-0.29-0.16-0.46-0.19c-0.17-0.04-0.35-0.04-0.54,0.01
					c-0.19,0.05-0.35,0.13-0.49,0.23c-0.13,0.11-0.24,0.24-0.32,0.38c-0.08,0.14-0.14,0.3-0.16,0.47
					C710.95,521.42,710.96,521.59,710.99,521.75z"/>
				<path class="st7" d="M725.02,520.16c0.19,0.59,0.26,1.18,0.23,1.75c-0.03,0.57-0.17,1.1-0.41,1.59
					c-0.24,0.49-0.59,0.92-1.05,1.28c-0.46,0.37-1.02,0.66-1.69,0.87c-0.67,0.2-1.3,0.29-1.88,0.25c-0.58-0.04-1.12-0.19-1.6-0.46
					c-0.48-0.26-0.89-0.62-1.25-1.07c-0.35-0.45-0.62-0.97-0.81-1.57c-0.19-0.6-0.26-1.18-0.23-1.75c0.03-0.58,0.17-1.1,0.41-1.6
					c0.24-0.49,0.59-0.92,1.04-1.31c0.45-0.38,1.01-0.68,1.68-0.89c0.67-0.21,1.3-0.29,1.89-0.23c0.59,0.05,1.13,0.22,1.6,0.47
					c0.48,0.26,0.89,0.62,1.25,1.07C724.57,519.04,724.84,519.56,725.02,520.16z M723.74,520.56c-0.31-0.99-0.8-1.7-1.46-2.14
					c-0.66-0.43-1.5-0.49-2.5-0.18c-1,0.31-1.65,0.84-1.95,1.57c-0.3,0.74-0.29,1.6,0.02,2.59c0.31,1,0.8,1.71,1.46,2.14
					c0.66,0.44,1.5,0.5,2.5,0.18c1-0.31,1.65-0.83,1.95-1.57C724.05,522.41,724.05,521.55,723.74,520.56z"/>
				<path class="st7" d="M732.14,514.95l-0.2-0.01c0.01-0.04,0.01-0.09,0-0.14c-0.01-0.06-0.01-0.1-0.02-0.11
					c-0.04-0.08-0.13-0.15-0.28-0.2c-0.15-0.06-0.34-0.09-0.55-0.1c-0.22-0.01-0.46,0.01-0.71,0.05c-0.25,0.04-0.5,0.11-0.75,0.21
					c-0.43,0.18-0.78,0.41-1.07,0.68c-0.29,0.28-0.5,0.59-0.64,0.92c-0.14,0.34-0.21,0.69-0.21,1.06c0,0.38,0.07,0.74,0.22,1.09
					c0.01,0.04,0.04,0.08,0.06,0.13c0.03,0.05,0.05,0.1,0.07,0.15l0.03-0.01c0.14-0.53,0.4-0.96,0.76-1.28
					c0.37-0.32,0.83-0.6,1.38-0.83c0.4-0.16,0.81-0.27,1.24-0.32c0.43-0.05,0.83-0.03,1.22,0.07c0.38,0.09,0.73,0.26,1.05,0.51
					c0.32,0.25,0.57,0.59,0.75,1.04c0.37,0.88,0.35,1.67-0.06,2.39c-0.4,0.71-1.12,1.28-2.17,1.72c-0.61,0.25-1.18,0.38-1.72,0.4
					c-0.54,0.02-1.03-0.08-1.48-0.3c-0.45-0.22-0.85-0.52-1.21-0.92c-0.36-0.41-0.65-0.89-0.88-1.44c-0.27-0.65-0.42-1.27-0.46-1.87
					c-0.04-0.61,0.04-1.16,0.22-1.69c0.19-0.52,0.48-0.99,0.89-1.4c0.4-0.41,0.91-0.74,1.53-1c0.35-0.15,0.68-0.25,0.97-0.31
					c0.3-0.06,0.56-0.1,0.79-0.11c0.23-0.01,0.43-0.02,0.59-0.02c0.16,0,0.27-0.01,0.33-0.04c0.08-0.04,0.14-0.08,0.16-0.15
					c0.03-0.06,0.04-0.12,0.04-0.17l0.23,0.05L732.14,514.95z M733.38,518.4c-0.14-0.35-0.33-0.62-0.55-0.8
					c-0.22-0.18-0.47-0.3-0.73-0.35c-0.27-0.06-0.55-0.06-0.85-0.01c-0.3,0.05-0.59,0.14-0.89,0.26c-0.28,0.11-0.54,0.27-0.78,0.47
					c-0.24,0.19-0.44,0.41-0.59,0.65c-0.16,0.24-0.25,0.5-0.29,0.77c-0.04,0.28,0,0.56,0.12,0.84c0.15,0.37,0.35,0.64,0.6,0.82
					c0.24,0.17,0.52,0.29,0.82,0.33c0.3,0.05,0.62,0.04,0.95-0.03c0.33-0.07,0.65-0.16,0.96-0.29c0.28-0.11,0.53-0.26,0.74-0.44
					c0.21-0.17,0.38-0.38,0.5-0.61c0.12-0.23,0.18-0.47,0.19-0.74C733.57,519.01,733.51,518.71,733.38,518.4z"/>
				<path class="st7" d="M734.25,511.4c-0.37,0.18-0.67,0.05-0.9-0.38c-0.09-0.17-0.2-0.55-0.34-1.12l-0.34-1.39
					c-0.12-0.41-0.03-0.7,0.27-0.84c0.17-0.08,0.34-0.08,0.52-0.01c0.17,0.08,0.3,0.2,0.39,0.38c0.21,0.4,0.43,1.19,0.69,2.38
					C734.64,510.93,734.55,511.26,734.25,511.4z"/>
				<path class="st7" d="M746.21,509.98c0.31,0.54,0.51,1.1,0.59,1.66c0.09,0.57,0.07,1.12-0.07,1.64
					c-0.13,0.53-0.38,1.03-0.76,1.48c-0.37,0.46-0.86,0.85-1.47,1.2c-0.61,0.35-1.2,0.56-1.78,0.65c-0.58,0.08-1.13,0.05-1.66-0.11
					c-0.53-0.16-1-0.41-1.45-0.78c-0.44-0.37-0.82-0.82-1.12-1.37c-0.31-0.54-0.51-1.09-0.6-1.66c-0.09-0.56-0.07-1.12,0.07-1.64
					c0.13-0.53,0.38-1.03,0.74-1.5c0.36-0.47,0.85-0.88,1.46-1.22c0.61-0.35,1.21-0.55,1.8-0.62c0.59-0.07,1.15-0.03,1.67,0.13
					c0.52,0.16,1,0.42,1.45,0.79C745.52,508.98,745.9,509.44,746.21,509.98z M745.04,510.64c-0.51-0.91-1.14-1.5-1.88-1.78
					c-0.74-0.29-1.57-0.17-2.48,0.35c-0.91,0.52-1.44,1.17-1.57,1.95c-0.14,0.78,0.06,1.63,0.57,2.53c0.51,0.9,1.14,1.49,1.88,1.78
					c0.74,0.28,1.57,0.16,2.48-0.35c0.91-0.52,1.44-1.17,1.57-1.96C745.74,512.39,745.55,511.55,745.04,510.64z"/>
				<path class="st7" d="M754.7,504c0.36,0.5,0.62,1.04,0.76,1.59c0.15,0.56,0.18,1.1,0.11,1.64c-0.08,0.54-0.28,1.06-0.6,1.55
					c-0.32,0.49-0.77,0.94-1.33,1.35c-0.57,0.41-1.14,0.68-1.71,0.83c-0.57,0.15-1.12,0.17-1.66,0.07c-0.54-0.1-1.04-0.31-1.52-0.62
					c-0.48-0.32-0.9-0.73-1.26-1.24c-0.36-0.5-0.62-1.04-0.76-1.59c-0.15-0.55-0.18-1.1-0.1-1.64c0.08-0.54,0.27-1.06,0.58-1.57
					s0.75-0.97,1.32-1.37c0.57-0.41,1.15-0.68,1.72-0.81c0.58-0.13,1.14-0.14,1.67-0.04c0.53,0.1,1.04,0.31,1.52,0.62
					C753.92,503.07,754.34,503.49,754.7,504z M753.61,504.78c-0.61-0.84-1.29-1.37-2.06-1.57c-0.77-0.2-1.58-0.01-2.43,0.61
					c-0.85,0.61-1.31,1.31-1.36,2.11c-0.05,0.79,0.22,1.61,0.83,2.46c0.61,0.85,1.29,1.37,2.06,1.57c0.76,0.21,1.58,0.01,2.43-0.61
					c0.85-0.61,1.31-1.31,1.36-2.11C754.49,506.45,754.21,505.62,753.61,504.78z"/>
				<path class="st7" d="M753.18,499.39c-0.32,0.27-0.64,0.22-0.97-0.14c-0.13-0.14-0.33-0.48-0.61-1l-0.68-1.27
					c-0.22-0.37-0.2-0.67,0.05-0.88c0.15-0.13,0.31-0.17,0.5-0.14c0.19,0.03,0.34,0.12,0.47,0.27c0.3,0.34,0.72,1.05,1.25,2.14
					C753.44,498.84,753.43,499.18,753.18,499.39z M755.26,497.63c-0.32,0.26-0.64,0.22-0.97-0.15c-0.13-0.14-0.33-0.47-0.61-1
					l-0.67-1.27c-0.22-0.37-0.2-0.67,0.05-0.88c0.15-0.13,0.31-0.17,0.5-0.14c0.19,0.04,0.34,0.13,0.47,0.28
					c0.3,0.34,0.72,1.05,1.26,2.14C755.52,497.08,755.51,497.42,755.26,497.63z"/>
				<path class="st7" d="M760.64,492.58c0.49-0.51,1.02-0.92,1.58-1.22c0.56-0.29,1.12-0.47,1.7-0.53c0.58-0.05,1.15,0.02,1.72,0.22
					c0.56,0.21,1.1,0.56,1.61,1.06c0.51,0.49,0.88,1.02,1.1,1.58c0.22,0.56,0.31,1.13,0.27,1.7c-0.04,0.58-0.21,1.15-0.49,1.7
					c-0.29,0.56-0.68,1.09-1.18,1.6c-0.5,0.51-1.02,0.92-1.57,1.22c-0.55,0.31-1.11,0.49-1.69,0.55c-0.58,0.06-1.15-0.01-1.71-0.22
					c-0.56-0.2-1.1-0.56-1.61-1.05c-0.51-0.5-0.88-1.03-1.1-1.58c-0.22-0.56-0.31-1.13-0.27-1.71c0.04-0.58,0.2-1.15,0.48-1.72
					C759.76,493.62,760.15,493.09,760.64,492.58z M761.44,493.35c-0.78,0.8-1.17,1.63-1.17,2.46c-0.01,0.85,0.36,1.63,1.1,2.34
					c0.73,0.71,1.52,1.06,2.37,1.03c0.84-0.03,1.65-0.44,2.43-1.25c0.78-0.8,1.17-1.63,1.18-2.46c0-0.85-0.36-1.62-1.1-2.34
					c-0.73-0.71-1.52-1.06-2.37-1.03C763.03,492.14,762.22,492.55,761.44,493.35z"/>
			</g>
		</g>
		<g>
			<path class="st7" d="M598.98,266.69c-0.1,0.04-0.16,0.11-0.2,0.21c-0.02,0.06,0.01,0.19,0.09,0.41c0.08,0.22,0.15,0.52,0.21,0.89
				c0.06,0.37,0.07,0.82,0.03,1.35c-0.04,0.53-0.18,1.14-0.42,1.84c-0.27,0.77-0.61,1.44-1.05,2.01c-0.43,0.57-0.93,1.01-1.48,1.33
				c-0.55,0.32-1.15,0.51-1.78,0.58c-0.63,0.07-1.27-0.01-1.92-0.23c-0.54-0.19-1.01-0.48-1.42-0.89c-0.41-0.4-0.72-0.9-0.94-1.47
				c-0.22-0.58-0.34-1.22-0.34-1.93c0-0.71,0.13-1.46,0.4-2.26c0.19-0.55,0.4-1.03,0.64-1.43c0.24-0.4,0.46-0.74,0.68-1.02
				c0.22-0.28,0.4-0.51,0.57-0.68c0.16-0.17,0.25-0.3,0.28-0.38c0.03-0.09,0.04-0.15,0.02-0.18c-0.02-0.03-0.04-0.07-0.07-0.12
				l0.19-0.15l1.35,1.61l-0.17,0.18c-0.03-0.07-0.09-0.12-0.18-0.15c-0.09-0.03-0.22,0.02-0.41,0.14c-0.19,0.12-0.39,0.3-0.61,0.55
				c-0.22,0.24-0.44,0.54-0.67,0.9c-0.22,0.35-0.41,0.75-0.56,1.19c-0.15,0.44-0.24,0.91-0.28,1.39c-0.03,0.49,0.02,0.95,0.15,1.38
				c0.13,0.43,0.36,0.83,0.68,1.19c0.32,0.36,0.75,0.63,1.3,0.82c0.48,0.16,0.95,0.2,1.42,0.11c0.47-0.09,0.92-0.27,1.33-0.55
				c0.42-0.28,0.78-0.63,1.11-1.05c0.32-0.42,0.57-0.89,0.75-1.4c0.14-0.4,0.21-0.79,0.22-1.19c0.01-0.4-0.01-0.76-0.08-1.09
				c-0.07-0.33-0.15-0.61-0.26-0.83c-0.11-0.22-0.21-0.35-0.32-0.39c-0.1-0.03-0.18-0.03-0.25,0.01l-0.05-0.26l1.95-0.7
				L598.98,266.69z"/>
			<path class="st7" d="M600.77,263.16c0.07,0.09,0.15,0.18,0.23,0.29c0.09,0.11,0.16,0.17,0.22,0.2c0.11,0.06,0.21-0.01,0.3-0.18
				l0.18,0.09l-0.95,1.93l-0.18-0.09c0.03-0.06,0.05-0.12,0.07-0.17c0.01-0.05,0.01-0.11-0.03-0.18c-0.03-0.07-0.08-0.15-0.15-0.25
				c-0.07-0.1-0.16-0.23-0.28-0.39l-4.71-5.83c-0.13-0.17-0.23-0.29-0.29-0.38c-0.07-0.08-0.12-0.14-0.17-0.16
				c-0.12-0.06-0.23,0-0.32,0.19l-0.18-0.09l1.12-2.29l0.18,0.09c-0.08,0.17-0.06,0.28,0.06,0.34c0.06,0.03,0.15,0.04,0.27,0.04
				c0.12-0.01,0.29-0.01,0.5-0.01l7.49-0.07c0.23-0.01,0.4-0.01,0.53-0.01c0.13,0,0.23-0.02,0.3-0.04c0.07-0.02,0.13-0.06,0.16-0.1
				c0.04-0.05,0.08-0.12,0.12-0.21l0.18,0.09l-1.07,2.18l-0.18-0.09c0.06-0.13,0.08-0.22,0.07-0.28c-0.01-0.06-0.06-0.11-0.13-0.14
				c-0.05-0.03-0.11-0.04-0.18-0.04c-0.07,0-0.21,0-0.44-0.01l-1.5,0.01l-2.18,4.44L600.77,263.16z M600.74,257.64l-4.43,0.03
				l2.77,3.38L600.74,257.64z"/>
			<path class="st7" d="M610.53,245.79c-0.1,0.02-0.18,0.07-0.24,0.15c-0.03,0.05-0.04,0.19-0.01,0.42
				c0.02,0.23,0.02,0.54-0.02,0.91c-0.03,0.37-0.13,0.81-0.3,1.32c-0.17,0.5-0.45,1.06-0.85,1.68c-0.45,0.68-0.95,1.25-1.5,1.69
				c-0.56,0.44-1.15,0.75-1.76,0.93c-0.62,0.18-1.24,0.22-1.87,0.13c-0.63-0.09-1.23-0.32-1.8-0.7c-0.48-0.31-0.87-0.71-1.16-1.21
				c-0.3-0.49-0.48-1.04-0.56-1.66c-0.08-0.61-0.03-1.26,0.14-1.95c0.17-0.69,0.48-1.39,0.94-2.09c0.32-0.49,0.64-0.9,0.97-1.22
				c0.33-0.33,0.63-0.6,0.91-0.83c0.28-0.22,0.52-0.4,0.71-0.53c0.2-0.13,0.32-0.23,0.36-0.3c0.05-0.08,0.07-0.13,0.06-0.17
				c-0.01-0.04-0.03-0.08-0.04-0.13l0.23-0.1l0.91,1.89l-0.21,0.14c-0.02-0.08-0.06-0.14-0.14-0.19c-0.08-0.05-0.22-0.04-0.43,0.03
				c-0.21,0.07-0.46,0.2-0.73,0.38c-0.27,0.18-0.56,0.42-0.86,0.71c-0.3,0.29-0.58,0.63-0.84,1.02c-0.25,0.39-0.46,0.82-0.61,1.28
				c-0.15,0.47-0.21,0.93-0.19,1.38c0.02,0.45,0.15,0.89,0.37,1.32c0.22,0.42,0.58,0.8,1.07,1.11c0.42,0.28,0.87,0.43,1.36,0.46
				c0.48,0.03,0.96-0.04,1.43-0.21c0.47-0.17,0.91-0.42,1.33-0.75c0.42-0.33,0.77-0.72,1.07-1.17c0.23-0.35,0.4-0.72,0.51-1.1
				c0.11-0.38,0.17-0.74,0.19-1.08c0.02-0.34,0-0.62-0.05-0.87c-0.05-0.24-0.12-0.39-0.22-0.45c-0.08-0.06-0.17-0.07-0.24-0.06
				l0.01-0.26l2.06-0.2L610.53,245.79z"/>
			<path class="st7" d="M613.11,242.81c0.05,0.1,0.1,0.21,0.16,0.34c0.06,0.12,0.11,0.21,0.16,0.25c0.1,0.08,0.21,0.04,0.33-0.11
				l0.15,0.13l-1.39,1.64l-0.15-0.13c0.04-0.05,0.08-0.1,0.1-0.15c0.03-0.05,0.03-0.11,0.02-0.18c-0.01-0.07-0.04-0.16-0.09-0.28
				c-0.04-0.11-0.1-0.26-0.18-0.45l-3.15-6.8c-0.09-0.19-0.15-0.34-0.19-0.44c-0.04-0.1-0.09-0.16-0.13-0.2
				c-0.1-0.09-0.22-0.05-0.36,0.11l-0.15-0.13l1.65-1.95l0.15,0.13c-0.12,0.14-0.13,0.26-0.03,0.34c0.05,0.04,0.14,0.08,0.25,0.1
				c0.12,0.03,0.28,0.06,0.49,0.11l7.28,1.75c0.22,0.05,0.4,0.09,0.52,0.12c0.12,0.03,0.22,0.04,0.3,0.04
				c0.08,0,0.14-0.03,0.18-0.06c0.05-0.04,0.1-0.1,0.17-0.18l0.15,0.13l-1.57,1.86l-0.15-0.13c0.09-0.11,0.13-0.19,0.13-0.25
				c0-0.06-0.03-0.12-0.09-0.17c-0.04-0.04-0.1-0.06-0.16-0.08c-0.07-0.02-0.21-0.06-0.42-0.11l-1.46-0.36l-3.19,3.78L613.11,242.81
				z M614.42,237.44l-4.31-1.05l1.86,3.95L614.42,237.44z"/>
			<path class="st7" d="M618.02,225.9c0.56-0.51,1.13-0.92,1.74-1.21c0.6-0.29,1.21-0.46,1.82-0.49c0.61-0.04,1.2,0.06,1.77,0.29
				c0.57,0.23,1.11,0.62,1.6,1.15c0.49,0.54,0.84,1.1,1.03,1.69c0.19,0.59,0.24,1.18,0.15,1.78c-0.09,0.6-0.3,1.19-0.65,1.76
				c-0.34,0.57-0.79,1.12-1.35,1.63c-0.56,0.52-1.13,0.92-1.73,1.22c-0.6,0.3-1.2,0.47-1.8,0.51c-0.61,0.04-1.19-0.05-1.77-0.29
				c-0.57-0.23-1.11-0.62-1.6-1.15c-0.5-0.53-0.84-1.1-1.03-1.69c-0.19-0.59-0.24-1.19-0.16-1.79c0.08-0.61,0.29-1.2,0.63-1.78
				C617.02,226.96,617.46,226.41,618.02,225.9z M618.79,226.74c-0.87,0.81-1.34,1.65-1.41,2.53c-0.07,0.88,0.26,1.7,0.97,2.47
				c0.71,0.77,1.51,1.16,2.39,1.15c0.88,0,1.76-0.41,2.63-1.22c0.87-0.81,1.34-1.65,1.41-2.53c0.07-0.88-0.26-1.7-0.97-2.47
				c-0.71-0.77-1.51-1.16-2.39-1.15C620.54,225.52,619.67,225.93,618.79,226.74z"/>
			<path class="st7" d="M639.95,217.88l-3.21-5.09c-0.07-0.1-0.14-0.17-0.23-0.2c-0.09-0.03-0.2,0-0.34,0.09l-0.11-0.17l1.77-1.12
				l0.11,0.17c-0.14,0.09-0.21,0.18-0.22,0.27c-0.01,0.09,0.02,0.19,0.08,0.3l4.07,6.46c0.07,0.1,0.14,0.17,0.23,0.2
				c0.09,0.03,0.2,0,0.34-0.08l0.11,0.17l-1.89,1.19l-0.11-0.17c0.2-0.12,0.27-0.22,0.22-0.3c-0.04-0.07-0.1-0.11-0.16-0.13
				c-0.07-0.02-0.12-0.04-0.16-0.05l-8.89-2.45l3.65,5.81c0.07,0.1,0.14,0.17,0.23,0.2c0.09,0.03,0.2,0,0.34-0.09l0.11,0.17
				l-1.78,1.12l-0.11-0.17c0.14-0.09,0.21-0.18,0.22-0.27c0.01-0.09-0.02-0.19-0.08-0.3l-4.07-6.46c-0.07-0.1-0.14-0.17-0.23-0.2
				c-0.09-0.03-0.2,0-0.34,0.08l-0.11-0.17l2.5-1.57l0.11,0.17c-0.11,0.07-0.17,0.13-0.2,0.18c-0.03,0.05-0.02,0.1,0.02,0.16
				c0.02,0.03,0.05,0.05,0.1,0.07c0.05,0.02,0.09,0.03,0.14,0.04l7.85,2.17L639.95,217.88z"/>
			<path class="st7" d="M645.78,216.09c0,0.11,0,0.23,0,0.37c0,0.14,0.01,0.24,0.04,0.3c0.05,0.11,0.17,0.13,0.35,0.04l0.08,0.18
				l-1.95,0.9l-0.09-0.18c0.06-0.03,0.12-0.06,0.16-0.09c0.04-0.03,0.07-0.08,0.09-0.15c0.02-0.07,0.03-0.16,0.04-0.29
				c0.01-0.12,0.02-0.28,0.03-0.48l0.02-7.49c0.01-0.21,0.01-0.37,0.01-0.48c0-0.11-0.01-0.18-0.03-0.24
				c-0.06-0.12-0.18-0.14-0.37-0.05l-0.09-0.18l2.32-1.07l0.09,0.18c-0.17,0.08-0.23,0.18-0.17,0.3c0.03,0.06,0.09,0.13,0.19,0.2
				c0.1,0.07,0.23,0.17,0.39,0.31l5.86,4.66c0.18,0.14,0.32,0.25,0.42,0.33c0.1,0.08,0.19,0.13,0.26,0.16
				c0.07,0.03,0.14,0.04,0.19,0.02c0.06-0.01,0.13-0.04,0.23-0.09l0.09,0.18l-2.21,1.02l-0.08-0.18c0.13-0.06,0.2-0.12,0.23-0.17
				c0.03-0.06,0.02-0.12-0.01-0.19c-0.02-0.05-0.06-0.1-0.11-0.14c-0.05-0.04-0.16-0.14-0.33-0.28l-1.17-0.94l-4.49,2.08
				L645.78,216.09z M649.24,211.78l-3.46-2.77l0.02,4.37L649.24,211.78z"/>
			<path class="st7" d="M664.29,208.76c-0.09-0.05-0.19-0.06-0.29-0.03c-0.06,0.02-0.15,0.12-0.28,0.32
				c-0.13,0.19-0.32,0.43-0.58,0.7c-0.26,0.27-0.62,0.55-1.07,0.83c-0.45,0.29-1.02,0.54-1.72,0.77c-0.78,0.25-1.52,0.37-2.23,0.36
				c-0.71-0.01-1.36-0.14-1.95-0.39c-0.59-0.25-1.1-0.61-1.53-1.08c-0.43-0.47-0.75-1.03-0.96-1.68c-0.17-0.55-0.22-1.1-0.14-1.67
				c0.08-0.57,0.29-1.11,0.61-1.64c0.33-0.52,0.77-1,1.34-1.43c0.57-0.43,1.25-0.77,2.05-1.03c0.56-0.18,1.06-0.29,1.53-0.34
				c0.46-0.05,0.87-0.07,1.23-0.07c0.36,0,0.65,0.02,0.89,0.04c0.23,0.03,0.39,0.03,0.47,0c0.09-0.03,0.14-0.06,0.15-0.09
				c0.01-0.03,0.03-0.08,0.05-0.13l0.24,0.06l-0.48,2.04l-0.25-0.03c0.04-0.07,0.04-0.15,0.02-0.23c-0.03-0.09-0.15-0.17-0.36-0.25
				c-0.21-0.08-0.48-0.13-0.81-0.17c-0.33-0.03-0.7-0.03-1.12,0c-0.42,0.04-0.85,0.12-1.29,0.27c-0.44,0.14-0.87,0.35-1.28,0.61
				c-0.41,0.27-0.75,0.58-1.02,0.95c-0.27,0.37-0.45,0.79-0.54,1.26c-0.1,0.47-0.05,0.98,0.12,1.54c0.15,0.48,0.41,0.88,0.76,1.21
				c0.36,0.33,0.77,0.57,1.24,0.74c0.47,0.17,0.97,0.25,1.51,0.26c0.53,0.01,1.05-0.07,1.57-0.24c0.4-0.13,0.76-0.31,1.09-0.53
				c0.32-0.23,0.6-0.47,0.83-0.71c0.22-0.25,0.4-0.48,0.51-0.7c0.11-0.22,0.15-0.38,0.12-0.49c-0.03-0.1-0.08-0.16-0.15-0.2
				l0.17-0.2l1.72,1.14L664.29,208.76z"/>
			<path class="st7" d="M667.6,209.09c0.16-0.04,0.26-0.09,0.3-0.18c0.04-0.08,0.05-0.19,0.02-0.31l-1.64-7.46
				c-0.03-0.12-0.08-0.21-0.15-0.27c-0.07-0.06-0.19-0.07-0.35-0.04l-0.04-0.2l2.25-0.49l0.04,0.2c-0.16,0.04-0.26,0.1-0.3,0.18
				c-0.04,0.08-0.05,0.19-0.02,0.31l1.64,7.46c0.03,0.12,0.08,0.21,0.15,0.27c0.07,0.06,0.19,0.07,0.35,0.04l0.04,0.2l-2.25,0.49
				L667.6,209.09z"/>
			<path class="st7" d="M676.5,198.65c0.75-0.09,1.46-0.08,2.12,0.04c0.66,0.12,1.25,0.34,1.76,0.66c0.52,0.33,0.94,0.75,1.27,1.28
				c0.33,0.53,0.54,1.15,0.63,1.87c0.09,0.72,0.04,1.38-0.15,1.97c-0.19,0.59-0.5,1.1-0.92,1.54c-0.42,0.44-0.94,0.79-1.55,1.05
				c-0.61,0.26-1.3,0.44-2.05,0.53c-0.75,0.09-1.46,0.09-2.12-0.02c-0.66-0.1-1.25-0.32-1.76-0.64c-0.51-0.32-0.94-0.74-1.27-1.27
				c-0.33-0.52-0.54-1.15-0.63-1.87c-0.09-0.72-0.04-1.38,0.15-1.97c0.19-0.59,0.5-1.1,0.92-1.55c0.42-0.44,0.94-0.8,1.55-1.07
				C675.07,198.93,675.75,198.74,676.5,198.65z M676.64,199.79c-1.18,0.14-2.05,0.55-2.62,1.23c-0.57,0.67-0.79,1.53-0.66,2.57
				c0.13,1.04,0.55,1.82,1.26,2.34c0.72,0.51,1.66,0.7,2.84,0.55c1.18-0.15,2.05-0.56,2.62-1.23c0.57-0.67,0.79-1.53,0.66-2.57
				c-0.13-1.04-0.55-1.82-1.27-2.34C678.77,199.82,677.82,199.64,676.64,199.79z"/>
			<path class="st7" d="M693.63,204.57l-0.03-6.02c0-0.12-0.03-0.22-0.09-0.29c-0.06-0.07-0.17-0.11-0.33-0.11v-0.2l2.1-0.01l0,0.2
				c-0.16,0-0.27,0.04-0.33,0.11c-0.06,0.07-0.09,0.17-0.09,0.3l0.04,7.64c0,0.12,0.03,0.22,0.09,0.29
				c0.06,0.07,0.17,0.11,0.33,0.11v0.2l-2.24,0.01l0-0.2c0.23,0,0.35-0.05,0.35-0.14c0-0.08-0.03-0.14-0.07-0.19
				c-0.05-0.05-0.08-0.09-0.11-0.12l-6.26-6.78l0.04,6.86c0,0.12,0.03,0.22,0.09,0.3c0.06,0.07,0.17,0.11,0.33,0.11l0,0.2l-2.1,0.01
				l0-0.2c0.16,0,0.27-0.04,0.33-0.11c0.06-0.07,0.09-0.17,0.09-0.3l-0.04-7.63c0-0.12-0.03-0.22-0.09-0.29
				c-0.06-0.07-0.17-0.11-0.33-0.11l0-0.2l2.96-0.01v0.2c-0.13,0-0.21,0.02-0.26,0.04c-0.05,0.03-0.07,0.08-0.07,0.14
				c0,0.03,0.02,0.07,0.04,0.11c0.03,0.04,0.06,0.08,0.1,0.11l5.52,5.99H693.63z"/>
			<path class="st7" d="M699.59,205.95c-0.06,0.1-0.12,0.2-0.19,0.32c-0.07,0.12-0.11,0.21-0.12,0.28
				c-0.01,0.12,0.08,0.19,0.28,0.21l-0.02,0.2l-2.14-0.21l0.02-0.2c0.07,0.01,0.13,0.01,0.18,0c0.05-0.01,0.11-0.03,0.16-0.09
				c0.05-0.05,0.11-0.13,0.18-0.23c0.07-0.1,0.16-0.24,0.27-0.41l3.81-6.45c0.11-0.18,0.19-0.32,0.25-0.41
				c0.06-0.09,0.09-0.16,0.09-0.22c0.01-0.13-0.09-0.21-0.29-0.23l0.02-0.2l2.54,0.25l-0.02,0.2c-0.19-0.02-0.28,0.04-0.3,0.17
				c-0.01,0.07,0.01,0.16,0.06,0.27c0.05,0.11,0.11,0.27,0.18,0.46l2.69,6.99c0.09,0.21,0.15,0.38,0.2,0.49
				c0.05,0.12,0.09,0.21,0.14,0.27c0.05,0.06,0.1,0.1,0.16,0.12c0.06,0.02,0.14,0.03,0.24,0.04l-0.02,0.2l-2.42-0.24l0.02-0.2
				c0.14,0.01,0.23,0,0.28-0.03c0.05-0.03,0.08-0.09,0.09-0.17c0.01-0.06,0-0.12-0.03-0.18c-0.02-0.06-0.07-0.2-0.14-0.41l-0.53-1.4
				l-4.92-0.48L699.59,205.95z M704.76,203.98l-1.58-4.14l-2.2,3.77L704.76,203.98z"/>
			<path class="st7" d="M713.86,200.18c-0.16-0.04-0.28-0.02-0.35,0.05c-0.07,0.06-0.13,0.17-0.16,0.33l-1.48,6.91l5.74,1.23
				c0.4,0.09,0.63-0.04,0.7-0.36l0.2,0.04l-0.4,1.89l-0.2-0.04c0.05-0.21-0.13-0.36-0.53-0.44l-7.59-1.62l0.04-0.2
				c0.16,0.03,0.28,0.02,0.35-0.04c0.07-0.06,0.12-0.15,0.15-0.27l1.59-7.47c0.03-0.12,0.02-0.22-0.02-0.31
				c-0.04-0.08-0.14-0.14-0.3-0.18l0.04-0.2l2.26,0.48L713.86,200.18z"/>
			<path class="st7" d="M725.83,209.1c-0.09-0.03-0.16-0.02-0.22,0.03c-0.06,0.05-0.1,0.11-0.13,0.17l-0.3-0.11l0.58-1.58l0.3,0.11
				c-0.07,0.19-0.02,0.32,0.14,0.37l2.81,1.02c0.09,0.03,0.16,0.02,0.22-0.03c0.06-0.05,0.1-0.11,0.13-0.17l0.3,0.11l-0.58,1.58
				l-0.3-0.11c0.07-0.19,0.02-0.31-0.14-0.37L725.83,209.1z"/>
			<path class="st7" d="M739.24,209.15c0.06-0.11,0.08-0.21,0.06-0.3c-0.02-0.09-0.1-0.18-0.24-0.25l0.1-0.18l6.46,3.46
				c0.27,0.14,0.45,0.21,0.54,0.21c0.1-0.01,0.17-0.06,0.23-0.17l0.18,0.1l-0.91,1.69l-0.19-0.1c0.07-0.13,0.08-0.25,0.04-0.37
				c-0.04-0.12-0.18-0.24-0.42-0.37l-4.81-2.58l-1.26,2.34l3.13,1.68c0.18,0.1,0.35,0.15,0.5,0.15c0.15,0.01,0.27-0.07,0.35-0.23
				l0.19,0.1l-0.96,1.79l-0.18-0.1c0.08-0.15,0.09-0.28,0.03-0.39c-0.06-0.11-0.2-0.22-0.41-0.34l-3.16-1.69l-1.35,2.52l5.15,2.76
				c0.22,0.12,0.39,0.16,0.54,0.15c0.14-0.02,0.27-0.12,0.37-0.31l0.18,0.1l-0.95,1.76l-0.18-0.1c0.1-0.19-0.03-0.38-0.39-0.57
				l-6.9-3.7l0.1-0.18c0.14,0.08,0.26,0.1,0.34,0.06c0.09-0.04,0.16-0.11,0.22-0.22L739.24,209.15z"/>
			<path class="st7" d="M753.24,226.14c-0.01-0.1-0.06-0.19-0.15-0.25c-0.05-0.03-0.19-0.04-0.42-0.03c-0.23,0.02-0.54,0-0.91-0.05
				c-0.37-0.05-0.81-0.16-1.31-0.35c-0.5-0.18-1.05-0.49-1.65-0.91c-0.67-0.47-1.21-0.99-1.63-1.56c-0.42-0.57-0.71-1.17-0.86-1.79
				c-0.15-0.62-0.17-1.25-0.06-1.87c0.11-0.63,0.37-1.22,0.76-1.78c0.33-0.47,0.74-0.84,1.25-1.12c0.5-0.28,1.06-0.44,1.68-0.49
				c0.62-0.05,1.26,0.02,1.95,0.21c0.68,0.19,1.37,0.53,2.05,1.02c0.48,0.34,0.87,0.67,1.19,1.01c0.32,0.34,0.58,0.65,0.79,0.94
				c0.21,0.29,0.38,0.53,0.5,0.73c0.12,0.2,0.21,0.33,0.28,0.37c0.08,0.06,0.13,0.08,0.17,0.07c0.04-0.01,0.08-0.02,0.13-0.04
				l0.09,0.23l-1.92,0.84l-0.13-0.21c0.08-0.01,0.15-0.06,0.2-0.13c0.05-0.07,0.05-0.22-0.02-0.43c-0.06-0.21-0.18-0.46-0.35-0.74
				c-0.17-0.28-0.4-0.58-0.68-0.89c-0.28-0.31-0.61-0.6-0.99-0.87c-0.38-0.27-0.8-0.49-1.26-0.66c-0.46-0.17-0.92-0.25-1.37-0.24
				c-0.45,0.01-0.9,0.12-1.33,0.32c-0.43,0.21-0.82,0.55-1.15,1.02c-0.29,0.41-0.46,0.86-0.51,1.34c-0.05,0.48,0.01,0.96,0.15,1.43
				c0.15,0.47,0.38,0.93,0.7,1.36c0.32,0.43,0.69,0.8,1.13,1.11c0.34,0.24,0.7,0.42,1.08,0.55c0.38,0.12,0.73,0.2,1.07,0.23
				c0.34,0.03,0.62,0.03,0.87-0.02c0.24-0.04,0.4-0.11,0.46-0.2c0.06-0.08,0.08-0.16,0.07-0.24l0.26,0.02l0.12,2.06L753.24,226.14z"
				/>
			<path class="st7" d="M760.49,223c0.08-0.09,0.13-0.18,0.13-0.28c0.01-0.09-0.05-0.19-0.17-0.31l0.14-0.15l1.7,1.56l-0.14,0.15
				c-0.12-0.11-0.23-0.16-0.32-0.14c-0.09,0.01-0.18,0.07-0.26,0.16l-3.64,3.97c-0.43,0.47-0.56,0.97-0.37,1.5
				c0.19,0.53,0.64,1.12,1.36,1.79c0.72,0.66,1.36,1.06,1.9,1.2c0.54,0.14,1.03-0.02,1.46-0.49l3.64-3.97
				c0.08-0.09,0.13-0.18,0.13-0.27c0.01-0.09-0.05-0.19-0.17-0.31l0.14-0.15l1.7,1.56l-0.14,0.15c-0.12-0.11-0.23-0.16-0.32-0.14
				c-0.09,0.02-0.18,0.07-0.26,0.16l-3.39,3.69c-0.45,0.5-0.9,0.83-1.34,1.01s-0.88,0.23-1.33,0.15c-0.45-0.07-0.9-0.26-1.36-0.57
				c-0.46-0.31-0.94-0.69-1.45-1.16c-0.51-0.46-0.93-0.91-1.28-1.35c-0.35-0.43-0.58-0.87-0.69-1.3c-0.11-0.44-0.1-0.88,0.04-1.33
				c0.14-0.45,0.43-0.93,0.89-1.42L760.49,223z"/>
			<path class="st7" d="M765.07,237.47c-0.11,0.03-0.23,0.06-0.36,0.1c-0.13,0.04-0.22,0.08-0.27,0.12
				c-0.09,0.08-0.08,0.19,0.05,0.35l-0.15,0.13l-1.4-1.64l0.15-0.13c0.05,0.05,0.09,0.1,0.13,0.13c0.04,0.03,0.1,0.05,0.17,0.05
				c0.07,0,0.17-0.01,0.29-0.04c0.12-0.03,0.28-0.06,0.47-0.11l7.22-2c0.21-0.05,0.36-0.09,0.46-0.12c0.1-0.03,0.17-0.06,0.22-0.09
				c0.1-0.09,0.09-0.21-0.05-0.37l0.15-0.13l1.66,1.94l-0.15,0.13c-0.12-0.14-0.23-0.17-0.33-0.08c-0.05,0.04-0.1,0.12-0.14,0.24
				c-0.04,0.11-0.11,0.27-0.19,0.46l-2.91,6.9c-0.09,0.21-0.15,0.37-0.2,0.49c-0.05,0.12-0.08,0.21-0.08,0.29
				c-0.01,0.08,0,0.14,0.03,0.19c0.03,0.05,0.08,0.12,0.15,0.2l-0.15,0.13l-1.58-1.85l0.15-0.13c0.09,0.11,0.17,0.16,0.23,0.17
				c0.06,0.01,0.12-0.01,0.18-0.06c0.04-0.04,0.08-0.09,0.11-0.15c0.03-0.06,0.09-0.19,0.18-0.4l0.59-1.38l-3.21-3.76L765.07,237.47
				z M770.15,239.64l1.74-4.08l-4.2,1.19L770.15,239.64z"/>
			<path class="st7" d="M777.94,241.79c0.1-0.07,0.17-0.15,0.2-0.23c0.03-0.09,0-0.2-0.09-0.34l0.17-0.11l2.99,4.52
				c0.4,0.6,0.66,1.21,0.8,1.81c0.14,0.6,0.15,1.18,0.05,1.73c-0.11,0.55-0.33,1.07-0.66,1.55c-0.33,0.48-0.76,0.9-1.3,1.25
				c-0.53,0.35-1.08,0.6-1.64,0.74c-0.56,0.14-1.1,0.17-1.63,0.08c-0.53-0.09-1.04-0.3-1.52-0.63c-0.48-0.33-0.92-0.8-1.31-1.39
				l-3.17-4.8l0.17-0.11c0.09,0.14,0.18,0.21,0.27,0.22c0.09,0.01,0.19-0.02,0.3-0.09L777.94,241.79z M774.84,250.04
				c0.57,0.86,1.22,1.34,1.97,1.46c0.75,0.12,1.58-0.12,2.49-0.72c0.91-0.6,1.43-1.3,1.58-2.1c0.14-0.8-0.08-1.65-0.68-2.56
				l-1.87-2.83l-5.53,3.65L774.84,250.04z"/>
			<path class="st7" d="M787.58,256.65c0.33,0.68,0.56,1.35,0.66,2.01c0.11,0.66,0.09,1.29-0.05,1.88c-0.14,0.59-0.4,1.13-0.79,1.62
				c-0.39,0.48-0.91,0.88-1.56,1.21c-0.65,0.32-1.29,0.49-1.91,0.5c-0.62,0.01-1.2-0.11-1.75-0.37c-0.55-0.26-1.05-0.63-1.5-1.13
				c-0.45-0.49-0.84-1.08-1.17-1.76c-0.33-0.68-0.56-1.35-0.68-2.01c-0.12-0.66-0.11-1.28,0.03-1.87c0.13-0.59,0.39-1.13,0.78-1.61
				c0.39-0.48,0.91-0.89,1.56-1.21c0.65-0.32,1.29-0.49,1.91-0.5c0.62-0.01,1.2,0.11,1.76,0.36c0.56,0.25,1.06,0.62,1.52,1.11
				C786.85,255.38,787.25,255.97,787.58,256.65z M786.56,257.15c-0.52-1.07-1.2-1.76-2.02-2.07c-0.82-0.32-1.7-0.24-2.65,0.22
				c-0.94,0.46-1.54,1.12-1.79,1.96c-0.25,0.85-0.11,1.8,0.41,2.87c0.53,1.07,1.2,1.76,2.02,2.07c0.82,0.32,1.71,0.24,2.65-0.22
				c0.94-0.46,1.54-1.12,1.79-1.96C787.22,259.17,787.08,258.22,786.56,257.15z"/>
			<path class="st7" d="M783.99,269.29c-0.12,0.04-0.2,0.1-0.25,0.18c-0.05,0.08-0.05,0.19,0,0.35l-0.19,0.07l-0.74-2.19l0.19-0.06
				c0.05,0.15,0.12,0.25,0.21,0.28c0.09,0.03,0.19,0.03,0.31-0.01l7.23-2.46c0.12-0.04,0.2-0.1,0.25-0.18
				c0.05-0.08,0.05-0.19,0-0.35l0.19-0.07l1.89,5.55c0.37,1.09,0.44,1.94,0.2,2.55c-0.24,0.61-0.73,1.04-1.49,1.3
				c-0.67,0.23-1.26,0.23-1.78-0.01c-0.52-0.23-0.97-0.74-1.36-1.53l-2.4,3.14c-0.13,0.18-0.21,0.31-0.24,0.4
				c-0.03,0.09-0.01,0.22,0.04,0.38l-0.19,0.07l-0.81-2.38l0.19-0.07c0.05,0.14,0.09,0.23,0.12,0.26c0.03,0.03,0.08,0.04,0.13,0.02
				c0.06-0.02,0.11-0.07,0.15-0.14l2.43-3.1l-1.03-3.05L783.99,269.29z M789.36,271.51c0.23,0.67,0.51,1.11,0.85,1.3
				c0.34,0.19,0.72,0.22,1.14,0.07c0.21-0.07,0.38-0.16,0.51-0.27c0.13-0.11,0.22-0.25,0.27-0.42c0.05-0.18,0.06-0.4,0.02-0.66
				c-0.04-0.26-0.12-0.59-0.25-0.98l-1.2-3.54l-2.58,0.88L789.36,271.51z"/>
		</g>
	</g>
	<g>
		<text transform="matrix(1 0 0 1 685.0029 380.1073)"><tspan x="0" y="0" class="st7 st8 st9 st10"> </tspan><tspan x="140.38" y="0" class="st7 st8 st9">TO BAR</tspan></text>
	</g>
	<g>
		<text transform="matrix(1 0 0 1 257.5371 380.1073)"><tspan x="0" y="0" class="st7 st8 st9">BEA</tspan><tspan x="217.82" y="0" class="st7 st8 st9 st11">N</tspan></text>
	</g>
</g>
<g id="Layer_2_copy">
</g>
<g id="HEADER">
</g>
<g id="BODDY">
</g>
<g id="PIE">
</g>
</svg>
